<svg version="1.1" xmlns="http://www.w3.org/2000/svg" xmlns:xlink="http://www.w3.org/1999/xlink" x="0px" y="0px" width="170.083px" height="53.739px" viewBox="0 0 170.083 53.739" enable-background="new 0 0 170.083 53.739" xml:space="preserve">
  <g>
    <g>
      <defs>
        <rect id="SVGID_1--543975274" width="170.083" height="53.739"></rect>
      </defs>
      <clipPath id="SVGID_2--1790214884">
        <use xlink:href="#SVGID_1--543975274" overflow="visible"></use>
      </clipPath>
      <path clip-path="url(#SVGID_2--1790214884)" fill="#FFFFFF" d="M72.831,30.204c-3.314,0-5.452,2.42-5.452,5.994
        c0,3.596,2.115,5.947,5.288,5.947c3.29,0,5.43-2.375,5.43-5.947C78.097,32.554,76.005,30.204,72.831,30.204 M72.784,40.475
        c-1.948,0-3.407-1.738-3.407-4.348c0-2.561,1.292-4.277,3.337-4.277c1.951,0,3.386,1.762,3.386,4.371
        C76.1,38.808,74.901,40.475,72.784,40.475 M141.793,26.211c-0.683,0-1.222,0.542-1.222,1.223s0.539,1.223,1.222,1.223
        c0.681,0,1.222-0.541,1.222-1.223S142.474,26.211,141.793,26.211 M61.764,40.311c-3.457,0-5.621-2.492-5.621-6.322
        c0-3.926,2.587-6.254,5.785-6.254c2.209,0,3.596,0.941,3.786,1.059l0.915-1.457c-0.188-0.188-1.715-1.456-4.818-1.456
        c-4.326,0-7.83,3.054-7.83,8.295c0,5.053,3.315,8.014,7.524,8.014c3.174,0,5.1-1.456,5.264-1.643l-0.915-1.457
        C65.688,39.183,64.02,40.311,61.764,40.311 M150.397,30.204c-3.312,0-5.451,2.42-5.451,5.994c0,3.596,2.115,5.947,5.287,5.947
        c3.291,0,5.429-2.375,5.429-5.947C155.662,32.554,153.573,30.204,150.397,30.204 M150.351,40.475
        c-1.951,0-3.406-1.738-3.406-4.348c0-2.561,1.291-4.277,3.338-4.277c1.949,0,3.385,1.762,3.385,4.371
        C153.667,38.808,152.467,40.475,150.351,40.475 M163.093,30.204c-1.929,0-3.361,1.035-3.552,1.152v-0.848h-1.783v11.377h1.995v-9
        c0.096-0.073,1.527-0.989,2.988-0.989c0.703,0,1.291,0.261,1.597,0.565c0.586,0.586,0.612,1.527,0.612,2.961v6.463h1.994v-6.604
        c0-1.832-0.047-3.01-1.127-4.091C165.466,30.838,164.665,30.204,163.093,30.204 M91.869,30.204c-1.718,0-3.009,0.729-3.949,1.317
        c-0.519-0.707-1.366-1.317-2.798-1.317c-1.787,0-3.338,1.058-3.479,1.152v-0.848h-1.787v11.377h1.998v-9.049
        c0.164-0.092,1.527-0.94,2.915-0.94c0.681,0,1.175,0.212,1.481,0.519c0.588,0.61,0.565,1.645,0.565,3.172v6.299h1.975v-6.369
        c0-0.918,0-2.162-0.191-2.657c0.262-0.163,1.623-0.963,3.008-0.963c0.684,0,1.203,0.188,1.555,0.588
        c0.589,0.636,0.564,2.046,0.564,2.75v6.651h1.998v-6.604c0-1.832-0.047-3.01-1.13-4.091
        C94.242,30.838,93.442,30.204,91.869,30.204 M116.287,41.885h1.998V30.508h-1.998V41.885z M117.274,26.211
        c-0.683,0-1.224,0.542-1.224,1.223s0.541,1.223,1.224,1.223c0.681,0,1.223-0.541,1.223-1.223S117.955,26.211,117.274,26.211
        M109.916,30.204c-1.714,0-3.009,0.729-3.949,1.317c-0.516-0.707-1.362-1.317-2.795-1.317c-1.788,0-3.34,1.058-3.481,1.152v-0.848
        h-1.787v11.377h1.998v-9.049c0.168-0.092,1.529-0.94,2.916-0.94c0.683,0,1.178,0.212,1.481,0.519
        c0.589,0.61,0.565,1.645,0.565,3.172v6.299h1.975v-6.369c0-0.918,0-2.162-0.189-2.657c0.258-0.163,1.623-0.963,3.009-0.963
        c0.68,0,1.198,0.188,1.553,0.588c0.586,0.636,0.562,2.046,0.562,2.75v6.651h2v-6.604c0-1.832-0.047-3.01-1.129-4.091
        C112.291,30.838,111.492,30.204,109.916,30.204 M122.915,33.306c0-0.845,0.705-1.528,2.091-1.528s2.563,0.684,2.705,0.776
        l0.749-1.339c-0.117-0.096-1.385-1.012-3.596-1.012c-2.324,0-3.971,1.293-3.971,3.219c0,3.621,5.615,3.104,5.615,5.431
        c0,1.013-0.961,1.694-2.186,1.694c-1.643,0-2.795-0.729-3.031-0.87l-0.754,1.387c0.145,0.117,1.646,1.126,3.902,1.126
        c2.235,0,4.164-1.268,4.164-3.477C128.604,35.093,122.915,35.493,122.915,33.306 M140.808,41.885h1.998V30.508h-1.998V41.885z
        M132.603,33.306c0-0.845,0.705-1.528,2.092-1.528s2.562,0.684,2.705,0.776l0.75-1.339c-0.117-0.096-1.385-1.012-3.594-1.012
        c-2.328,0-3.974,1.293-3.974,3.219c0,3.621,5.614,3.104,5.614,5.431c0,1.013-0.959,1.694-2.184,1.694
        c-1.644,0-2.798-0.729-3.031-0.87l-0.754,1.387c0.144,0.117,1.646,1.126,3.904,1.126c2.23,0,4.158-1.268,4.158-3.477
        C138.29,35.093,132.603,35.493,132.603,33.306"></path>
      <path clip-path="url(#SVGID_2--1790214884)" fill="#FFFFFF" d="M61.693,22.204c3.506,0,5.527-1.739,5.713-1.926l-1.37-2.206
        c-0.255,0.14-1.905,1.278-3.949,1.278c-2.948,0-4.828-2.113-4.828-5.341c0-3.296,2.181-5.271,4.992-5.271
        c2.252,0,3.507,1.068,3.692,1.184l1.417-2.158c-0.163-0.162-1.766-1.787-5.248-1.787c-4.621,0-8.151,3.086-8.151,8.243
        C53.961,19.187,57.329,22.204,61.693,22.204 M68.305,18.418c0,2.161,1.415,3.67,3.691,3.67c1.811,0,3.018-0.929,3.227-1.07v0.815
        h2.718v-6.849c0-1.487,0.023-2.671-0.93-3.623c-1.115-1.114-2.762-1.276-3.737-1.276c-2.625,0-4.181,1.09-4.342,1.229l1.043,1.998
        c0.164-0.094,1.533-0.836,3.042-0.836c0.86,0,1.37,0.209,1.625,0.464c0.325,0.327,0.349,0.65,0.349,1.346h-0.326
        C73.273,14.287,68.305,14.357,68.305,18.418 M74.991,19.023c-0.138,0.069-0.906,0.696-2.183,0.696
        c-0.765,0-1.764-0.325-1.764-1.508c0-1.439,1.439-1.788,3.46-1.788h0.487V19.023z M82.551,14.333
        c0.349-0.51,1.298-1.648,3.204-1.648c0.16,0,0.603,0.046,0.697,0.07l0.721-2.37c-0.07-0.022-0.489-0.3-1.305-0.3
        c-2.274,0-3.688,1.601-3.782,1.764v-1.44h-2.669v11.424h3.134V14.333z M92.413,10.085c-3.248,0-5.478,2.6-5.478,6.105
        c0,3.321,1.974,5.967,5.688,5.967c2.531,0,4.272-1.184,4.34-1.253l-1.02-1.996c-0.49,0.231-1.604,0.811-3.045,0.811
        c-2.273,0-2.971-1.74-2.924-2.576h7.523c0-0.162,0.047-0.488,0.047-0.974C97.546,12.453,95.757,10.085,92.413,10.085
        M89.952,14.89c0.232-1.416,1.113-2.482,2.532-2.482c1.927,0,2.159,1.857,2.159,2.482H89.952z M120.557,22.158
        c1.623,0,3.04-1.045,3.226-1.184v0.86h2.67V10.41h-3.133v8.36c-0.188,0.139-1.115,0.719-2.115,0.719
        c-0.742,0-1.09-0.279-1.228-0.418c-0.419-0.419-0.489-1.16-0.489-2.646V10.41h-3.135v6.154c0,1.485-0.047,3.203,1.23,4.481
        C118.327,21.787,119.349,22.158,120.557,22.158 M134.612,21.019v0.815h2.717v-6.849c0-1.487,0.026-2.671-0.927-3.623
        c-1.116-1.114-2.762-1.276-3.737-1.276c-2.625,0-4.181,1.09-4.343,1.229l1.044,1.998c0.164-0.094,1.531-0.836,3.04-0.836
        c0.861,0,1.371,0.209,1.626,0.464c0.326,0.327,0.35,0.65,0.35,1.346h-0.325c-1.392,0-6.36,0.071-6.36,4.132
        c0,2.161,1.414,3.67,3.689,3.67C133.197,22.088,134.405,21.16,134.612,21.019 M130.436,18.211c0-1.439,1.438-1.788,3.46-1.788
        h0.486v2.6c-0.139,0.069-0.905,0.696-2.184,0.696C131.434,19.72,130.436,19.395,130.436,18.211 M141.999,5.023h-3.136v16.811
        h3.136V5.023z M145.197,8.993c0.996,0,1.787-0.788,1.787-1.787c0-0.997-0.791-1.787-1.787-1.787c-0.997,0-1.788,0.79-1.788,1.787
        C143.409,8.205,144.2,8.993,145.197,8.993 M146.776,10.41h-3.135v11.424h3.135V10.41z M154.88,19.534
        c-1.371,0-1.44-1.044-1.44-1.949V13.01h3.252v-2.6h-3.252v-3.18h-3.132v3.18h-1.975v2.6h1.975v4.459c0,1.602,0,2.692,0.974,3.668
        c0.765,0.766,1.927,1.021,2.948,1.021c1.693,0,2.787-0.673,2.877-0.743l-0.787-2.158C156.11,19.326,155.598,19.534,154.88,19.534
        M159.845,24.688c-0.906,0-1.602-0.325-1.766-0.394l-0.928,2.228c0.094,0.047,1.184,0.72,2.855,0.72
        c1.882,0,2.854-0.696,3.343-1.183c0.812-0.812,1.325-1.858,2.207-4.109l4.526-11.54h-3.088l-2.856,8.009l-3.063-8.009h-3.32
        l4.783,11.424c-0.188,0.51-0.582,1.717-1.139,2.275C161.027,24.479,160.54,24.688,159.845,24.688 M114.972,13.983
        c0-4.657-2.98-8.014-7.572-8.014c-4.498,0-7.57,3.238-7.57,8.014c0,4.862,3.006,8.19,7.441,8.266v0.001
        c0,0,0.176,0.005,0.191,0.005c2.151,0.05,3.644,0.772,4.593,1.944c0.321-0.213,2.659-2.225,2.659-2.225s-0.808-0.969-2.684-1.221
        C113.859,19.334,114.972,16.98,114.972,13.983 M107.47,19.482c-2.446,0-4.311-2.026-4.311-5.286c0-3.241,1.629-5.523,4.125-5.523
        c2.608,0,4.357,2.212,4.357,5.288C111.642,16.455,110.686,19.482,107.47,19.482"></path>
      <path clip-path="url(#SVGID_2--1790214884)" fill="#FFFFFF" d="M37.902,43.649c6.145-4.354,10.16-11.517,10.16-19.62
        C48.062,10.758,37.303,0,24.031,0C10.758,0,0,10.758,0,24.029c0,13.273,10.758,24.03,24.031,24.03h0.685
        c6.391,0.109,10.784,2.231,13.589,5.68c0.942-0.619,7.753-6.483,7.753-6.483S43.619,44.311,37.902,43.649 M23.501,41.911
        c6.094-1.24,11.068-5.584,13.258-11.323c-0.013-0.009-0.029-0.005-0.045,0.009c-2.378,4.586-7.16,7.723-12.683,7.723
        c-7.893,0-14.29-6.398-14.29-14.29c0-7.891,6.397-14.288,14.29-14.288c5.523,0,10.307,3.139,12.684,7.725
        c0.016,0.012,0.032,0.016,0.044,0.005c-2.19-5.738-7.166-10.08-13.258-11.322c0.199-0.007,0.397-0.014,0.597-0.014
        c9.787,0,17.718,8.011,17.718,17.894c0,9.884-7.931,17.897-17.718,17.897C23.898,41.926,23.7,41.917,23.501,41.911"></path>
    </g>
  </g>
</svg>