<svg id="Layer_1" data-name="Layer 1" xmlns="http://www.w3.org/2000/svg" viewBox="0 0 2694.18 2562.85"><defs><style>.cls-1{fill:#1e1d3e;}.cls-2{fill:#009f9a;}.cls-3{fill:#e30d7f;}</style></defs><path class="cls-1" d="M904,1257.31c-84-.92-168.09.34-252-3.59-47.44-2.22-74.73,25.84-87.73,82.2-33,143.14-95.67,269.34-134.94,408.69-17.92,63.58-54.15,64.48-95.54,64.41-167.39-.28-164.65,2.14-95.85-198.26,145-422.2,286.75-846.27,429.83-1269.57,28.16-83.29,187.18-144.69,241.8-91.33,29.16,28.49,9.24,63.27-.92,93.17C848.52,519.8,789.52,697.31,725.74,871.79c-29.45,80.59-14.23,102.54,49.83,101.75,162.77-2,325.58.14,488.33,3.62,48.35,1,76.3-20.61,96-82.12,60.21-188,126.94-372.47,187.38-560.38,20.91-65,51.25-87.81,102.88-85.2,212.32,10.74,162.21-46.83,247.17,215.18,136.49,420.9,268.86,844.16,407,1264.1,28.51,86.68,10.34,104.66-51.43,98.29-28.71-3-57.93-4.14-86.56-.7-46.22,5.57-73.41-19.93-90.21-75.82-40.44-134.47-84.36-267.1-123.94-402-16.41-55.9-41.1-82.87-87.65-81.58-76.11,2.1-152.27-.59-228.41-1.59-42.85-.57-57.58-21-33.44-76,15.71-35.78,27.64-74.73,39-113.39,19.15-65,48.89-103.32,106.51-93,72.79,13.06,79.08-30.1,52.58-107.44-24.63-71.9-43.13-147.54-63.54-221.91-5.56-20.24-10.33-40.62-30.07-39.08-19.3,1.5-22.5,23.58-29,42.79C1560.54,1004.63,1439,1349.79,1326.58,1700c-31.9,99.42-73.8,124.29-148.84,119.35-131.55-8.68-131.73-3.41-77.59-163.72,34.08-100.92,71.26-199.72,101.54-303.27,25.19-86.14-1.23-93.92-53.53-93C1066.78,1260.76,985.38,1258.2,904,1257.31Z"></path><path class="cls-2" d="M2501,1827.65c-16.65-46.86-31.65-88.23-46.08-129.81Q2212,997.84,1969.32,297.76c-19.1-55.1-18.9-55.18,38.15-54.56q179.09,1.94,358.18,3.93c105.82,1.37,181.46,75.74,180.56,183.66Q2540.82,1081.4,2532.3,1732C2531.92,1764.1,2524.66,1795.17,2501,1827.65Z"></path><path class="cls-3" d="M1373.67,1836.53c48.26-159.2,93.5-306.63,137.5-455,9.46-31.89,24.75-33.86,42.78-33.63q137.34,1.77,274.7,2.86c16,.15,32.2-1.33,40.11,27.33,42.19,153.07,84.39,306.13,128.24,465.15Z"></path><path class="cls-1" d="M188.65,2035.18h30.11V2158H428.65V2035.18h30.1l.41,290.44h-30.1l-.41-139.93H218.76l.4,139.93h-30.1Z"></path><path class="cls-1" d="M708.14,2237.35H555.2l-39.05,88.27H483.6L615,2035.18h35l132.21,290.44h-35Zm-76.06-172.07L567.4,2209.69H695.94Z"></path><path class="cls-1" d="M986.83,2035.18H1128c84.61,0,128.54,54.11,128.54,145.22,0,81.77-42.3,145.22-123.66,145.22H987.23Zm30.1,262.78h109.83c52.07,0,97.22-28.48,97.22-117.56,0-76.88-30.1-117.55-97.22-117.55H1016.93Z"></path><path class="cls-1" d="M1308.22,2035.18h231v27.67h-201v98.43h193.62V2189H1338.32v109h204.2l.41,27.66H1308.62Z"></path><path class="cls-1" d="M1586.89,2035.18h158.23c49.22,0,94.38,17.5,94.38,78.51,0,30.91-19.53,61.83-57,70.37v.82c41.07,6.5,49.62,32.94,51.66,80.53,1.22,18.31,2.84,53.7,10.58,60.21h-32.55c-6.1-6.1-7.73-27.25-8.13-59.39-1.23-51.25-19.94-68.34-70.38-68.34H1617l.4,127.73h-30.1Zm30.1,135h127.32c33,0,62.64-12.2,62.64-56.54,0-42.31-32.14-50.84-59.79-50.84H1617Z"></path><path class="cls-1" d="M2186.1,2035.18h42.71l.41,290.44h-30.1l-.4-251h-.82l-127.73,251h-27.65l-128.14-251.38h-.81l.4,251.38h-30.1l-.41-290.44h43.94l129.35,252.61Z"></path><path class="cls-1" d="M2478.21,2237.35H2325.26l-39.05,88.27h-32.54l131.39-290.44h35l132.2,290.44h-35Zm-76.07-172.07-64.67,144.41H2466Z"></path><path class="cls-1" d="M847.39,2161.06h75.07v27.87H847.39Z"></path></svg>