<svg xmlns="http://www.w3.org/2000/svg" xmlns:xlink="http://www.w3.org/1999/xlink" viewBox="0 0 331.29 257.86"><defs><style>.cls-1{fill:url(#linear-gradient);}.cls-2{fill:url(#linear-gradient-2);}.cls-3{fill:url(#linear-gradient-3);}.cls-4{fill:url(#linear-gradient-4);}.cls-5{fill:url(#linear-gradient-5);}.cls-6{fill:url(#linear-gradient-6);}.cls-7{fill:url(#linear-gradient-7);}.cls-8{fill:url(#linear-gradient-8);}.cls-9{fill:url(#linear-gradient-9);}.cls-10{fill:url(#linear-gradient-10);}.cls-11{fill:url(#linear-gradient-11);}.cls-12{fill:url(#linear-gradient-12);}</style><linearGradient id="linear-gradient" x1="121.64" y1="26.49" x2="121.64" y2="202.12" gradientUnits="userSpaceOnUse"><stop offset="0" stop-color="#157fb4"/><stop offset="1" stop-color="#4297a3"/></linearGradient><linearGradient id="linear-gradient-2" x1="121.64" y1="25.84" x2="121.64" y2="201.48" xlink:href="#linear-gradient"/><linearGradient id="linear-gradient-3" x1="119.31" y1="24.72" x2="119.31" y2="200.36" xlink:href="#linear-gradient"/><linearGradient id="linear-gradient-4" x1="115.59" y1="24.72" x2="115.59" y2="200.36" xlink:href="#linear-gradient"/><linearGradient id="linear-gradient-5" x1="119.99" y1="71.04" x2="119.99" y2="246.68" gradientTransform="translate(26.48 -57.3) rotate(6.66)" xlink:href="#linear-gradient"/><linearGradient id="linear-gradient-6" x1="149.83" y1="64.86" x2="206.91" y2="101.9" gradientUnits="userSpaceOnUse"><stop offset="0.17" stop-color="#ff48a5"/><stop offset="0.24" stop-color="#f649a4"/><stop offset="0.35" stop-color="#dd4ca3"/><stop offset="0.49" stop-color="#b551a0"/><stop offset="0.66" stop-color="#7c579d"/><stop offset="0.85" stop-color="#365f98"/><stop offset="0.91" stop-color="#1f6297"/></linearGradient><linearGradient id="linear-gradient-7" x1="330.14" y1="-37.33" x2="106.03" y2="140.54" gradientTransform="translate(2.45 -27.13) rotate(2.79)" gradientUnits="userSpaceOnUse"><stop offset="0.12" stop-color="#ff48a5"/><stop offset="0.21" stop-color="#f949a5"/><stop offset="0.33" stop-color="#e94ba4"/><stop offset="0.46" stop-color="#cf4ea2"/><stop offset="0.6" stop-color="#aa52a0"/><stop offset="0.76" stop-color="#7b579d"/><stop offset="0.91" stop-color="#425e99"/><stop offset="1" stop-color="#1f6297"/></linearGradient><linearGradient id="linear-gradient-8" x1="122.39" y1="9.32" x2="120.71" y2="151.82" gradientUnits="userSpaceOnUse"><stop offset="0" stop-color="#157fb4"/><stop offset="1" stop-color="#368d9b"/></linearGradient><linearGradient id="linear-gradient-9" x1="120.63" y1="9.29" x2="118.95" y2="151.8" xlink:href="#linear-gradient-8"/><linearGradient id="linear-gradient-10" x1="161.07" y1="192.95" x2="249.09" y2="-39.71" gradientUnits="userSpaceOnUse"><stop offset="0" stop-color="#368d9b"/><stop offset="1" stop-color="#b9fbf2"/></linearGradient><linearGradient id="linear-gradient-11" x1="159.75" y1="192.45" x2="247.77" y2="-40.2" xlink:href="#linear-gradient-10"/><linearGradient id="linear-gradient-12" x1="198.94" y1="207.27" x2="286.96" y2="-25.38" xlink:href="#linear-gradient-10"/></defs><g id="Layer_2" data-name="Layer 2"><g id="Layer_1-2" data-name="Layer 1"><path class="cls-1" d="M91,155.68a88.23,88.23,0,0,0,13,11.84,63.81,63.81,0,0,0,14.57,8.13,35.53,35.53,0,0,0,3.91,1.38,27.48,27.48,0,0,0,4,1.16l4.08,1c1.38.21,2.78.39,4.18.65l2.11.38,2.15.14,4.35.42c2.94.24,5.89.13,9,.54a56.2,56.2,0,0,1-8.67,3.21c-3,.5-6.11,1.38-9.26,1.26-1.57.07-3.15.06-4.74,0l-4.72-.64a26.72,26.72,0,0,1-4.66-1.09,30,30,0,0,1-4.53-1.57,42.65,42.65,0,0,1-15.58-10.79A37.25,37.25,0,0,1,91,155.68Z"/><path class="cls-2" d="M90.08,177.84a89.45,89.45,0,0,0,13.85,10.8,64,64,0,0,0,15.16,7,34.15,34.15,0,0,0,4,1.07,27.91,27.91,0,0,0,4.06.86l4.14.68c1.4.1,2.81.17,4.23.33l2.13.2,2.15,0,4.37.08c3,0,5.88-.33,9-.17a55.13,55.13,0,0,1-8.39,3.88c-3,.74-6,1.85-9.13,2-1.56.19-3.14.31-4.72.41l-4.76-.27a26.14,26.14,0,0,1-4.73-.73,28.79,28.79,0,0,1-4.64-1.21,42.76,42.76,0,0,1-16.37-9.54A37.31,37.31,0,0,1,90.08,177.84Z"/><path class="cls-3" d="M89.36,199.26A97.1,97.1,0,0,0,103,208.51a58.27,58.27,0,0,0,14.5,5.62,56,56,0,0,0,15.39,1.51,22.15,22.15,0,0,0,4-.22l4-.38c2.74-.28,5.41-1,8.37-1.15a48.1,48.1,0,0,1-7.35,4.61c-2.69,1-5.39,2.36-8.33,2.79a36.82,36.82,0,0,1-17.82-.25,39.39,39.39,0,0,1-15.86-8A36.29,36.29,0,0,1,89.36,199.26Z"/><path class="cls-4" d="M92.43,219c6.39,6.19,13.44,10.84,21.34,12.57a27,27,0,0,0,3,.55,14,14,0,0,0,3,.31l3.06.19c1-.07,2-.15,3.09-.16a15.64,15.64,0,0,0,3.13-.28l3.19-.36c2.13-.33,4.24-.85,6.53-1.07a46.16,46.16,0,0,1-5.76,3.56c-2.11.78-4.19,1.87-6.48,2.23a29.46,29.46,0,0,1-13.94,0,28.65,28.65,0,0,1-12.38-6.44A26.5,26.5,0,0,1,92.43,219Z"/><path class="cls-5" d="M91.88,238.1c5.65,5.55,12,9,18.9,10.09a47.42,47.42,0,0,0,10.65,0c1.82-.18,3.64-.61,5.54-.83,1.86-.39,3.73-.84,5.76-1.07a45.16,45.16,0,0,1-4.85,3.52,41.83,41.83,0,0,1-5.56,2.41A27.5,27.5,0,0,1,110,253.28C101.6,251.92,94.1,245.83,91.88,238.1Z"/><path class="cls-6" d="M103.12,38.06a165.7,165.7,0,0,0,31.27,14.47,117.7,117.7,0,0,0,16.47,4.39,92.24,92.24,0,0,0,16.76,1.77c1.41,0,2.8,0,4.2,0s3.05-.09,4.6,0A23.12,23.12,0,0,1,185.93,61a14.58,14.58,0,0,1,4.23,3.27,14.41,14.41,0,0,1,2.7,4.66,21.32,21.32,0,0,1,.76,9.82,52.36,52.36,0,0,1-6,17,81,81,0,0,1-4.55,7.56,80.3,80.3,0,0,1-5.24,7c2.24-5.4,4.51-10.72,6.42-16.09s3.55-10.81,4-16.11a17.65,17.65,0,0,0-.77-7.33,8.72,8.72,0,0,0-4.25-4.81,18.59,18.59,0,0,0-7.2-1.81c-1.35-.11-2.63-.09-4.08-.08s-3,0-4.5-.05c-12-.41-23.59-3.59-34.42-8.09A125.69,125.69,0,0,1,117.4,48.1q-3.77-2.24-7.35-4.74A86.93,86.93,0,0,1,103.12,38.06Z"/><path class="cls-7" d="M330.31,25h0a27,27,0,0,1-7.81-3.36,24.7,24.7,0,0,1-3.39-2.56,28.94,28.94,0,0,1-3-3.08h0A1.31,1.31,0,0,0,314,17.53a21.16,21.16,0,0,0,3,3.72,23.3,23.3,0,0,0,2.54,2.11,315.73,315.73,0,0,1-27.35,30.46c-5.29,5-10.61,10-16.3,14.48-2.77,2.35-5.72,4.46-8.56,6.71L263,78.2l-2.2,1.59-2.25,1.51c-5.95,4.13-12.21,7.78-18.49,11.34s-12.81,6.68-19.4,9.6-13.36,5.47-20.19,7.79c-3.41,1.18-6.88,2.19-10.33,3.25s-7,1.94-10.47,2.77c-7,1.69-14.1,3.16-21.24,4.31s-14.32,2-21.54,2.64-14.46,1.06-21.71,1.19-14.53,0-21.8-.29-14.53-.85-21.78-1.59-14.49-1.66-21.7-2.82-14.41-2.46-21.57-4q-5.37-1.14-10.71-2.47c-3.24-.79-6.48-1.66-9.67-2.59A24.26,24.26,0,0,0,8.77,107a21.45,21.45,0,0,0,.24-4.8,1.31,1.31,0,0,0-2.62,0h0A27.38,27.38,0,0,1,4.6,110.5a25,25,0,0,1-1.86,3.82,29.85,29.85,0,0,1-2.45,3.51h0a1.3,1.3,0,0,0,.07,1.72,1.32,1.32,0,0,0,1.86,0,21.41,21.41,0,0,0,3.07-3.7,22.75,22.75,0,0,0,2-3.75,210.36,210.36,0,0,0,20,7.2c7.08,2.18,14.26,4.08,21.49,5.75s14.55,3,21.89,4.2,14.75,2,22.18,2.61c29.67,2.43,60,.72,89.08-6.55A227.4,227.4,0,0,0,263,87.62L265.25,86l2.21-1.73,4.41-3.47c2.85-2.42,5.75-4.78,8.47-7.34,5.56-5,10.78-10.33,15.83-15.79a248,248,0,0,0,25.11-33.11,23.38,23.38,0,0,0,3.87,1.87,20.79,20.79,0,0,0,4.66,1.16,1.3,1.3,0,0,0,1.43-1A1.32,1.32,0,0,0,330.31,25Z"/><path class="cls-8" d="M87.56,134.56c17.38,19.63,41.3,33.09,66.28,36a119.25,119.25,0,0,1-34.07-18.77,133.24,133.24,0,0,1-14.08-12.95c-1-1-1.89-2.09-2.8-3.15-3.43-.17-6.86-.38-10.3-.66Z"/><path class="cls-9" d="M84.78,107.5c-2.57-5.69-4.84-11.74-6.85-17.71-3.92-12-6.5-24.4-6.69-36.46a60.45,60.45,0,0,1,2.07-17.14c1.42-5.26,4.14-9.64,7.09-11.65s6.3-2.19,11.09-.52c5.69,2.16,11.56,4.76,17.45,7.51,11.81,5.46,23.91,11.26,36.81,15.61a91.12,91.12,0,0,0,20.12,4.54,38.46,38.46,0,0,0,10.49-.4,20,20,0,0,0,9.36-4.21c-6.42,2.19-12.75.77-18.66-1.23a114.35,114.35,0,0,1-17.27-8.13c-11.27-6.24-22.22-13.38-33.87-20A178,178,0,0,0,97.56,8.45a31.59,31.59,0,0,0-13-2.59,25.81,25.81,0,0,0-13.74,4.42,31.1,31.1,0,0,0-9.14,9.94A44.81,44.81,0,0,0,57,31.46a72.64,72.64,0,0,0-2.33,22.28c.61,14.53,4.2,28.3,9.29,41.2a145.24,145.24,0,0,0,12.48,24.7c5.36.49,10.49.85,15.52,1.08A119.77,119.77,0,0,1,84.78,107.5Z"/><path class="cls-10" d="M202.64,106c3.86-18.09,5.86-35.95.54-47.25,0,0,3.24,22.92-10.22,50.43,2.16-.66,4.34-1.33,6.45-2.06C200.51,106.72,201.58,106.34,202.64,106Z"/><path class="cls-11" d="M268.69,70.06c1.74-1.34,3.55-2.72,5.23-4.14,3.38-2.69,6.6-5.51,9.77-8.41q.33-2.86.44-5.61C285.73,5,256.88-9.8,231.23,6.22S182,33.07,149.89,25.86c0,0,22.84,16.43,46.08,11.62S232.84,9,256.48,20.25c14.84,7,12.35,31.53,5.14,55.08l3.87-2.8C266.55,71.69,267.62,70.88,268.69,70.06Z"/><path class="cls-12" d="M273.8,83.21l-4.41,3.47-2.22,1.73-2.34,1.72c-3.76,2.8-7.65,5.46-11.63,8-2.29,5.32-4.6,10.17-6.74,14.25-20.89,39.88-43.62,62.75-54.43,56.34-5.29-3.13.56-22.43,6.31-44.79q-7.74,2.48-15.66,4.44l-.09,0c-12.68,25.74-20.83,58.2-10.26,85.77,10.38,27.07,35.6,38.09,54.5,43.67-6.52-16.6-19.64-42.47-9.62-63.71,8.24-17.46,47.08-70.68,61.52-115.11-1,.88-2.06,1.76-3.09,2.61Z"/></g></g></svg>