<svg xmlns="http://www.w3.org/2000/svg" version="1.1" xmlns:xlink="http://www.w3.org/1999/xlink" xmlns:svgjs="http://svgjs.com/svgjs" width="512" height="512" x="0" y="0" viewBox="0 0 480.036 480.036" style="enable-background:new 0 0 512 512" xml:space="preserve" class=""><g><circle cx="208.036" cy="224.024" r="200" fill="#ff6d7a" data-original="#ff6d7a"></circle><path fill="#ff8c95" d="M38.036 244.024c0 17.268 2.236 34.053 6.432 50.081 3.454 13.196-15.401 19.742-20.728 7.185a197.428 197.428 0 0 1-15.704-77.265c0-110.242 91.108-200.773 201.409-199.995 13.592.096 14.917 19.95 1.463 21.881-93.326 13.396-172.872 93.125-172.872 198.113z" data-original="#ff8c95"></path><circle cx="208.036" cy="224.024" r="150" fill="#cbe3fa" data-original="#cbe3fa" class=""></circle><path fill="#eef7ff" d="M91.374 275.359c2.906 13.453-16.099 19.441-21.489 6.777-42.121-98.959 32.553-208.895 139.257-208.108 13.712.101 15.386 19.893 1.913 22.45-80.492 15.275-138.031 93.936-119.681 178.881z" data-original="#eef7ff" class=""></path><circle cx="379.036" cy="363.024" r="93" fill="#befa91" data-original="#befa91"></circle><path fill="#daffbf" d="M313.898 397.631c2.286 11.255-13.287 16.701-18.357 6.395-6.367-12.94-9.815-27.577-9.482-43.049 1.068-49.723 41.771-90.327 91.801-90.946 11.531-.143 13.8 16.187 2.686 19.266-46.904 12.997-76.547 59.585-66.648 108.334z" data-original="#daffbf"></path><path d="M171.036 253.024c0 23.71 19.29 43 43 43s43-19.29 43-43c0-14.889-7.609-28.031-19.14-35.752 8.029-6.792 13.14-16.932 13.14-28.248 0-20.402-16.598-37-37-37s-37 16.598-37 37c0 11.316 5.111 21.455 13.14 28.248-11.53 7.72-19.14 20.863-19.14 35.752zm22-64c0-11.58 9.421-21 21-21s21 9.42 21 21-9.421 21-21 21-21-9.421-21-21zm21 37c14.888 0 27 12.112 27 27s-12.112 27-27 27-27-12.112-27-27 12.113-27 27-27zM133.294 296.024a8 8 0 0 0 8-8v-121c0-5.508-5.446-9.362-10.627-7.556l-17.258 6a8 8 0 1 0 5.254 15.112l6.631-2.305v109.749a8 8 0 0 0 8 8zM301.036 195.024a8 8 0 0 0-8 8v7h-7a8 8 0 0 0 0 16h7v7a8 8 0 0 0 16 0v-7h7a8 8 0 0 0 0-16h-7v-7a8 8 0 0 0-8-8z" fill="#000000" data-original="#000000" class=""></path><path d="M360.973 263.644c26.279-98.907-50.329-197.62-152.937-197.62-86.796 0-158 71.222-158 158 0 102.065 96.766 177.787 195.422 153.465a8.001 8.001 0 0 0-3.83-15.536c-88.866 21.913-175.592-46.499-175.592-137.93 0-78.299 63.701-142 142-142 94.672 0 165.959 94.152 134.672 186.762-52.802 20.425-77.851 79.73-57.785 130.961-24.322 10.793-50.145 16.277-76.886 16.277-105.869 0-192-86.131-192-192s86.131-192 192-192c107.319 0 198.411 91.378 191.654 203.497a8 8 0 0 0 7.504 8.467c4.416.271 8.201-3.094 8.467-7.504 5.325-88.324-46.263-168.149-123.957-202.703C216.443.309 124.693 13.766 61.236 77.223c-81.63 81.631-81.665 211.936 0 293.602 63.933 63.933 158.959 78.751 237.676 40.062 4.002-1.967 5.57-6.776 3.663-10.684-27.305-56.05 13.589-122.179 76.462-122.179 46.869 0 85 38.131 85 85s-38.131 85-85 85c-15.341 0-30.373-4.129-43.471-11.94a8.001 8.001 0 0 0-8.196 13.742c15.575 9.288 33.44 14.198 51.666 14.198 55.691 0 101-45.309 101-101 0-62.638-56.878-110.653-119.063-99.38z" fill="#000000" data-original="#000000" class=""></path><path d="m374.177 396.197 42.517-42.516a8 8 0 1 0-11.314-11.313l-36.723 36.723-14.83-15.554a8.001 8.001 0 0 0-11.581 11.041l20.483 21.484c3.083 3.23 8.249 3.331 11.448.135z" fill="#000000" data-original="#000000" class=""></path></g></svg>