<svg xmlns="http://www.w3.org/2000/svg" version="1.1" xmlns:xlink="http://www.w3.org/1999/xlink" xmlns:svgjs="http://svgjs.com/svgjs" width="512" height="512" x="0" y="0" viewBox="0 0 511 511.999" style="enable-background:new 0 0 512 512" xml:space="preserve" class=""><g><path fill="#ffbd86" d="M387.18 399.7v-36.614h-74.903v36.613a17.808 17.808 0 0 1-10.828 16.383l-67.531 28.777a37.506 37.506 0 0 0-22.805 34.504V504.5h277.23v-25.137a37.5 37.5 0 0 0-22.804-34.504l-67.531-28.777a17.808 17.808 0 0 1-10.828-16.383zm0 0" data-original="#ffbd86"></path><path fill="#f6a96c" d="M488.344 479.363V504.5h-19.48v-16.863c0-15.032-8.973-24.782-22.801-30.676l-38.481-16.395c-15.172-6.464-39.879-12.398-39.879-32.593v-44.887h19.48v36.613c0 7.14 4.262 13.586 10.829 16.395l67.523 28.761a37.511 37.511 0 0 1 22.809 34.508zm0 0" data-original="#f6a96c"></path><path fill="#ffbd86" d="M435.074 138.3c-38.71-36.62-85.332-35-85.332-35s-46.625-1.62-85.336 35c-28.87 27.313-42.926 67.196-39.449 107.29 3.89 44.863 22.242 113.703 95.09 142.758a80.062 80.062 0 0 0 59.387 0c72.847-29.051 91.199-97.895 95.09-142.758 3.48-40.094-10.579-79.977-39.45-107.29zm0 0" data-original="#ffbd86"></path><path fill="#f6a96c" d="M474.523 245.598c-3.89 44.863-22.238 113.699-95.086 142.754a80.014 80.014 0 0 1-52.855 2.277 79.902 79.902 0 0 0 33.367-5.613c72.848-29.055 91.203-97.895 95.094-142.758 3.48-40.102-10.578-79.985-39.45-107.297-19.421-18.375-40.847-27.121-57.359-31.277 15.211 1.37 48.204 7.527 76.848 34.629 28.863 27.308 42.922 67.19 39.441 107.285zm0 0" data-original="#f6a96c"></path><path fill="#8bebdb" d="M215.223 142.965c-8.235 11.09-10.235 38.902-10.664 47.234-.649 12.625.168 25.473 2.793 37.828 2.488 11.727 7.625 21.196 14.054 30.102 2.723 3.773 8.422 2.652 9.653-1.887 5.968-22.05 12.914-42.125 28.27-60.515 13.206-15.82 30.163-27.735 48.91-35.434 13.195-5.418 36.39-14.672 40.238-31.324 7.246-31.375-34.758-46.957-57.141-44.313-14.89 1.758-29.586 6.309-42.04 14.828-13.066 8.934-15.171 15.36-14.983 33.235.05 4.914-3.731 7.73-8.383 6.148-4.407-1.496-7.914.34-10.707 4.098zm0 0" data-original="#8bebdb" class=""></path><path fill="#5ee2c5" d="M348.477 128.969c-3.848 16.652-27.047 25.906-40.243 31.32a125.403 125.403 0 0 0-7.93 3.57c-15.238-11.25-28.042-25.797-37.183-42.402-2.457-4.469-4.672-9.133-5.816-14.105-.883-3.86-1.114-7.88-1.535-11.84 10.93-6.004 23.18-9.395 35.562-10.856 22.387-2.648 64.395 12.934 57.145 44.313zm0 0" data-original="#5ee2c5"></path><path fill="#8bebdb" d="M463.41 91.316a9.75 9.75 0 0 0 1.078 7.551c13.707 22.758 27.383 41.09 30.262 80.238 0 0 4.078 63.211-15.293 80.543 0 0-8.469 8.106-10.281 0 0 0-6.031-61.171-101.871-96.855 0 0-98.895-36.703-88.7-94.82 0 0 3.797-42.102 52.297-56.586 29.262-8.739 60.875-2.645 85.578 15.312 15.165 11.02 32.668 27.453 47.348 51.184a9.77 9.77 0 0 1 1.133 7.652zm0 0" data-original="#8bebdb" class=""></path><path fill="#5ee2c5" d="M479.453 259.656s-6.344 6.063-9.21 2.446c10.433-24.594 7.577-68.918 7.577-68.918-2.879-39.141-16.554-57.477-30.257-80.235a9.734 9.734 0 0 1-1.075-7.55l1.543-5.786a9.761 9.761 0 0 0-1.133-7.648c-14.675-23.73-32.183-40.164-47.34-51.184-24.714-17.957-56.328-24.05-85.581-15.308-7.52 2.246-13.957 5.152-19.48 8.46 7.769-8.91 19.312-17.445 36.405-22.546 29.266-8.742 60.875-2.649 85.578 15.308 15.16 11.02 32.665 27.461 47.344 51.184a9.79 9.79 0 0 1 1.133 7.66l-1.543 5.785a9.761 9.761 0 0 0 1.07 7.547c13.707 22.75 27.383 41.086 30.27 80.238 0 0 4.07 63.211-15.3 80.547zm0 0" data-original="#5ee2c5"></path><path fill="#83bfff" d="M34.223 473.383 8.926 432.94a6.079 6.079 0 0 1 1.933-8.378l12.715-7.954a6.079 6.079 0 0 1 8.38 1.93L57.25 458.98a6.082 6.082 0 0 1-1.93 8.38l-12.718 7.952a6.079 6.079 0 0 1-8.38-1.93zm0 0" data-original="#83bfff"></path><path fill="#0396fd" d="m34.223 473.383-5.133-8.203 23.027-14.403 5.133 8.203a6.083 6.083 0 0 1-1.93 8.38l-12.718 7.952a6.079 6.079 0 0 1-8.38-1.93zm0 0" data-original="#0396fd"></path><path fill="#ffe7bf" d="m65.488 409.188 14.848 23.738-28.3 17.703-14.852-23.738zm0 0" data-original="#ffe7bf"></path><path fill="#ffe1a8" d="m72.91 421.059 7.426 11.867-28.305 17.703-7.422-11.867zm0 0" data-original="#ffe1a8"></path><path fill="#aed3ff" d="m90.883 449.797-35.957-57.48 122.23-76.454a7.36 7.36 0 0 1 10.145 2.34l28.144 45a7.362 7.362 0 0 1-2.336 10.145zm0 0" data-original="#aed3ff"></path><path fill="#83bfff" d="m90.883 449.797-8.512-13.61 128.469-80.355 4.605 7.371a7.362 7.362 0 0 1-2.336 10.145zm0 0" data-original="#83bfff"></path><path fill="#ffc143" d="m150.188 412.703-35.958-57.48 62.926-39.36a7.36 7.36 0 0 1 10.145 2.34l28.144 45a7.362 7.362 0 0 1-2.336 10.145zm0 0" data-original="#ffc143"></path><path fill="#ffb509" d="m150.188 412.703-8.465-13.527 69.164-43.262 4.558 7.29a7.362 7.362 0 0 1-2.336 10.144zm0 0" data-original="#ffb509"></path><path fill="#83bfff" d="m212.742 358.879-22.738-36.356 15.527-9.714a7.78 7.78 0 0 1 10.723 2.472l14.488 23.16a7.786 7.786 0 0 1-2.472 10.727zm0 0" data-original="#83bfff"></path><path fill="#0396fd" d="m212.742 358.879-6.64-10.617 22.125-13.84 2.515 4.02a7.786 7.786 0 0 1-2.472 10.726zm0 0" data-original="#0396fd"></path><path d="M337.754 264.84a7.5 7.5 0 1 0-15 0c0 4.285-3.488 7.773-7.774 7.773-4.285 0-7.773-3.488-7.773-7.773a7.5 7.5 0 1 0-15 0c0 12.558 10.215 22.773 22.773 22.773 12.56 0 22.774-10.218 22.774-22.773zM407.277 264.84a7.5 7.5 0 0 0-7.5-7.5 7.497 7.497 0 0 0-7.5 7.5c0 4.285-3.488 7.773-7.773 7.773-4.29 0-7.774-3.488-7.774-7.773a7.5 7.5 0 0 0-7.5-7.5 7.497 7.497 0 0 0-7.5 7.5c0 12.558 10.215 22.773 22.774 22.773 12.555 0 22.773-10.218 22.773-22.773zm0 0" fill="#000000" data-original="#000000" class=""></path><path d="m468.477 437.957-13.489-5.746c-3.812-1.629-8.215.148-9.84 3.957a7.496 7.496 0 0 0 3.961 9.84l13.489 5.75a29.968 29.968 0 0 1 18.246 27.605V497h-262.23v-17.637a29.968 29.968 0 0 1 18.245-27.605l67.528-28.774a25.28 25.28 0 0 0 15.39-23.285v-3.453c9.715 3.54 19.836 5.332 29.965 5.332 10.117 0 20.23-1.789 29.938-5.324v3.445c0 10.16 6.039 19.301 15.39 23.285l21.918 9.34c3.809 1.625 8.215-.152 9.84-3.96a7.498 7.498 0 0 0-3.96-9.84l-21.919-9.34a10.296 10.296 0 0 1-6.27-9.485v-9.969c27.962-13.964 49.712-35.203 64.77-63.289 9.133-17.039 15.653-36.254 19.488-57.332 2.618-1.3 4.653-3.047 5.61-3.949 21.371-19.3 18.129-79.703 17.683-86.605-2.718-36.965-14.59-56.285-27.16-76.743a798.313 798.313 0 0 1-4.16-6.816 2.26 2.26 0 0 1-.254-1.742l1.547-5.781a17.31 17.31 0 0 0-2-13.536c-13.023-21.054-29.617-38.992-49.312-53.304-26.836-19.504-61.278-25.645-92.133-16.43-50.93 15.207-57.067 58.05-57.586 62.742a55.93 55.93 0 0 0-.606 14.36c-9.406 2.828-17.949 6.824-25.504 11.988-13.875 9.488-17.628 17.566-18.183 32.93 0 .05-.008.101-.008.156 0 .047-.004.148-.004.277a137.515 137.515 0 0 0-.062 4.664c-6.63-1.617-12.973.942-17.602 7.176-3.808 5.129-10.45 18.617-12.133 51.32-.71 13.832.282 27.211 2.95 39.774 2.402 11.328 7.27 21.793 15.308 32.933a13.006 13.006 0 0 0 4.809 4.07c1.945 11.376 4.656 22.294 8.152 32.61 1.328 3.922 5.59 6.027 9.508 4.695a7.5 7.5 0 0 0 4.7-9.511c-3.243-9.563-5.755-19.715-7.563-30.305a13.259 13.259 0 0 0 3.367-5.879c6.328-23.371 13.015-41.168 26.789-57.668 11.976-14.348 27.883-25.863 46-33.3l.676-.278c6.605-2.707 15.199-6.242 23.097-11.129 15.649 8.64 28.367 13.453 29.828 13.996 25.98 9.672 61.418 27.613 82.696 58.137 12.62 18.11 14.316 32.328 14.328 32.43.031.3.078.601.144.898.5 2.234 1.336 3.93 2.305 5.223-3.559 19.5-9.55 37.215-17.934 52.847-15.511 28.93-38.918 49.801-69.57 62.024-17.355 6.926-36.473 6.922-53.832 0-28.617-11.41-50.957-30.39-66.402-56.41a7.5 7.5 0 1 0-12.899 7.656c14.852 25.02 35.422 44.16 61.254 57.074v9.996c0 4.14-2.46 7.863-6.27 9.488l-67.53 28.774a44.939 44.939 0 0 0-27.364 41.402V504.5c0 4.14 3.36 7.5 7.5 7.5h277.23c4.141 0 7.5-3.36 7.5-7.5v-25.137a44.952 44.952 0 0 0-27.37-41.406zM306.07 153.074l-.68.281c-20.367 8.36-38.285 21.352-51.82 37.567-16.007 19.176-23.332 40.336-28.601 59.18-5.336-8.067-8.555-15.497-10.281-23.63-2.395-11.285-3.282-23.359-2.637-35.886 1.031-20.082 4.64-37.02 9.191-43.149.946-1.273 1.43-1.57 1.82-1.57.157 0 .301.051.454.102 1.27.433 2.543.68 3.804.777.48 9.11 1.438 19.535 3.352 27.41a7.502 7.502 0 0 0 7.281 5.73c.586 0 1.18-.066 1.774-.214a7.497 7.497 0 0 0 5.52-9.055c-3.724-15.336-3.384-43.75-3.38-44.039 0-.043-.004-.09-.004-.133.387-11.222 2.77-14.691 11.664-20.773 6.008-4.106 12.82-7.34 20.352-9.707 7.766 21.32 27.2 38.508 46.129 50.926-5.04 2.535-10.063 4.597-13.938 6.183zm63.844 2.688c-.238-.09-24.078-9.024-46.476-24.727-28.532-20-41.13-40.781-37.446-61.765.031-.184.059-.403.078-.586.13-1.305 3.164-27.887 31.09-43.465 10.067 15.133 27.367 23.597 44.418 30.96 18.113 7.817 33.7 15.403 40.965 29.071a7.492 7.492 0 0 0 10.14 3.105 7.503 7.503 0 0 0 3.106-10.144c-10.328-19.426-32.254-28.895-48.266-35.805-14.5-6.258-28.132-12.832-36.242-23.261.59-.192 1.16-.391 1.766-.57 8.055-2.407 16.398-3.587 24.762-3.587 19.062 0 38.222 6.117 54.261 17.778 18.114 13.164 33.38 29.671 45.375 49.062.328.527.426 1.172.266 1.77l-1.547 5.78a17.356 17.356 0 0 0 1.898 13.36 892.36 892.36 0 0 0 4.227 6.926c12.09 19.676 22.531 36.668 24.977 69.922 1.43 22.336-.57 61.164-11.723 73.394-4.113-17.054-22.926-66.425-105.629-97.218zm0 0" fill="#000000" data-original="#000000" class=""></path><path d="M223.688 370.441a14.762 14.762 0 0 0-.786-9.07l9.348-5.844c7.145-4.468 9.32-13.918 4.852-21.062l-3.457-5.528 25.726-17.925a7.501 7.501 0 0 0 1.867-10.442c-2.367-3.398-7.043-4.23-10.441-1.867l-25.117 17.5-3.063-4.898a15.194 15.194 0 0 0-9.527-6.79 15.18 15.18 0 0 0-11.535 1.938l-9.348 5.844a14.757 14.757 0 0 0-7.812-4.676 14.758 14.758 0 0 0-11.215 1.883l-31.461 19.68s-.004 0-.004.003h-.004l-31.453 19.676h-.004L57.309 381.98l-5.489-8.777a7.497 7.497 0 0 0-10.336-2.379 7.497 7.497 0 0 0-2.379 10.336l9.465 15.133 6.575 10.512-15.586 9.75-1.247-1.993c-3.968-6.351-12.363-8.285-18.714-4.312l-12.715 7.953a13.483 13.483 0 0 0-6.031 8.465 13.487 13.487 0 0 0 1.718 10.25l25.297 40.441a13.483 13.483 0 0 0 8.465 6.032 13.5 13.5 0 0 0 10.25-1.719l12.719-7.953c6.347-3.973 8.281-12.367 4.308-18.719l-1.246-1.988 15.586-9.75 16.043 25.648a7.492 7.492 0 0 0 10.336 2.38 7.497 7.497 0 0 0 2.379-10.337l-5.488-8.773 52.945-33.118 62.922-39.359a14.758 14.758 0 0 0 6.601-9.262zm-183.86 97.762L16.04 430.168l10.309-6.45 4.472 7.15 14.848 23.737 4.469 7.149zm14.582-27.91-6.894-11.023 15.582-9.747 6.894 11.02zm38.852-.832L71.84 405.207l-6.574-10.512 18.75-11.726 8.168 13.054a7.499 7.499 0 0 0 10.336 2.38 7.501 7.501 0 0 0 2.382-10.337l-8.168-13.054 15.118-9.453 28 44.761zm59.304-37.094-27.996-44.765 18.739-11.723 8.168 13.059a7.492 7.492 0 0 0 10.335 2.378 7.497 7.497 0 0 0 2.38-10.336l-8.165-13.054 24.985-15.63 3.613 5.77 21.758 34.79c0 .003.004.003.004.007l2.625 4.2zm47.774-77.46 9.168-5.739a.266.266 0 0 1 .21-.035.254.254 0 0 1 .177.129l14.488 23.16c.02.031.062.098.035.21a.242.242 0 0 1-.125.177l-9.168 5.734zm0 0" fill="#000000" data-original="#000000" class=""></path></g></svg>