<svg xmlns="http://www.w3.org/2000/svg" version="1.1" xmlns:xlink="http://www.w3.org/1999/xlink" xmlns:svgjs="http://svgjs.com/svgjs" width="512" height="512" x="0" y="0" viewBox="0 0 512.001 512" style="enable-background:new 0 0 512 512" xml:space="preserve" class=""><g><path fill="#fedfc5" d="M495.68 496.992H16.414c-4.238 0-7.043-4.457-5.168-8.262 10.145-20.566 28.215-36.859 50.98-44.414l83.762-27.789 28.18-9.355a34.572 34.572 0 0 0 11.582-6.54 34.65 34.65 0 0 0 12.121-26.327v-40.563H314.22v40.563a34.636 34.636 0 0 0 12.125 26.328 34.535 34.535 0 0 0 11.582 6.539l28.176 9.355 83.765 27.79c22.762 7.554 40.832 23.847 50.977 44.413 1.879 3.805-.922 8.262-5.164 8.262zm0 0" data-original="#fedfc5" class=""></path><path fill="#fecbaa" d="m314.25 375.734-12.055 10.934a47.328 47.328 0 0 1-31.808 12.273h-28.68a47.342 47.342 0 0 1-31.809-12.273l-12.054-10.934c.02-.472.031-.945.031-1.43v-40.562h116.344v40.563c0 .484.011.957.031 1.43zm0 0" data-original="#fecbaa"></path><path fill="#89b4c9" d="M385.133 251.035a110.851 110.851 0 0 1-35 64.719l-47.934 43.473a47.35 47.35 0 0 1-31.808 12.277h-28.688a47.35 47.35 0 0 1-31.808-12.277l-47.934-43.473a110.842 110.842 0 0 1-35-64.719l-7.602-95.406C112.996 75.797 176.02 7.5 256.047 7.5s143.05 68.297 136.687 148.129zm0 0" data-original="#89b4c9" class=""></path><path fill="#71a2b5" d="M256.047 7.5c-6.453 0-12.793.453-19 1.309 70.738 9.789 123.535 73.425 117.687 146.82l-7.601 95.406a110.851 110.851 0 0 1-35 64.719l-47.934 43.473a47.367 47.367 0 0 1-27.152 12.043c1.543.152 3.094.234 4.656.234h28.688a47.35 47.35 0 0 0 31.808-12.277l47.934-43.473a110.863 110.863 0 0 0 35-64.719l7.601-95.406C399.098 75.797 336.074 7.5 256.047 7.5zm0 0" data-original="#71a2b5"></path><path fill="#fd82ac" d="m392.738 155.629-2.199 27.562c-5.355-26.867-18.605-51.02-37.309-69.836-24.753-24.898-59.039-40.414-97.183-40.414-66.985 0-122.043 47.848-134.492 110.25l-2.2-27.562C113 75.793 176.02 7.5 256.047 7.5c38.144 0 72.43 15.516 97.183 40.406 27.16 27.324 42.836 65.95 39.508 107.723zm0 0" data-original="#fd82ac"></path><path fill="#fd6096" d="M256.184 7.5c-6.454 0-12.797.453-19.004 1.309C293.113 16.55 337.82 57.957 351.2 111.23c.726.7 1.452 1.41 2.163 2.125 18.703 18.817 31.953 42.97 37.309 69.836v-.004l2.2-27.558C399.23 75.797 336.21 7.5 256.183 7.5zm0 0" data-original="#fd6096"></path><g fill="#fedfc5"><path d="M242.129 183.191c0-16.726-19.106-30.285-42.676-30.285-23.566 0-42.672 13.559-42.672 30.285 0 16.723 19.106 30.282 42.672 30.282 23.57 0 42.676-13.559 42.676-30.282zM305.469 285.23c0-16.726-22.125-30.285-49.422-30.285-27.293 0-49.422 13.559-49.422 30.285 0 16.727 22.129 30.286 49.422 30.286 27.297 0 49.422-13.559 49.422-30.286zM355.313 183.191c0-16.726-18.829-30.285-42.055-30.285-23.23 0-42.059 13.559-42.059 30.285 0 16.723 18.828 30.282 42.059 30.282 23.226 0 42.054-13.559 42.054-30.282zm0 0" fill="#fedfc5" data-original="#fedfc5" class=""></path></g><path d="M511.527 494.379c-10.113-27.207-31.71-48.047-59.246-57.184l-59.8-19.828a7.495 7.495 0 0 0-9.477 4.758 7.498 7.498 0 0 0 4.758 9.48l59.797 19.829c23.195 7.695 41.386 25.253 49.91 48.171a7.503 7.503 0 0 0 7.031 4.887 7.5 7.5 0 0 0 2.613-.472 7.493 7.493 0 0 0 4.414-9.641zM361.965 407.25l-21.68-7.195a27.109 27.109 0 0 1-9.074-5.114 27.156 27.156 0 0 1-9.504-20.636v-22.66l33.465-30.333c19.898-18.039 33.176-42.578 37.39-69.101.032-.191.055-.387.07-.582l5.997-75.203 1.613-20.2c.024-.288.031-.57.051-.859 2.937-39.847-10.879-79.469-38-108.84C334.988 16.961 296.246 0 256 0s-78.988 16.96-106.297 46.527c-27.086 29.336-40.902 68.907-38.008 108.707.024.332.035.66.063.993l1.62 20.316 5.99 75.086c.015.191.038.387.066.578 4.218 26.523 17.496 51.066 37.394 69.102l33.461 30.332v22.664a27.144 27.144 0 0 1-9.488 20.62 27.073 27.073 0 0 1-9.094 5.13l-111.988 37.14c-27.535 9.137-49.13 29.977-59.246 57.184A7.499 7.499 0 0 0 7.5 504.496a7.498 7.498 0 0 0 7.031-4.89c8.524-22.918 26.715-40.477 49.91-48.172l111.989-37.141a41.978 41.978 0 0 0 14.12-7.965 42.131 42.131 0 0 0 14.743-32.023v-9.082c10.047 8.886 22.926 13.785 36.355 13.785h28.704a54.78 54.78 0 0 0 36.359-13.785v9.082a42.132 42.132 0 0 0 14.754 32.035 41.949 41.949 0 0 0 14.101 7.953l21.676 7.191a7.5 7.5 0 0 0 9.48-4.758 7.494 7.494 0 0 0-4.757-9.476zm-91.613-43.246h-28.704a39.803 39.803 0 0 1-26.785-10.332l-47.96-43.477c-17.305-15.683-28.876-37.004-32.606-60.054L129 183.699c4.73-22.777 15.57-43.93 31.418-61.215 2.8-3.05 2.594-7.796-.461-10.597a7.502 7.502 0 0 0-10.598.46 145.291 145.291 0 0 0-23.05 33.579c-.387-33.172 11.648-64.563 34.418-89.219C185.563 29.812 219.398 15 256 15c36.605 0 70.441 14.813 95.277 41.707 22.235 24.078 34.235 54.582 34.422 86.89.004.712.004 1.423 0 2.133 0 .047-.004.102-.004.149-6.886-13.863-16.015-26.621-27.14-37.809C331.21 80.578 294.793 65.441 256 65.441c-29.918 0-58.61 9.04-82.98 26.137-3.391 2.379-4.207 7.059-1.829 10.45s7.059 4.21 10.446 1.831C203.469 88.54 229.184 80.441 256 80.441c34.77 0 67.414 13.567 91.918 38.204 17.871 17.968 29.98 40.453 35.082 65.058l-5.297 66.438c-3.73 23.05-15.3 44.37-32.601 60.054l-47.961 43.477a39.813 39.813 0 0 1-26.79 10.332zm0 0" fill="#000000" data-original="#000000" class=""></path><path d="M233.906 210.723c10.102-7.168 15.668-16.946 15.668-27.536 0-10.585-5.562-20.363-15.668-27.53-9.32-6.61-21.582-10.255-34.527-10.255s-25.207 3.645-34.531 10.254c-10.102 7.168-15.664 16.946-15.664 27.531 0 10.59 5.562 20.368 15.664 27.536 9.32 6.609 21.586 10.25 34.53 10.25 12.946 0 25.208-3.641 34.528-10.25zm-69.726-27.536c0-12.347 16.12-22.785 35.195-22.785 19.078 0 35.2 10.438 35.2 22.786 0 12.351-16.122 22.789-35.2 22.789-19.074 0-35.195-10.438-35.195-22.79zM256 247.445c-31.934 0-56.95 16.598-56.95 37.785s25.016 37.786 56.95 37.786 56.95-16.598 56.95-37.786-25.016-37.785-56.95-37.785zm0 60.57c-19.84 0-41.95-9.359-41.95-22.785 0-13.43 22.11-22.785 41.95-22.785 19.844 0 41.95 9.356 41.95 22.785 0 13.426-22.106 22.786-41.95 22.786zM362.82 183.188c0-10.567-5.484-20.333-15.445-27.5-9.21-6.633-21.336-10.286-34.133-10.286-12.8 0-24.922 3.653-34.137 10.286-9.96 7.167-15.445 16.933-15.445 27.5 0 10.57 5.485 20.335 15.445 27.503 9.211 6.63 21.336 10.282 34.137 10.282 12.797 0 24.922-3.653 34.133-10.282 9.96-7.168 15.445-16.933 15.445-27.504zm-49.582 22.789c-18.742 0-34.578-10.438-34.578-22.79 0-12.347 15.836-22.785 34.578-22.785 18.746 0 34.582 10.438 34.582 22.786 0 12.351-15.836 22.789-34.582 22.789zm0 0" fill="#000000" data-original="#000000" class=""></path><path d="M276.73 278.102a83.587 83.587 0 0 1-21.48 2.59 83.064 83.064 0 0 1-19.707-2.59 7.499 7.499 0 1 0-3.719 14.531 98.039 98.039 0 0 0 23.266 3.058c.348.004.695.004 1.043.004a98.048 98.048 0 0 0 24.312-3.062 7.497 7.497 0 0 0 5.407-9.125c-1.024-4.012-5.11-6.43-9.122-5.406zM221.238 180.414a7.5 7.5 0 0 0-9.125-5.41 51.31 51.31 0 0 1-25.469 0 7.502 7.502 0 0 0-9.124 5.406 7.497 7.497 0 0 0 5.406 9.125 66.487 66.487 0 0 0 15.742 2.07c.234 0 .469.004.703.004 5.543 0 11.078-.695 16.457-2.074a7.5 7.5 0 0 0 5.41-9.12zM325.977 175.004a51.31 51.31 0 0 1-25.469 0 7.499 7.499 0 1 0-3.719 14.531 66.487 66.487 0 0 0 15.742 2.07c.235 0 .469.004.703.004 5.543 0 11.079-.699 16.457-2.074a7.497 7.497 0 0 0 5.407-9.125 7.497 7.497 0 0 0-9.121-5.406zM238.707 446.488c-6.805-4.875-14.121-7.847-21.734-8.836-7.446-.968-13.078.246-18.051 1.317-4.32.933-8.055 1.734-12.945 1.148-5.415-.656-10.872-2.926-16.227-6.746a7.5 7.5 0 1 0-8.715 12.207c7.426 5.3 15.211 8.473 23.14 9.43 7.395.89 12.981-.313 17.91-1.375 4.333-.934 8.075-1.738 12.954-1.106 5.137.668 10.16 2.739 14.934 6.157a7.452 7.452 0 0 0 4.359 1.402 7.5 7.5 0 0 0 4.375-13.598zM342.25 433.371c-5.355 3.82-10.813 6.09-16.223 6.746-4.894.586-8.629-.215-12.949-1.148-4.973-1.07-10.605-2.285-18.05-1.317-7.614.989-14.926 3.961-21.731 8.836a7.496 7.496 0 0 0-1.73 10.465 7.492 7.492 0 0 0 6.101 3.133 7.49 7.49 0 0 0 4.363-1.402c4.77-3.418 9.797-5.493 14.934-6.157 4.879-.632 8.62.172 12.953 1.106 4.93 1.062 10.516 2.27 17.906 1.375 7.934-.961 15.719-4.13 23.14-9.43a7.5 7.5 0 0 0 1.75-10.46 7.505 7.505 0 0 0-10.464-1.747zm0 0" fill="#000000" data-original="#000000" class=""></path></g></svg>