<svg xmlns="http://www.w3.org/2000/svg" version="1.1" xmlns:xlink="http://www.w3.org/1999/xlink" xmlns:svgjs="http://svgjs.com/svgjs" width="512" height="512" x="0" y="0" viewBox="0 0 128 128" style="enable-background:new 0 0 512 512" xml:space="preserve" class=""><g><path d="M124.437 96.925c-3.3-3.6-18.517-14.855-24.286-18.864-.41-.286-.8-.531-1.181-.769 6.052-6.126 13.177-16.154 13.177-29.467A40.492 40.492 0 0 0 99.03 17.588a45.185 45.185 0 0 0-33.137-11.53l-1.459-2.812a4.692 4.692 0 0 0-2.771-2.33 4.776 4.776 0 0 0-4.433.873 4.83 4.83 0 0 0-1.1 5.934L64.107 22.8a4.649 4.649 0 0 0 8.235-4.315l-1.792-3.451a35.854 35.854 0 0 1 22.4 9.187 31.152 31.152 0 0 1 10.2 23.6c0 13.384-9.619 22.8-14.588 26.776a604.48 604.48 0 0 1-4.3-.263V65.5H87.1a4.563 4.563 0 1 0 0-9.125H54.229a4.563 4.563 0 0 0 0 9.125h15.637v7.872c-7.153-.494-13.367-.936-13.51-.946a4.019 4.019 0 0 1-2.4-.946 282.54 282.54 0 0 1-3.148-2.745c-6.122-5.379-16.367-14.382-21.033-16.243C26.4 51.149 21.1 50.91 14.79 57.046a4.645 4.645 0 0 0 .208 7.4l30.267 22.986a16.456 16.456 0 0 0 8.753 3.322c2.687.207 6.342.468 10.32.744V116H39.884a10.632 10.632 0 0 0-9.919 6.715 2.759 2.759 0 0 0 2.562 3.785H91.64a2.76 2.76 0 0 0 2.562-3.785A10.634 10.634 0 0 0 84.291 116V92.84l3.114.206.489.032a8.948 8.948 0 0 1 4.9 1.855l23.51 18.158a4.649 4.649 0 0 0 7.095-1.714c.286-.489.593-.979.908-1.476 2.076-3.271 4.917-7.751.13-12.976zM69.695 21.354a1.647 1.647 0 0 1-2.935.045L58.785 6.331a1.833 1.833 0 0 1 .348-2.222 1.736 1.736 0 0 1 1.634-.331 1.71 1.71 0 0 1 1 .85l7.913 15.24a1.633 1.633 0 0 1 .015 1.486zm36.452 26.471A34.087 34.087 0 0 0 94.976 22.01a39.027 39.027 0 0 0-26-10.02l-1.555-3A42.052 42.052 0 0 1 97 19.8a37.527 37.527 0 0 1 12.144 28.026c0 12.8-7.187 22.381-12.984 28.035a15.7 15.7 0 0 0-3.435-.879c5.567-5.039 13.422-14.404 13.422-27.157zM54.229 62.5a1.563 1.563 0 0 1 0-3.125H87.1a1.563 1.563 0 1 1 0 3.125zm27.027 3v8.643c-2.628-.173-5.524-.368-8.39-.565V65.5zm10.02 58H32.891a7.644 7.644 0 0 1 6.993-4.5h44.4a7.646 7.646 0 0 1 6.992 4.5zM67.338 116V91.7c4.752.326 9.719.657 13.953.938V116zm53.382-5.98a1.462 1.462 0 0 0-.073.162 1.672 1.672 0 0 1-2.508.534l-23.51-18.158a11.954 11.954 0 0 0-6.538-2.474l-.488-.032c-8.182-.539-25.207-1.66-33.358-2.289a13.477 13.477 0 0 1-7.165-2.719L16.822 62.063a1.786 1.786 0 0 1-.605-2.108 1.885 1.885 0 0 1 .194-.3c.123-.124.245-.242.367-.363a1.678 1.678 0 0 1 .747-.3 1.546 1.546 0 0 1 .214-.013 1.671 1.671 0 0 1 1.026.352l30.373 23.456a8.89 8.89 0 0 0 4.874 1.841l34.725 2.3a14.026 14.026 0 0 1 7.636 2.872l23.82 18.255a1.673 1.673 0 0 1 .644 1.12 1.654 1.654 0 0 1-.117.845zm2.127-3.5a4.612 4.612 0 0 0-.825-.846L98.2 87.419a17.011 17.011 0 0 0-9.262-3.486l-34.727-2.3a5.886 5.886 0 0 1-3.236-1.221L20.6 56.956a4.776 4.776 0 0 0-.553-.347c3.008-1.96 5.894-2.413 8.613-1.33 4.185 1.668 14.579 10.8 20.163 15.71a281.42 281.42 0 0 0 3.188 2.779 6.993 6.993 0 0 0 4.172 1.652c.243.018 24.426 1.741 32.46 2.191 4.423.247 6.414.562 9.8 2.912 6.68 4.643 20.983 15.367 23.787 18.427 2.541 2.78 2.127 4.89.617 7.574zM14.093 53.564a4.647 4.647 0 0 0 1.778-.728 12.512 12.512 0 0 0 5.86-7.538 12.342 12.342 0 0 0-1.817-9.912c-4.835-7.613-11.838-8.432-16.639-5.863l-.011.008a4.906 4.906 0 0 0-.987.621 4.83 4.83 0 0 0-1.1 5.934l7.98 15.079a4.63 4.63 0 0 0 4.939 2.4zm3.288-16.571a9.307 9.307 0 0 1 1.449 7.542 8.946 8.946 0 0 1-1.253 2.736 4.881 4.881 0 0 0-.188-.419L9.48 31.61c-.067-.129-.157-.24-.235-.362 2.683.235 5.644 1.82 8.136 5.745zm-5.574 12.77L3.832 34.694a1.832 1.832 0 0 1 .348-2.221 1.768 1.768 0 0 1 1.12-.409 1.727 1.727 0 0 1 .511.078 1.707 1.707 0 0 1 1 .85l7.909 15.242a1.648 1.648 0 0 1-2.92 1.53z" fill="#157fb4" data-original="#000000" class=""></path></g></svg>