<svg xmlns="http://www.w3.org/2000/svg" version="1.1" xmlns:xlink="http://www.w3.org/1999/xlink" xmlns:svgjs="http://svgjs.com/svgjs" width="512" height="512" x="0" y="0" viewBox="0 0 173.397 173.397" style="enable-background:new 0 0 512 512" xml:space="preserve" fill-rule="evenodd" class=""><g><path fill="#ff738a" d="M128.647 59.427H30.214c-4.136 0-7.52 3.395-7.52 7.52v88.093c0 4.124 3.396 7.52 7.52 7.52h112.969c4.124 0 7.52-3.384 7.52-7.52V66.947c0-4.136-3.384-7.52-7.52-7.52h-14.536z" data-original="#ff738a" class=""></path><path fill="#dddbda" d="M73.216 83.07h26.969l-.004 59c-.173 7.289-6.19 13.164-13.481 13.164-7.31 0-13.309-5.894-13.48-13.164z" data-original="#dddbda" class=""></path><path fill="#b0c2e4" d="M114.123 66.407H59.277v9.602c0 4.582 3.75 8.331 8.331 8.331h38.184c4.582 0 8.331-3.749 8.331-8.331z" data-original="#b0c2e4"></path><path fill="#dddbda" d="M86.7 18.034c-13.727.262-22.043-7.199-30.936-7.197-19.94.005-18.773 19.797-14.773 34.124 1.43 5.117 3.316 12.076 4.823 19.22a4.369 4.369 0 0 0 4.31 3.497h73.152a4.368 4.368 0 0 0 4.31-3.496c1.508-7.145 3.393-14.104 4.823-19.22 4-14.327 5.168-34.12-14.773-34.125-8.892-.002-17.209 7.459-30.936 7.197z" data-original="#dddbda" class=""></path><g fill="#b0c2e4"><rect width="47.797" height="7.984" x="62.802" y="97.504" rx="3.992" fill="#b0c2e4" data-original="#b0c2e4"></rect><rect width="47.797" height="7.984" x="62.802" y="115.795" rx="3.992" fill="#b0c2e4" data-original="#b0c2e4"></rect><rect width="47.797" height="7.984" x="62.802" y="134.086" rx="3.992" fill="#b0c2e4" data-original="#b0c2e4"></rect></g></g></svg>