<svg xmlns="http://www.w3.org/2000/svg" version="1.1" xmlns:xlink="http://www.w3.org/1999/xlink" xmlns:svgjs="http://svgjs.com/svgjs" width="512" height="512" x="0" y="0" viewBox="0 0 64 64" style="enable-background:new 0 0 512 512" xml:space="preserve" class=""><g><path d="M37 24.25c-.965 0-1.75.785-1.75 1.75s.785 1.75 1.75 1.75 1.75-.785 1.75-1.75-.785-1.75-1.75-1.75zM36.75 26a.25.25 0 0 1 .5 0c0 .275-.5.275-.5 0zM27 24.25c-.965 0-1.75.785-1.75 1.75s.785 1.75 1.75 1.75 1.75-.785 1.75-1.75-.785-1.75-1.75-1.75zM26.75 26a.25.25 0 0 1 .5 0c0 .275-.5.275-.5 0z" fill="#ffffff" data-original="#000000" class=""></path><path d="m57.077 42.587-3.527 1.176a1.74 1.74 0 0 1-1.1 0l-3.527-1.176a3.706 3.706 0 0 0-2.224-.04 12.067 12.067 0 0 0-5.341-1.434L38 38.67v-1.35c2.806-1.689 4.892-4.516 5.664-7.846a40.697 40.697 0 0 0 7.23 6.777l3.519 2.559a.998.998 0 0 0 1.25-.061c.351-.312.438-.824.211-1.234A38.835 38.835 0 0 1 51 18.704V11c0-4.963-4.037-9-9-9a8.999 8.999 0 0 0-6.24 2.528A13.932 13.932 0 0 0 32 4c-7.72 0-14 6.28-14 14v4.351a3.495 3.495 0 0 0-2 3.149c0 1.93 1.57 3.5 3.5 3.5h.678A11.894 11.894 0 0 0 26 37.383v1.286L22.796 41H21c-3.444 0-6.309 2.504-6.887 5.785l-.79-2.106A2.995 2.995 0 0 0 15 42v-6c1.654 0 3-1.346 3-3s-1.346-3-3-3v-3a1 1 0 0 0-1-1h-1v-8.101A5.009 5.009 0 0 0 17 13c0-2.757-2.243-5-5-5s-5 2.243-5 5a5.01 5.01 0 0 0 4 4.899V26h-1a1 1 0 0 0-1 1v3H6.427a4.002 4.002 0 0 0-3.965 4.528l3.547 26.604A1 1 0 0 0 7 62h42v-.013c.37 0 .723-.196.895-.54L53 55.236l3.105 6.211a1 1 0 0 0 1.893-.389c.132-2.231.725-6.214 1.757-7.403 1.21-1.394 1.933-4.826 2.187-6.234.039-.219.058-.435.058-.658v-.628c0-.984-.399-1.948-1.096-2.645a3.717 3.717 0 0 0-3.827-.903zM9 13c0-1.654 1.346-3 3-3s3 1.346 3 3-1.346 3-3 3-3-1.346-3-3zm35.062 34.431c.261 1.4.994 4.808 2.173 6.212.91 1.085 1.468 4.127 1.685 6.357H45v-5h-2v5H33V49.047l4.445 2.964c.461.305 1.08.182 1.387-.277 1.646-2.47 2.624-6.742 2.989-8.589 1.025.085 2.031.313 2.984.702A3.748 3.748 0 0 0 44 46.135v.62c0 .23.02.454.062.676zm-4.159-4.904c-.268 1.389-1.022 4.879-2.231 7.23l-4.191-2.794 4.287-5.145a.992.992 0 0 0 .232-.639v-.036zM22 27v-3c5.718 0 10.786-3.162 13.323-8.094A14.076 14.076 0 0 0 42 22.621v4.014c0 .814-.102 1.603-.277 2.365H22.199A10.132 10.132 0 0 1 22 27zm.038-5a12.843 12.843 0 0 1 2.275-6.394A9.978 9.978 0 0 1 32 12a9.96 9.96 0 0 1 2.702.371.99.99 0 0 0-.271.436c-1.678 5.486-6.656 9.176-12.393 9.193zm14.361-8.979a10.035 10.035 0 0 1 5.454 7.271 12.055 12.055 0 0 1-5.454-7.271zM44.5 24c.827 0 1.5.673 1.5 1.5s-.673 1.5-1.5 1.5h-.518c.004-.122.018-.242.018-.365V24zM42 4c3.859 0 7 3.141 7 7v7.704a40.84 40.84 0 0 0 3.324 16.113l-.255-.185a38.732 38.732 0 0 1-6.375-5.856A3.494 3.494 0 0 0 48 25.5a3.495 3.495 0 0 0-2-3.149V18c0-5.607-3.321-10.441-8.092-12.674A7.002 7.002 0 0 1 42 4zM32 6c6.617 0 12 5.383 12 12v4h-.002l.001-.011C43.994 15.379 38.611 10 32 10c-3.572 0-6.934 1.577-9.273 4.392A14.895 14.895 0 0 0 20.039 22H20v-4c0-6.617 5.383-12 12-12zM19.5 27c-.827 0-1.5-.673-1.5-1.5s.673-1.5 1.5-1.5h.5v3zm3.334 4h18.213c-1.575 3.473-4.949 5.927-8.86 5.998-2.716.037-5.263-.967-7.193-2.861A10.008 10.008 0 0 1 22.834 31zm9.163 8 .228-.002A11.477 11.477 0 0 0 36 38.277v2.539l-4 4.8-4-4.8v-2.51a11.98 11.98 0 0 0 3.997.694zM26 41.142v.036c0 .234.082.461.231.641l4.287 5.145-4.189 2.793c-1.202-2.356-1.931-5.874-2.186-7.265zM11 42v-6.184a2.972 2.972 0 0 0 1-.596c.289.26.626.463 1 .596V42a1 1 0 0 1-2 0zm5-9a1 1 0 0 1-1 1h-1a1 1 0 0 1 0-2h1a1 1 0 0 1 1 1zm-3-5v2.184a2.989 2.989 0 0 0-1 .596 2.972 2.972 0 0 0-1-.596V28zm-8.078 4.683A2 2 0 0 1 6.427 32H10a1 1 0 0 1 0 2H7v2h2v6c0 .352.072.686.184 1H5.609l-1.165-8.736a1.997 1.997 0 0 1 .478-1.581zM5.876 45h5.431L14 52.182V54h-2v2h3a1 1 0 0 0 1-1v-7c0-2.757 2.243-5 5-5h1.203c.335 1.802 1.286 6.216 2.965 8.733a.998.998 0 0 0 1.387.277L31 49.047V60H7.876zM60 46.763c0 .101-.007.197-.026.3-.373 2.067-1.052 4.502-1.729 5.282-.97 1.116-1.532 3.307-1.853 5.205l-1.604-3.207c-.341-.683-1.026-1.106-1.789-1.106s-1.448.424-1.789 1.105l-1.598 3.196c-.315-1.868-.874-4.021-1.848-5.181-.668-.797-1.354-3.232-1.738-5.297a1.729 1.729 0 0 1-.026-.305v-.62c0-.458.186-.906.51-1.23a1.727 1.727 0 0 1 1.78-.421l3.527 1.176c.191.064.386.112.583.144l3.045 2.029 1.109-1.664-1.3-.866 2.455-.818a1.727 1.727 0 0 1 1.78.421c.324.324.51.772.51 1.23v.627z" fill="#ffffff" data-original="#000000" class=""></path></g></svg>