<svg xmlns="http://www.w3.org/2000/svg" version="1.1" xmlns:xlink="http://www.w3.org/1999/xlink" xmlns:svgjs="http://svgjs.com/svgjs" width="512" height="512" x="0" y="0" viewBox="0 0 512 512" style="enable-background:new 0 0 512 512" xml:space="preserve" class=""><g><path fill="#e80054" d="M448.514 115.447H320.482V30.589c-20.548-5.591-42.163-8.593-64.482-8.593-.968 0-1.933.017-2.898.029-8.381 8.979-29.518 34.192-41.362 71.291-8.771 27.474-10.821 55.998-6.093 84.781 5.84 35.543 22.091 71.562 48.308 107.078-2.263 2.033-7.056 7.091-6.965 13.385.065 4.505 2.591 8.643 7.51 12.309v1.839c2.434.05 4.883.084 7.364.084 177.717 0 224.208-128.961 224.426-129.568a244.629 244.629 0 0 0-37.776-67.777z" data-original="#e80054"></path><path fill="#cc0053" d="M256 285.416c-106.184-142.644-17.36-246.222-.835-263.412-105.518.352-195.323 67.405-229.459 161.204 0 .001 56.76 126.705 230.294 129.516v-2.621c-16.902-11.968 0-24.687 0-24.687z" data-original="#cc0053"></path><path fill="#d3dcfb" d="M438.169 80.789a25.28 25.28 0 0 0-22.619-13.99h-29.754c-1.053 2.282-3.293 8.171-1.102 13.202 1.439 3.304 4.42 5.541 8.86 6.648.155.039.198.058.272.262.01.028.018.063.027.093l6.28-6.216a6.18 6.18 0 0 1 9.002.326L417.772 91a7.442 7.442 0 0 0 5.605 2.546h19.998v-2.328z" data-original="#d3dcfb"></path><path fill="#bec8f7" d="M380.771 66.799c-12.595 0-20.775-13.947-24.953-23.691-2.397-5.591-7.849-9.252-13.932-9.252h-21.404c.003.115.018.229.018.344v26.024c0 4.104 2.067 7.931 5.499 10.182l16.218 10.636a7.273 7.273 0 0 1 3.284 6.081v21.053a7.272 7.272 0 0 0 7.272 7.272h9.36a7.27 7.27 0 0 0 5.116-2.104l28.076-27.794a2.237 2.237 0 0 0-1.284-.84c-13.986-3.488-6.014-17.91-6.014-17.91h-7.256z" data-original="#bec8f7"></path><path fill="#ff4155" d="M486.294 183.208c-28.681-7.708-50.114-4.845-64.844.458-30.291 54.139-32.402 75.713-36.05 113.435-6.055 62.593-13.563 127.104-54.767 172.954-14.719 16.377-42.004 4.923-39.862-17.245 3.394-35.133 7.439-82.908 7.439-110.987 0-28.319-14.486-58.816-42.211-58.816-1.191 0-2.348.076-3.49.186.48.66.957 1.321 1.444 1.981-2.263 2.033-7.056 7.091-6.965 13.385.065 4.505 2.591 8.643 7.51 12.309v194.715l55.907-.105 4.024-.509a243.142 243.142 0 0 0 25.92-7.878L354 490.26l146.938-228.315.009.018c-.558-27.615-5.683-54.108-14.653-78.755z" data-original="#ff4155" class=""></path><path fill="#e80054" d="M255.999 310.103c-16.901-11.968.001-24.687.001-24.687-.584-.785-1.153-1.566-1.725-2.349-26.599 1.246-40.486 31.111-40.486 58.757 0 28.086 4.046 75.858 7.44 110.987 2.143 22.178-25.154 33.613-39.863 17.245-41.196-45.842-48.723-110.482-54.766-172.954-3.648-37.722-5.759-59.296-36.05-113.435-14.73-5.303-36.162-8.166-64.844-.458-8.968 24.644-14.094 51.132-14.652 78.742l.008-.007L138 474.947l25.083 17.417 8.574 4.73a243.095 243.095 0 0 0 25.86 7.863l4.436.725 54.046-.101z" data-original="#e80054"></path><path fill="#e9efff" d="M445.408 92.046h-22.031a5.941 5.941 0 0 1-4.474-2.032l-8.638-9.887a7.711 7.711 0 0 0-5.507-2.622 7.714 7.714 0 0 0-5.682 2.217l-32.885 32.556a5.734 5.734 0 0 1-4.061 1.67h-9.359a5.772 5.772 0 0 1-5.772-5.772V87.122a8.742 8.742 0 0 0-3.962-7.334L326.82 69.151a10.676 10.676 0 0 1-4.821-8.928V34.199c0-3.903-1.672-7.628-4.587-10.219-2.024-1.799-7.109-6.323-12.618-11.227-2.313-2.06-5.604-2.652-8.467-1.47l-.427.177c-12.92 5.375-26.652 8.072-40.368 8.035-5.612 5.632-30.532 32.286-43.793 73.82-8.771 27.474-10.821 55.998-6.093 84.781 5.84 35.543 22.091 71.562 48.308 107.078-.116.104-.242.221-.371.341 9.872-.73 20.02 3.009 27.051 11.24 8.145 9.535 15.168 23.896 15.168 45.068 0 27.623-3.902 74.25-7.429 110.755-2.353 24.356 27.697 37.286 44.053 19.086 17.857-19.871 35.8-50.629 44.76-97.668 21.448-112.606-3.217-108.853 63.274-217.984 10.531-17.285 15.463-35.419 15.711-52.962.085-6.037-4.724-11.004-10.763-11.004z" data-original="#e9efff"></path><path fill="#d3dcfb" d="M216.497 11.626C103.866-35.567 19.512 70.622 71.54 156.014c66.491 109.13 41.825 105.378 63.274 217.984 9.006 47.283 27.089 78.116 45.038 97.976 16.277 18.01 46.11 4.774 43.775-19.389-3.527-36.506-7.429-83.136-7.429-110.761 0-21.172 7.022-35.533 15.168-45.068 6.458-7.56 15.546-11.34 24.634-11.34-116.475-156.469 1.693-265.937 1.693-265.937l-.001-.003c-13.998.256-28.024-2.331-41.195-7.85z" data-original="#d3dcfb"></path><path fill="#ff4155" d="M171.657 497.094a51.875 51.875 0 0 1-10.445-8.928c-25.078-27.906-42.118-64.764-50.65-109.549-2.697-14.159-4.68-26.468-6.207-37.364-6.739-48.085-48.531-80.291-93.294-79.309a249.65 249.65 0 0 0-.064 5.054c.001 105.673 66.902 195.719 160.66 230.096z" data-original="#ff4155" class=""></path><path fill="#ff7186" d="M500.938 261.945c-44.759-.982-86.547 31.221-93.291 79.302-1.529 10.897-3.513 23.208-6.211 37.371-8.531 44.788-25.572 81.646-50.648 109.549a51.886 51.886 0 0 1-10.438 8.925c93.754-34.38 160.652-124.424 160.652-230.094 0-1.69-.03-3.372-.064-5.053zM293.295 500.614c-20.025-8.803-31.603-28.59-29.495-50.409 4.786-49.529 7.315-87.005 7.315-108.381 0-12.078-3.113-21.846-9.252-29.033-1.997-2.339-4.531-2.688-5.864-2.688-1.332 0-3.865.349-5.862 2.687-6.14 7.188-9.252 16.955-9.252 29.033 0 21.371 2.529 58.849 7.314 108.381 2.108 21.817-9.469 41.604-29.493 50.409-6.677 2.935-13.62 4.363-20.453 4.363-.246 0-.49-.016-.736-.019A245.529 245.529 0 0 0 256 512c20.139 0 39.704-2.448 58.43-7.03-7.054.098-14.235-1.323-21.135-4.356z" data-original="#ff7186"></path><path fill="#bec8f7" d="M293.974 161.402a7 7 0 0 1-7-7v-9.079a8.9 8.9 0 0 0-4.772-7.899l-.095-.05a16.602 16.602 0 0 1-8.87-14.727v-18.894a16.653 16.653 0 0 1 8.667-14.618l36.629-20.029a6.926 6.926 0 0 0 3.604-6.08V46.951a7 7 0 1 1 14 0v16.075c0 7.654-4.172 14.69-10.888 18.363l-36.629 20.029a2.659 2.659 0 0 0-1.384 2.335v18.894c0 .991.545 1.893 1.422 2.354l.095.05c7.523 3.956 12.22 11.731 12.22 20.272v9.079a6.998 6.998 0 0 1-6.999 7z" data-original="#bec8f7"></path></g></svg>