<svg xmlns="http://www.w3.org/2000/svg" version="1.1" xmlns:xlink="http://www.w3.org/1999/xlink" xmlns:svgjs="http://svgjs.com/svgjs" width="512" height="512" x="0" y="0" viewBox="0 0 512 512" style="enable-background:new 0 0 512 512" xml:space="preserve" class=""><g><path d="M258.08 166.617c-25.365 7.23-28.017 7.985-58.82-.763-29.964-8.508-89.825 2.125-72.446 101.654 6.249 35.785 21.008 71.555 37.602 91.127 20.504 24.186 36.538 15.306 42.481 10.363 11.374-9.466 12.042-19.414 12.814-30.934.481-7.168 1.08-16.091 4.339-27.793 1.669-6.006 10.261-6.002 11.934.003 3.252 11.687 3.851 20.607 4.332 27.775.774 11.526 1.443 21.48 12.82 30.949 14.378 11.967 30.305 4.503 42.707-10.121 16.533-19.494 31.201-55.363 37.368-91.379 13.515-78.923-23.161-115.68-75.13-100.88zm60.347 98.349c-5.659 33.044-19.332 66.886-34.024 84.209-13.089 15.434-19.549 10.06-21.672 8.294-6.437-5.358-6.733-9.768-7.448-20.425-.528-7.852-1.183-17.623-4.849-30.793-5.748-20.633-35.1-20.647-40.835 0-3.671 13.18-4.327 22.956-4.854 30.81-.714 10.647-1.01 15.053-7.44 20.406-2.062 1.714-8.337 6.932-21.448-8.532-14.762-17.413-28.533-51.173-34.267-84.008-12.642-72.402 19.544-94.31 53.574-84.644 33.942 9.64 39.478 8.613 67.028.759 51.148-14.568 65.417 30.297 56.235 83.924zm105.277 106.216-30.57 36.505-13.35-11.688c-23.177-20.3-53.913 14.781-30.722 35.088l31.285 27.39c9.98 8.739 24.978 7.292 33.238-2.573l45.874-54.78c19.67-23.482-15.929-53.615-35.755-29.942zm24.255 20.311-45.874 54.78c-2.971 3.548-8.323 4.015-11.857.92l-31.285-27.391c-8.286-7.255 2.74-19.713 10.96-12.518l19.118 16.738c3.142 2.751 7.974 2.416 10.69-.827l35.493-42.382c7.06-8.43 19.797 2.275 12.755 10.68zm1.443-64.783V67.901c0-14.807-12.047-26.854-26.854-26.854h-32.783C387.477 17.507 374.535 0 358.433 0S329.388 17.507 327.1 41.047h-65.794C259.017 17.507 246.076 0 229.974 0s-29.045 17.507-31.333 41.047h-65.794C130.558 17.507 117.617 0 101.514 0S72.47 17.507 70.182 41.047H37.399c-14.807 0-26.854 12.047-26.854 26.854v329.667c0 14.807 12.047 26.854 26.854 26.854h267.754C310.646 474.435 353.2 512 403 512c54.289 0 98.455-44.167 98.455-98.455 0-36.246-20.285-69.81-52.053-86.835zM358.432 15c6.814 0 14.32 10.73 16.229 26.047h-32.456C344.113 25.73 351.619 15 358.433 15zm-128.458 0c6.813 0 14.32 10.73 16.227 26.047h-32.455C215.654 25.73 223.16 15 229.974 15zm-128.46 0c6.814 0 14.32 10.73 16.228 26.047H85.286C87.194 25.73 94.701 15 101.514 15zm-75.97 52.901c0-6.536 5.319-11.854 11.855-11.854h32.783c2.288 23.54 15.23 41.047 31.332 41.047 9.91 0 9.921-15 0-15-6.813 0-14.32-10.731-16.228-26.047h113.355c2.288 23.54 15.23 41.047 31.333 41.047 9.91 0 9.92-15 0-15-6.814 0-14.32-10.731-16.228-26.047H327.1c2.288 23.54 15.23 41.047 31.333 41.047 9.91 0 9.92-15 0-15-6.814 0-14.32-10.731-16.228-26.047h80.343c6.536 0 11.854 5.318 11.854 11.854v46.047H25.545zm0 329.667V128.951h408.858v191.245c-10.201-3.443-20.906-5.106-31.402-5.106-53.635 0-96.248 42.581-98.37 94.332H37.4c-6.536 0-11.854-5.318-11.854-11.854zM403 497c-45.543 0-83.455-36.916-83.455-83.455 0-45.11 36.772-83.455 83.455-83.455 47.057 0 83.455 38.529 83.455 83.455C486.455 459.563 449.017 497 403 497z" fill="#157fb4" data-original="#000000" class=""></path></g></svg>