<svg xmlns="http://www.w3.org/2000/svg" version="1.1" xmlns:xlink="http://www.w3.org/1999/xlink" xmlns:svgjs="http://svgjs.com/svgjs" width="512" height="512" x="0" y="0" viewBox="0 0 128 128" style="enable-background:new 0 0 512 512" xml:space="preserve" class=""><g><path fill="#494270" d="M60.308 32.493a2.222 2.222 0 0 0 2.209 1.985h2.967a2.222 2.222 0 0 0 2.209-1.985l.978-9.133H59.33zM21.165 31.493a2.222 2.222 0 0 0 2.209 1.985h2.967a2.222 2.222 0 0 0 2.209-1.985l.978-9.133h-9.341zM98.472 22.36l.978 9.133a2.222 2.222 0 0 0 2.209 1.985h2.967a2.222 2.222 0 0 0 2.209-1.985l.978-9.133z" data-original="#494270"></path><path fill="#ff6687" d="M120.531 75.809c-7.357-7.774-31.582-3.027-48.781 4.431a19.425 19.425 0 0 1-15.439 0c-17.2-7.458-41.423-12.2-48.78-4.431C1.656 82.017 1 93.767 6.878 103.764q58.36 27.962 114.306 0c5.876-9.997 5.222-21.747-.653-27.955z" data-original="#ff6687" class=""></path><path fill="#ebecff" d="M120.221 115.14c-1.31 3.14-14.49 5-15.16 2.21a6.025 6.025 0 0 1-.21.64c-1.25 2.88-11.53 4.57-16.38 3.61-1.37-.28-2.31-.76-2.49-1.48v-.05a4.227 4.227 0 0 1-3.43 3.23 57.84 57.84 0 0 1-14.53.7c-1.07-.09-2.83-.52-3.34-1.64a13.838 13.838 0 0 1-.65-4.38 13.838 13.838 0 0 1-.65 4.38c-.51 1.12-2.27 1.55-3.34 1.64a57.84 57.84 0 0 1-14.53-.7 4.227 4.227 0 0 1-3.43-3.23v.05c-.85 3.29-17.27 1.56-18.87-2.13a6.025 6.025 0 0 1-.21-.64c-.67 2.79-13.85.93-15.16-2.21-.95-2.29-1.82-14.01.3-17.62 2.86-4.89 11.6-2.19 14.13 4.69a.449.449 0 0 0 .87-.07 16.246 16.246 0 0 1 1.32-4.51c1.73-3.29 8.36-3.32 12.83 0 2.07 1.54 3.12 4.27 4.01 6.88a.41.41 0 0 0 .8-.1c.07-.98.16-1.93.26-2.52 1.86-10.75 17.9-7.92 20.38 2.73.21.88.39 1.79.55 2.7a.75.75 0 0 0 1.48 0c.16-.91.34-1.82.55-2.7 2.48-10.65 18.52-13.48 20.38-2.73.05.28.09.65.14 1.06v.11c.05.42.09.88.12 1.35a.41.41 0 0 0 .8.1c.23-.66.46-1.33.72-1.98a10.923 10.923 0 0 1 3.29-4.9c4.47-3.32 11.1-3.29 12.83 0a16.246 16.246 0 0 1 1.32 4.51.449.449 0 0 0 .87.07c2.53-6.88 11.27-9.58 14.13-4.69 2.12 3.61 1.25 15.33.3 17.62z" data-original="#ebecff"></path><g fill="#3196ad"><path d="M99.848 52.056a1.5 1.5 0 0 1-.991-2.628l1.638-1.437a4.047 4.047 0 0 1 5.362.03l1.583 1.417a1.5 1.5 0 1 1-2 2.235l-1.583-1.418a1.043 1.043 0 0 0-1.381-.008l-1.638 1.437a1.5 1.5 0 0 1-.99.372z" fill="#3196ad" data-original="#3196ad"></path><path d="M103.143 61.571a1.5 1.5 0 0 1-1.5-1.5v-6.416a1.5 1.5 0 0 1 3 0v6.416a1.5 1.5 0 0 1-1.5 1.5zM21.562 52.012a1.5 1.5 0 0 1-.991-2.628l1.638-1.437a4.048 4.048 0 0 1 5.361.028l1.584 1.42a1.5 1.5 0 1 1-2 2.234l-1.585-1.419a1.041 1.041 0 0 0-1.382-.007L22.55 51.64a1.5 1.5 0 0 1-.988.372z" fill="#3196ad" data-original="#3196ad"></path><path d="M24.857 61.527a1.5 1.5 0 0 1-1.5-1.5v-6.416a1.5 1.5 0 1 1 3 0v6.416a1.5 1.5 0 0 1-1.5 1.5z" fill="#3196ad" data-original="#3196ad"></path></g><path fill="#ff6687" d="M63.969 23.882c25.1 0 50.2-.9 55.937-2.681a8.129 8.129 0 0 0 5.633-7.8V7.389a5 5 0 0 0-5-5H7.462a5 5 0 0 0-5 5V13.4A8.129 8.129 0 0 0 8.1 21.2c5.737 1.781 30.765 2.682 55.869 2.682z" data-original="#ff6687" class=""></path><path fill="#3196ad" d="M60.7 55.639a1.5 1.5 0 0 1-.99-2.628l1.638-1.437a4.048 4.048 0 0 1 5.363.03l1.589 1.417a1.5 1.5 0 0 1-2 2.235l-1.583-1.418a1.044 1.044 0 0 0-1.383-.008l-1.638 1.437a1.5 1.5 0 0 1-.996.372zM64 65.154a1.5 1.5 0 0 1-1.5-1.5v-6.416a1.5 1.5 0 0 1 3 0v6.416a1.5 1.5 0 0 1-1.5 1.5z" data-original="#3196ad"></path></g></svg>