<svg xmlns="http://www.w3.org/2000/svg" version="1.1" xmlns:xlink="http://www.w3.org/1999/xlink" xmlns:svgjs="http://svgjs.com/svgjs" width="512" height="512" x="0" y="0" viewBox="0 0 511.999 511" style="enable-background:new 0 0 512 512" xml:space="preserve" class=""><g><path fill="#dde4f7" d="m119.531 99.625-41.59-41.586 22.504-22.5 41.586 41.586-22.5 22.5zm0 0" data-original="#dde4f7" class=""></path><path fill="#ccd7f2" d="M116.473 72.543 89.957 46.027l10.488-10.488 41.586 41.586c-7.332 7.332-15.172 15.172-22.504 22.5L109.04 89.141l7.434-7.434a6.479 6.479 0 0 0 0-9.164zm0 0" data-original="#ccd7f2" class=""></path><path fill="#dde4f7" d="m340.516 240.832-57.278 57.273L117.48 132.348l57.278-57.274zm0 0" data-original="#dde4f7" class=""></path><path fill="#ff5155" d="M11.918 398.02c32.676-16.137 85.844-49.844 118.816-109.438 41.184-74.426 98.805-51.562 118.286-40.867a14.032 14.032 0 0 0 13.472 0c19.477-10.695 77.098-33.559 118.281 40.867 32.977 59.594 86.145 93.3 118.82 109.438 7.762 3.835 5.302 15.261-3.378 15.695-35.05 1.746-93.61-1.668-148.637-34.063-23.816-14.02-53.058-15.988-78.453-4.937a33.566 33.566 0 0 1-26.738 0c-25.399-11.05-54.64-9.082-78.457 4.937-55.024 32.395-113.582 35.805-148.633 34.063-8.684-.434-11.14-11.86-3.379-15.695zm0 0" data-original="#ff5155"></path><path fill="#f24049" d="M11.918 398.02a306.69 306.69 0 0 0 27.246-15.239c34.672-1.234 80.84-10.004 124.766-40.715 23.816-16.652 53.058-18.988 78.457-5.867 8.508 4.399 18.226 4.399 26.734 0 25.399-13.12 54.64-10.785 78.457 5.867 43.926 30.711 90.094 39.48 124.766 40.715a306.69 306.69 0 0 0 27.246 15.239c7.762 3.835 5.305 15.261-3.38 15.695-35.046 1.746-93.608-1.668-148.632-34.063-23.816-14.02-53.058-15.988-78.457-4.937a33.566 33.566 0 0 1-26.738 0c-25.395-11.05-54.637-9.082-78.453 4.937-55.028 32.395-113.586 35.805-148.637 34.063-8.68-.434-11.137-11.86-3.375-15.695zm0 0" data-original="#f24049"></path><path fill="#63a1fc" d="m340.516 240.832-57.278 57.273L163.59 178.457l57.273-57.277zm0 0" data-original="#63a1fc" class=""></path><path fill="#4188ff" d="m305.012 276.336-21.606 21.605L163.754 178.29l21.61-21.605zm0 0" data-original="#4188ff" class=""></path><path fill="#fc6870" d="M163.93 374.652c23.816-14.02 53.058-15.988 78.457-4.937a33.556 33.556 0 0 0 26.734 0c25.399-11.05 54.64-9.082 78.457 4.937 55.024 32.395 113.586 40.805 148.633 39.063 0 0-31.727 5.726-66.79 51.488-43.816 57.192-106.773 14.942-173.667 14.942-66.895 0-129.852 42.25-173.668-14.942-35.059-45.762-66.79-51.488-66.79-51.488 35.048 1.742 93.61-6.668 148.634-39.063zm0 0" data-original="#fc6870"></path><path fill="#ff5155" d="M48 412.656c10.172 5.645 21.926 13.778 34.086 25.457 43.816 42.09 106.773 10.996 173.668 10.996 66.894 0 129.851 31.094 173.668-10.996 12.16-11.68 23.914-19.812 34.09-25.457 12.234 1.254 23.316 1.524 32.699 1.059 0 0-31.727 5.726-66.79 51.488-43.816 57.192-106.773 14.942-173.667 14.942-66.895 0-129.852 42.25-173.668-14.942-35.059-45.762-66.79-51.488-66.79-51.488 9.384.469 20.466.195 32.704-1.059zm0 0" data-original="#ff5155"></path><path fill="#bccced" d="m184.863 119.953-22.504 22.5-26.992-26.992 22.5-22.5zm0 0" data-original="#bccced"></path><path fill="#a7bfe8" d="m184.863 119.953-14.843 14.844-26.993-26.996 14.84-14.84zm0 0" data-original="#a7bfe8"></path><path fill="#4188ff" d="M202.246 102.566c-17.043 17.043-40.246 40.246-57.273 57.278l18.613 18.613c16.746-16.75 40.539-40.543 57.277-57.277zm0 0" data-original="#4188ff" class=""></path><path fill="#2479e0" d="M166.578 138.234c-6.43 6.43-15.183 15.184-21.605 21.61l18.613 18.613c6.316-6.32 15.293-15.293 21.605-21.61zm0 0" data-original="#2479e0"></path><path fill="#ccd7f2" d="m52.965 60.5 6.023 6.02c3.477 3.476 9.114 3.476 12.594 0l37.344-37.344c3.476-3.477 3.476-9.113 0-12.594l-6.024-6.02c-3.476-3.48-9.113-3.48-12.593 0L52.965 47.907c-3.477 3.477-3.477 9.114 0 12.594zm0 0" data-original="#ccd7f2" class=""></path><path fill="#4188ff" d="M332.32 303.883a10.223 10.223 0 0 0 7.649-2.985l3.336-3.336a10.205 10.205 0 0 0 2.98-7.648l-5.773-49.082-57.274 57.277zm0 0" data-original="#4188ff" class=""></path><path fill="#2479e0" d="m343.305 272.098-3.336 3.336a10.205 10.205 0 0 1-7.649 2.98l-26.297-3.094-22.785 22.79 49.082 5.773a10.223 10.223 0 0 0 7.649-2.985l3.336-3.336a10.205 10.205 0 0 0 2.98-7.648l-2.2-18.703c-.241.305-.5.605-.78.887zm0 0" data-original="#2479e0"></path><path fill="#ccd7f2" d="M113.64 139.902c2.47-2.464 66.7-66.695 68.669-68.668 3.476-3.476 3.48-9.113 0-12.59l-6.02-6.023c-3.48-3.476-9.117-3.476-12.594 0L95.027 121.29a8.907 8.907 0 0 0 0 12.594l6.02 6.02c3.48 3.48 9.117 3.48 12.594 0zm0 0" data-original="#ccd7f2" class=""></path><path fill="#bccced" d="M87.95 29.176a8.907 8.907 0 0 0 0-12.594l-1.833-1.828 4.192-4.191c3.48-3.481 9.117-3.481 12.593 0l6.024 6.019a8.907 8.907 0 0 1 0 12.594L71.582 66.52c-3.48 3.476-9.117 3.476-12.594 0l-4.191-4.192c6.43-6.43 19.36-19.363 33.152-33.152zM161.332 71.234a8.895 8.895 0 0 0 0-12.59l-1.828-1.831 4.191-4.192c3.477-3.476 9.114-3.476 12.594 0l6.02 6.024a8.902 8.902 0 0 1 0 12.59c-1.97 1.972-66.2 66.203-68.668 68.667-3.477 3.48-9.114 3.48-12.594 0l-4.192-4.191c14.743-14.738 62.778-62.777 64.477-64.477zm0 0" data-original="#bccced"></path><path d="M503.156 391.348C474 376.949 420.215 343.984 387.582 285.004c-11.09-20.043-24.3-34.961-39.309-44.418-.222-1.89-.718-3.516-2.21-5.004L187.465 76.984c.191-.195.324-.328.39-.39 6.395-6.399 6.395-16.805 0-23.203l-6.02-6.02c-6.397-6.398-16.804-6.398-23.202 0l-17.778 17.777-28.5-28.5 2.118-2.117c6.394-6.398 6.394-16.804 0-23.203l-6.024-6.02c-6.414-6.413-16.789-6.41-23.199 0l-6.453 6.454a7.497 7.497 0 0 0 0 10.605 7.494 7.494 0 0 0 10.605 0l6.453-6.453a1.406 1.406 0 0 1 1.989 0l6.02 6.023a1.405 1.405 0 0 1 0 1.985C99.75 28.039 91.48 36.305 73.94 53.848h-.003l-7.418 7.418a1.405 1.405 0 0 1-1.985 0l-6.023-6.02a1.398 1.398 0 0 1 0-1.984l6.12-6.121a7.502 7.502 0 0 0-10.61-10.605l-6.12 6.12c-6.41 6.41-6.41 16.785.004 23.2l6.02 6.019c6.398 6.395 16.804 6.398 23.199 0l2.121-2.117 28.5 28.5-17.781 17.777c-6.414 6.414-6.41 16.79 0 23.203l6.023 6.02c6.399 6.398 16.805 6.398 23.2 0l.394-.39c14.477 14.48 52.457 52.456 83.57 83.573-9.71.297-19.074 2.332-27.988 6.13-19.828 8.437-36.902 25.406-50.75 50.433-32.637 58.98-86.418 91.945-115.574 106.344-14.32 7.07-10.363 28.308 5.543 29.84 2.37.546 30.73 7.824 61.996 48.628 43.187 56.372 103.742 24.383 162.832 18.73a7.498 7.498 0 0 0 6.75-8.179c-.395-4.125-4.066-7.152-8.18-6.754-61.941 5.926-112.664 35.157-149.496-12.922-14.535-18.968-28.62-31.406-40.387-39.523 45.567-2.543 86.079-14.988 120.082-35 21.43-12.617 48.243-14.715 71.657-4.523 10.398 4.523 22.328 4.523 32.722 0 23.266-10.125 50.063-8.192 71.657 4.523 36.492 21.469 77.64 32.633 120.086 35-11.77 8.113-25.856 20.555-40.391 39.523-36.828 48.075-87.5 18.852-149.496 12.922-4.11-.402-7.79 2.63-8.184 6.754a7.501 7.501 0 0 0 6.754 8.18c58.969 5.64 119.668 37.613 162.832-18.73 31.574-41.208 59.492-48.09 61.977-48.63 15.883-1.507 19.922-22.75 5.562-29.84zM330.148 240.883l-46.668 46.672-12.312-12.317 5.394-5.394a7.497 7.497 0 0 0 0-10.606 7.497 7.497 0 0 0-10.605 0l-5.398 5.395-13.637-13.637 5.394-5.394a7.502 7.502 0 0 0 0-10.61 7.497 7.497 0 0 0-10.605 0l-5.395 5.399-7.812-7.817c-.004 0-.004-.004-.008-.004l-5.82-5.82 5.398-5.395a7.497 7.497 0 0 0 0-10.605 7.502 7.502 0 0 0-10.61 0l-5.394 5.395-13.636-13.637 5.394-5.395a7.497 7.497 0 0 0 0-10.605 7.497 7.497 0 0 0-10.605 0l-5.399 5.394-13.387-13.39 46.668-46.668zm-170.68-135.906 15.028 15.027-11.894 11.894-15.028-15.027c3.36-3.355 3.82-3.816 11.895-11.894zm-3.648 54.918 46.668-46.668 8.008 8.007-46.668 46.668c-6.703-6.707-6.078-6.082-8.008-8.007zm36.063-57.278-6.781 6.781-15.024-15.027c2.426-2.43 4.707-4.71 6.777-6.781zM334.91 295.648a2.75 2.75 0 0 1-1.844.793l-33.336-3.921 35.387-35.387c2.75 23.367 2.317 19.719 3.922 33.34a2.734 2.734 0 0 1-.797 1.84l-1.664 1.664s-1.601 1.601-1.668 1.671zm-204.722-161.39c2.07-2.067 4.351-4.348 6.78-6.778l15.024 15.028-6.777 6.777zm.058-58.5-11.894 11.894-28.5-28.504 11.894-11.89zm47-9.774c-2.894 2.899-65.187 65.188-68.664 68.668a1.41 1.41 0 0 1-1.988 0l-6.02-6.023a1.398 1.398 0 0 1 0-1.984l68.668-68.668a1.405 1.405 0 0 1 1.985 0l6.02 6.023c.55.547.55 1.437 0 1.984zM496.98 405.61c-.12.578-.492.645-.898.664-92.32 4.594-141.66-33.02-157-39.21-23.281-9.399-49.59-9.231-72.707.828a26.113 26.113 0 0 1-20.754 0c-28.113-12.235-60.016-9.504-85.25 5.351-52.074 30.656-107.3 34.883-144.457 33.031-.402-.02-.777-.086-.898-.664-.102-.492.109-.632.468-.808 30.727-15.18 87.446-49.977 122.059-112.531 21.035-38.016 48.59-53.989 81.934-47.504l58.703 58.699a7.628 7.628 0 0 0 4.425 2.148l49.086 5.774c2.563.297 6.579-.407 9.649-2.035l49.012 49.011a7.502 7.502 0 0 0 10.609 0 7.497 7.497 0 0 0 0-10.605l-49.024-49.024c1.977-3.707 2.286-7.629 2.043-9.64l-3.28-27.887c8.698 7.832 16.652 18.223 23.757 31.063 34.613 62.554 91.328 97.355 122.059 112.53.355.177.566.317.464.81zm0 0" fill="#000000" data-original="#000000" class=""></path></g></svg>