<svg xmlns="http://www.w3.org/2000/svg" version="1.1" xmlns:xlink="http://www.w3.org/1999/xlink" xmlns:svgjs="http://svgjs.com/svgjs" width="512" height="512" x="0" y="0" viewBox="0 0 60 60" style="enable-background:new 0 0 512 512" xml:space="preserve" class=""><g><g fill="none" fill-rule="nonzero"><g transform="translate(0 1)"><path fill="#ffdc00" d="M29 14h28v21H29z" data-original="#ffdc00"></path><path fill="#fec108" d="M54 14h3v21h-3z" data-original="#fec108"></path><path fill="#ff9801" d="M43 14h14.935a1.105 1.105 0 0 0 .646-1.972L43.646.226a1.037 1.037 0 0 0-1.292 0l-14.935 11.8A1.105 1.105 0 0 0 28.065 14z" data-original="#ff9801"></path><path fill="#f57c00" d="M58.581 12.028 43.646.226a1.037 1.037 0 0 0-1.292 0L41.5.9l14.081 11.128A1.105 1.105 0 0 1 54.935 14h3a1.105 1.105 0 0 0 .646-1.972z" data-original="#f57c00"></path><path fill="#f57c00" d="M50 5.25V2a1 1 0 0 1 1-1h4a1 1 0 0 1 1 1v7.99" data-original="#f57c00"></path><path fill="#783e22" d="M45 22h-3a2 2 0 0 1 2 2v11h3V24a2 2 0 0 0-2-2z" data-original="#783e22"></path><circle cx="17.999" cy="19" r="1" fill="#000000" data-original="#000000" class=""></circle><path fill="#dfc49c" d="m24.14 46.3-2.71 1.48a1 1 0 0 0-.5.68L20.62 50h-5.2l-.31-1.54a.982.982 0 0 0-.51-.68l-2.74-1.48.14-.3a11.33 11.33 0 0 0 .9-3.78l1.2 1.04a2.95 2.95 0 0 0 1.96.74h3.88a2.95 2.95 0 0 0 1.96-.74l1.2-1.04A11.33 11.33 0 0 0 24 46z" data-original="#dfc49c"></path><path fill="#ffe0b2" d="M30 32a3 3 0 0 1-3 3v2.45a3 3 0 0 1-1.01 2.24l-2.89 2.53-1.2 1.04a2.95 2.95 0 0 1-1.96.74h-3.88a2.95 2.95 0 0 1-1.96-.74l-1.2-1.04-2.89-2.53A3 3 0 0 1 9 37.45V35a3 3 0 0 1 0-6v-2h18v2a3 3 0 0 1 3 3z" data-original="#ffe0b2"></path><path fill="#dfc49c" d="M27 29v-2h-3v2a3 3 0 0 1 0 6v2.45a3 3 0 0 1-1.01 2.24l-2.89 2.53-1.2 1.04a2.95 2.95 0 0 1-1.96.74h3a2.95 2.95 0 0 0 1.96-.74l1.2-1.04 2.89-2.53A3 3 0 0 0 27 37.45V35a3 3 0 0 0 0-6z" data-original="#dfc49c"></path><path fill="#02a9f4" d="M27 23v4H9v-4h6a5 5 0 0 0 6 0z" data-original="#02a9f4"></path><path fill="#9e9e9e" d="M23 19a5 5 0 1 1-8.83-3.22h.01a4.989 4.989 0 0 1 7.64 0h.01A4.986 4.986 0 0 1 23 19z" data-original="#9e9e9e"></path><path fill="#707070" d="M21.83 15.78h-.01a4.965 4.965 0 0 0-5.32-1.545c.905.282 1.71.818 2.32 1.545h.01A5.007 5.007 0 0 1 18 23a4.9 4.9 0 0 1-1.5.764 5 5 0 0 0 5.33-7.984z" data-original="#707070"></path><path fill="#f5f5f5" d="M35 56.94A1 1 0 0 1 34 58H22.13l3.57-7.56c.132-.28.128-.604-.01-.88l-1.55-3.26L24 46s6.82 1.4 9 3.62c1.32 1.35 1.84 4.52 2 7.32z" data-original="#f5f5f5"></path><path fill="#cfd8dc" d="M33 49.62C30.82 47.4 24 46 24 46l.14.3.285.6c2.037.629 4.437 1.562 5.575 2.721 1.32 1.35 1.84 4.52 2 7.32A1 1 0 0 1 31 58h3a1 1 0 0 0 1-1.06c-.16-2.8-.68-5.97-2-7.32z" data-original="#cfd8dc"></path><path fill="#f5f5f5" d="M13.87 58H2a1 1 0 0 1-1-1.06c.16-2.8.68-5.97 2-7.32C5.18 47.4 12 46 12 46l-.14.3-1.55 3.26c-.138.276-.142.6-.01.88z" data-original="#f5f5f5"></path><path fill="#f44335" d="M20.62 50 19 58h-2l-1.58-8z" data-original="#f44335" class=""></path><g fill="#cfd8dc"><path d="M25.7 50.44 22.13 58H19l1.62-8 .31-1.54a1 1 0 0 1 .5-.68l2.71-1.48 1.55 3.26c.138.276.142.6.01.88zM17 58h-3.13l-3.57-7.56a1.007 1.007 0 0 1 .01-.88l1.55-3.26 2.74 1.48a.982.982 0 0 1 .51.68l.31 1.54z" fill="#cfd8dc" data-original="#cfd8dc"></path></g></g><g fill="#000" transform="translate(-1)"><path d="M29 24v-.023a8.765 8.765 0 0 0-2.954-6.324 9.572 9.572 0 0 0-2.626-1.7 5.971 5.971 0 0 0-8.839 0 9.5 9.5 0 0 0-2.622 1.693A8.772 8.772 0 0 0 9 24v5.126a4 4 0 0 0 0 7.748v1.576a4.008 4.008 0 0 0 1.353 2.993l2.5 2.186a10.344 10.344 0 0 1-.6 2.51c-1.773.4-6.941 1.715-8.969 3.781C1.675 51.567 1.155 55.158 1 57.881A2 2 0 0 0 3 60h32a2 2 0 0 0 2-2.119c-.152-2.723-.672-6.315-2.286-7.962-2.03-2.066-7.2-3.379-8.97-3.781a10.429 10.429 0 0 1-.6-2.514l2.506-2.187A4 4 0 0 0 29 38.45v-1.576a4 4 0 0 0 0-7.749zm-18 1h4.69a5.978 5.978 0 0 0 6.62 0H27v2H11zm15.889-2h-2.7a5.958 5.958 0 0 0 .781-3.6 6.833 6.833 0 0 1 1.918 3.6zM23 20a4 4 0 1 1-8 0 4 4 0 0 1 8 0zm-9.97-.6a5.958 5.958 0 0 0 .782 3.6h-2.7a6.826 6.826 0 0 1 1.917-3.6zm10.335 25.753c.128.576.298 1.142.51 1.693L21.923 47.9a1.993 1.993 0 0 0-1.013 1.373l-.145.727H17.2l-.149-.738a2 2 0 0 0-1-1.363l-1.926-1.05a11.8 11.8 0 0 0 .511-1.692c.69.544 1.544.84 2.423.843h3.879a3.925 3.925 0 0 0 2.427-.847zm-3 6.847-1.188 6h-.357l-1.212-6zM10 58v-1a1 1 0 0 0-2 0v1H3v-.008c.185-3.315.811-5.747 1.718-6.671 1.182-1.2 4.23-2.242 6.483-2.855l-.782 1.647a2.013 2.013 0 0 0-.02 1.754L13.3 58zm2.218-7.011 1.094-2.306 1.783.972L16.779 58h-1.27zm9 7.011 1.652-8.343 1.817-.977 1.106 2.333L22.5 58zm12.066-6.68c.906.925 1.532 3.357 1.716 6.68h-5v-1a1 1 0 0 0-2 0v1h-3.293l2.9-6.136a1.987 1.987 0 0 0-.012-1.733l-.79-1.665c2.25.613 5.295 1.649 6.48 2.854zm-3.873-19.734A2 2 0 0 1 28 35a1 1 0 0 0-1 1v2.45a2 2 0 0 1-.668 1.487l-4.1 3.576a1.94 1.94 0 0 1-1.3.487h-3.873a1.947 1.947 0 0 1-1.3-.494l-4.082-3.563A2 2 0 0 1 11 38.45V36a1 1 0 0 0-1-1 2 2 0 1 1 0-4 1 1 0 0 0 1-1v-1h16v1a1 1 0 0 0 1 1c.53 0 1.038.21 1.411.586z" fill="#000000" data-original="#000000" class=""></path><circle cx="18.999" cy="20" r="1" fill="#000000" data-original="#000000" class=""></circle><path d="M58 10.505V3a2 2 0 0 0-2-2h-4a2 2 0 0 0-2 2v1.183L45.266.442a2.035 2.035 0 0 0-2.532 0L27.8 12.243a2.091 2.091 0 0 0-.68 2.357A2.037 2.037 0 0 0 29 15.99v1.68a1 1 0 0 0 2 0V16h26v19h-8V25a3 3 0 0 0-3-3h-4a3 3 0 0 0-3 3v10h-4.68a1 1 0 0 0 0 2H58a1 1 0 0 0 1-1V15.99a2.038 2.038 0 0 0 1.88-1.39 2.09 2.09 0 0 0-.68-2.357zM41 35V25a1 1 0 0 1 1-1h4a1 1 0 0 1 1 1v10zM52 3h4v5.924l-4-3.16zm-8 11-14.99-.055c-.03-.085.011-.118.03-.132l14.985-11.8 14.936 11.8c.018.014.059.047-.026.187z" fill="#000000" data-original="#000000" class=""></path></g></g></g></svg>