<svg xmlns="http://www.w3.org/2000/svg" version="1.1" xmlns:xlink="http://www.w3.org/1999/xlink" xmlns:svgjs="http://svgjs.com/svgjs" width="512" height="512" x="0" y="0" viewBox="0 0 512 512" style="enable-background:new 0 0 512 512" xml:space="preserve" class=""><g><path fill="#e5eef9" d="M465 149v.56a25.875 25.875 0 0 0-14.495-4.417H33.5c-14.359 0-26 11.641-26 26v280.694c0 14.359 11.641 26 26 26H106l18.333-7.746h273.358l8.309 7.746h44.505A25.875 25.875 0 0 0 465 473.42L486.333 461V162.549z" data-original="#e5eef9"></path><path fill="#5a5a5a" d="M339.042 34.163h-183.45c-11.909 0-21.563 9.758-21.563 21.795v12.177h.001v126.007h33.611V81.135c0-7.18 5.758-13 12.862-13H331.5c7.103 0 12.862 5.82 12.862 13v113.007h17.306V43.333z" data-original="#5a5a5a"></path><path fill="#d5e3f4" d="M478.5 145.143h-28c14.359 0 26 11.641 26 26v280.694c0 14.359-11.641 26-26 26h28c14.359 0 26-11.641 26-26V171.143c0-14.36-11.641-26-26-26z" data-original="#d5e3f4"></path><path fill="#444444" d="M377.971 55.958c0-12.037-9.654-21.795-21.563-21.795h-22c11.909 0 21.563 9.758 21.563 21.795v138.184h22z" data-original="#444444"></path><path fill="#ee6161" d="M106 145.143h300v332.694H106z" data-original="#ee6161"></path><circle cx="256" cy="311.49" r="105.667" fill="#e5eef9" data-original="#e5eef9"></circle><path fill="#f6ab31" d="M318.302 289.056h-39.868v-39.868a5 5 0 0 0-5-5h-34.868a5 5 0 0 0-5 5v39.868h-39.868a5 5 0 0 0-5 5v34.868a5 5 0 0 0 5 5h39.868v39.868a5 5 0 0 0 5 5h34.868a5 5 0 0 0 5-5v-39.868h39.868a5 5 0 0 0 5-5v-34.868a5 5 0 0 0-5-5z" data-original="#f6ab31"></path><path fill="#fec165" d="m117.375 126.875-8.865-4.382a7.858 7.858 0 0 0-4.416-1.35H85.837a7.901 7.901 0 0 0-7.901 7.901v57.198a7.9 7.9 0 0 0 7.901 7.901h18.254c1.455 0 2.813-.4 3.984-1.086l9.3-4.932z" data-original="#fec165"></path><path fill="#fdb441" d="M126.091 121.143h-22a7.901 7.901 0 0 1 7.901 7.901v57.198a7.9 7.9 0 0 1-7.901 7.901h22a7.9 7.9 0 0 0 7.901-7.901v-57.198a7.9 7.9 0 0 0-7.901-7.901z" data-original="#fdb441"></path><path fill="#fec165" d="m417.411 126.875-8.865-4.382a7.858 7.858 0 0 0-4.416-1.35h-18.257a7.901 7.901 0 0 0-7.901 7.901v57.198a7.9 7.9 0 0 0 7.901 7.901h18.254c1.455 0 2.813-.4 3.984-1.086l9.3-4.932z" data-original="#fec165"></path><path fill="#fdb441" d="M426.127 121.143h-22a7.901 7.901 0 0 1 7.901 7.901v57.198a7.9 7.9 0 0 1-7.901 7.901h22a7.9 7.9 0 0 0 7.901-7.901v-57.198a7.9 7.9 0 0 0-7.901-7.901z" data-original="#fdb441"></path><path d="M256 198.323c-62.4 0-113.167 50.766-113.167 113.167S193.6 424.656 256 424.656 369.167 373.89 369.167 311.49 318.4 198.323 256 198.323zm0 211.333c-54.129 0-98.167-44.037-98.167-98.167S201.87 213.322 256 213.322s98.167 44.037 98.167 98.167-44.038 98.167-98.167 98.167z" fill="#000000" data-original="#000000"></path><path d="M285.934 281.556v-32.368c0-6.893-5.607-12.5-12.5-12.5h-34.868c-6.893 0-12.5 5.607-12.5 12.5v32.368h-32.368c-6.893 0-12.5 5.607-12.5 12.5v34.868c0 6.893 5.607 12.5 12.5 12.5h32.368v32.368c0 6.893 5.607 12.5 12.5 12.5h34.868c6.893 0 12.5-5.607 12.5-12.5v-32.368h32.368c6.893 0 12.5-5.607 12.5-12.5v-34.868c0-6.893-5.607-12.5-12.5-12.5zm29.868 44.868h-37.368a7.5 7.5 0 0 0-7.5 7.5v37.368h-29.868v-37.368a7.5 7.5 0 0 0-7.5-7.5h-37.368v-29.868h37.368a7.5 7.5 0 0 0 7.5-7.5v-37.368h29.868v37.368a7.5 7.5 0 0 0 7.5 7.5h37.368z" fill="#000000" data-original="#000000"></path><path d="M504.5 366.916a7.5 7.5 0 0 0 7.5-7.5V171.143c0-18.472-15.028-33.5-33.5-33.5h-36.972v-8.599c0-8.492-6.909-15.401-15.401-15.401h-40.254c-.136 0-.267.017-.402.02l.001-57.705c0-16.153-13.038-29.295-29.063-29.295H213.466a7.5 7.5 0 0 0 0 15h142.942c7.754 0 14.063 6.413 14.063 14.295l-.001 81.685h-18.61V81.135c0-11.304-9.134-20.5-20.362-20.5H180.501c-11.228 0-20.362 9.196-20.362 20.5v56.507h-18.611v-8.607l.001-73.078c0-7.882 6.309-14.295 14.063-14.295h22.874a7.5 7.5 0 0 0 0-15h-22.874c-16.026 0-29.063 13.142-29.063 29.295l-.001 57.705c-.135-.003-.266-.02-.401-.02H85.873c-8.492 0-15.401 6.909-15.401 15.401v8.599H33.5c-18.472 0-33.5 15.028-33.5 33.5v280.694c0 18.472 15.028 33.5 33.5 33.5h445c18.472 0 33.5-15.028 33.5-33.5v-57.421a7.5 7.5 0 0 0-15 0v57.421c0 10.201-8.299 18.5-18.5 18.5h-65V201.643h12.627c5.863 0 10.968-3.294 13.569-8.127a15.309 15.309 0 0 0 1.868-7.345v-33.528H478.5c10.201 0 18.5 8.299 18.5 18.5v188.273a7.5 7.5 0 0 0 7.5 7.5zM385.873 128.643h40.254c.221 0 .401.18.401.401v57.198a.395.395 0 0 1-.026.129.394.394 0 0 1-.339.2h-40.254a.402.402 0 0 1-.401-.401zM175.139 81.135c0-3.033 2.405-5.5 5.362-5.5h150.997c2.957 0 5.362 2.467 5.362 5.5v56.507H175.139zm-89.667 47.909c0-.221.18-.401.401-.401h40.254c.631 0 .365-3.226.365 57.599 0 .221-.18.401-.401.401H85.873a.402.402 0 0 1-.401-.401zM15 451.837V171.143c0-10.201 8.299-18.5 18.5-18.5h36.936v33.599c0 8.492 6.909 15.401 15.401 15.401H98.5v268.694h-65c-10.201 0-18.5-8.299-18.5-18.5zm383.5 18.5h-285V201.643H126.127c8.492 0 15.401-6.909 15.401-15.401v-33.599h228.943v33.599c0 8.492 6.909 15.401 15.401 15.401H398.5z" fill="#000000" data-original="#000000"></path></g></svg>