<svg xmlns="http://www.w3.org/2000/svg" version="1.1" xmlns:xlink="http://www.w3.org/1999/xlink" xmlns:svgjs="http://svgjs.com/svgjs" width="512" height="512" x="0" y="0" viewBox="0 0 682.667 682.667" style="enable-background:new 0 0 512 512" xml:space="preserve"><g><defs><clipPath id="a" clipPathUnits="userSpaceOnUse"><path d="M0 512h512V0H0Z" fill="#ffffff" data-original="#000000"></path></clipPath></defs><g clip-path="url(#a)" transform="matrix(1.33333 0 0 -1.33333 0 682.667)"><path d="M0 0v28.949c0 15.628 12.668 28.295 28.298 28.295h312.444c15.629 0 28.298-12.667 28.298-28.295v-8.632" style="stroke-width:15;stroke-linecap:round;stroke-linejoin:round;stroke-miterlimit:10;stroke-dasharray:none;stroke-opacity:1" transform="translate(21.916 447.256)" fill="none" stroke="#ffffff" stroke-width="15" stroke-linecap="round" stroke-linejoin="round" stroke-miterlimit="10" stroke-dasharray="none" stroke-opacity="" data-original="#000000"></path><path d="M0 0v-151.25c0-15.628-12.669-28.295-28.298-28.295h-312.444c-15.63 0-28.298 12.667-28.298 28.295v378.434" style="stroke-width:15;stroke-linecap:round;stroke-linejoin:round;stroke-miterlimit:10;stroke-dasharray:none;stroke-opacity:1" transform="translate(390.956 187.045)" fill="none" stroke="#ffffff" stroke-width="15" stroke-linecap="round" stroke-linejoin="round" stroke-miterlimit="10" stroke-dasharray="none" stroke-opacity="" data-original="#000000"></path><path d="m0 0-13.603-4.929a33.095 33.095 0 0 1-21.21-24.872l-2.941-15.406c-2.188-11.383 6.545-21.941 18.139-21.941h75.056c11.504 0 20.218 10.398 18.19 21.72l-2.74 15.317A33.075 33.075 0 0 1 49.609-4.838L35.485.281" style="stroke-width:15;stroke-linecap:round;stroke-linejoin:round;stroke-miterlimit:10;stroke-dasharray:none;stroke-opacity:1" transform="translate(188.523 364.15)" fill="none" stroke="#ffffff" stroke-width="15" stroke-linecap="round" stroke-linejoin="round" stroke-miterlimit="10" stroke-dasharray="none" stroke-opacity="" data-original="#000000"></path><path d="M0 0h7.358v-23.788c-10.169-8.872-25.326-8.872-35.485.011V0h7.117" style="stroke-width:15;stroke-linecap:round;stroke-linejoin:round;stroke-miterlimit:10;stroke-dasharray:none;stroke-opacity:1" transform="translate(216.65 383.22)" fill="none" stroke="#ffffff" stroke-width="15" stroke-linecap="round" stroke-linejoin="round" stroke-miterlimit="10" stroke-dasharray="none" stroke-opacity="" data-original="#000000"></path><path d="M0 0v-20.157C0-35.963-12.937-49.275-28.742-48.97c-15.317.295-27.637 12.801-27.637 28.183V0c0 15.566 12.621 28.187 28.19 28.187S0 15.566 0 0Z" style="stroke-width:15;stroke-linecap:round;stroke-linejoin:round;stroke-miterlimit:10;stroke-dasharray:none;stroke-opacity:1" transform="translate(234.45 430.12)" fill="none" stroke="#ffffff" stroke-width="15" stroke-linecap="round" stroke-linejoin="round" stroke-miterlimit="10" stroke-dasharray="none" stroke-opacity="" data-original="#000000"></path><path d="M0 0c4.993-3.502 15.326-3.344 25.895.888a50.239 50.239 0 0 1 6.479 3.14" style="stroke-width:15;stroke-linecap:round;stroke-linejoin:round;stroke-miterlimit:10;stroke-dasharray:none;stroke-opacity:1" transform="translate(200.202 426.095)" fill="none" stroke="#ffffff" stroke-width="15" stroke-linecap="round" stroke-linejoin="round" stroke-miterlimit="10" stroke-dasharray="none" stroke-opacity="" data-original="#000000"></path><path d="M0 0h233.57" style="stroke-width:15;stroke-linecap:round;stroke-linejoin:round;stroke-miterlimit:10;stroke-dasharray:none;stroke-opacity:1" transform="translate(88.264 168.596)" fill="none" stroke="#ffffff" stroke-width="15" stroke-linecap="round" stroke-linejoin="round" stroke-miterlimit="10" stroke-dasharray="none" stroke-opacity="" data-original="#000000"></path><path d="M0 0h233.57" style="stroke-width:15;stroke-linecap:round;stroke-linejoin:round;stroke-miterlimit:10;stroke-dasharray:none;stroke-opacity:1" transform="translate(88.264 128.155)" fill="none" stroke="#ffffff" stroke-width="15" stroke-linecap="round" stroke-linejoin="round" stroke-miterlimit="10" stroke-dasharray="none" stroke-opacity="" data-original="#000000"></path><path d="M0 0h233.57" style="stroke-width:15;stroke-linecap:round;stroke-linejoin:round;stroke-miterlimit:10;stroke-dasharray:none;stroke-opacity:1" transform="translate(88.264 87.716)" fill="none" stroke="#ffffff" stroke-width="15" stroke-linecap="round" stroke-linejoin="round" stroke-miterlimit="10" stroke-dasharray="none" stroke-opacity="" data-original="#000000"></path><path d="M0 0h233.57" style="stroke-width:15;stroke-linecap:round;stroke-linejoin:round;stroke-miterlimit:10;stroke-dasharray:none;stroke-opacity:1" transform="translate(88.264 47.275)" fill="none" stroke="#ffffff" stroke-width="15" stroke-linecap="round" stroke-linejoin="round" stroke-miterlimit="10" stroke-dasharray="none" stroke-opacity="" data-original="#000000"></path><path d="M0 0h233.57" style="stroke-width:15;stroke-linecap:round;stroke-linejoin:round;stroke-miterlimit:10;stroke-dasharray:none;stroke-opacity:1" transform="translate(88.264 249.476)" fill="none" stroke="#ffffff" stroke-width="15" stroke-linecap="round" stroke-linejoin="round" stroke-miterlimit="10" stroke-dasharray="none" stroke-opacity="" data-original="#000000"></path><path d="M0 0h233.57" style="stroke-width:15;stroke-linecap:round;stroke-linejoin:round;stroke-miterlimit:10;stroke-dasharray:none;stroke-opacity:1" transform="translate(88.264 209.036)" fill="none" stroke="#ffffff" stroke-width="15" stroke-linecap="round" stroke-linejoin="round" stroke-miterlimit="10" stroke-dasharray="none" stroke-opacity="" data-original="#000000"></path><path d="M0 0a7.529 7.529 0 0 0-15.058 0 7.527 7.527 0 0 0 7.529 7.527A7.528 7.528 0 0 0 0 0" style="fill-opacity:1;fill-rule:nonzero;stroke:none" transform="translate(68.099 168.596)" fill="#ffffff" data-original="#000000"></path><path d="M0 0a7.528 7.528 0 0 0-7.529-7.527 7.527 7.527 0 1 0 0 15.055A7.528 7.528 0 0 0 0 0" style="fill-opacity:1;fill-rule:nonzero;stroke:none" transform="translate(68.099 249.476)" fill="#ffffff" data-original="#000000"></path><path d="M0 0a7.528 7.528 0 0 0-7.529-7.528 7.528 7.528 0 1 0 0 15.055A7.528 7.528 0 0 0 0 0" style="fill-opacity:1;fill-rule:nonzero;stroke:none" transform="translate(68.099 209.036)" fill="#ffffff" data-original="#000000"></path><path d="M0 0a7.528 7.528 0 0 0-7.529-7.527 7.527 7.527 0 1 0 0 15.055A7.528 7.528 0 0 0 0 0" style="fill-opacity:1;fill-rule:nonzero;stroke:none" transform="translate(68.099 128.155)" fill="#ffffff" data-original="#000000"></path><path d="M0 0a7.528 7.528 0 0 0-7.529-7.528 7.528 7.528 0 1 0 0 15.055A7.528 7.528 0 0 0 0 0" style="fill-opacity:1;fill-rule:nonzero;stroke:none" transform="translate(68.099 87.716)" fill="#ffffff" data-original="#000000"></path><path d="M0 0a7.529 7.529 0 0 0-15.058 0 7.527 7.527 0 0 0 7.529 7.527A7.528 7.528 0 0 0 0 0" style="fill-opacity:1;fill-rule:nonzero;stroke:none" transform="translate(68.099 47.275)" fill="#ffffff" data-original="#000000"></path><path d="M0 0v-119.15c0-3.353 3.854-5.23 6.495-3.163l25.588 20.035a3.994 3.994 0 0 0 2.48.853c.873 0 1.756-.281 2.479-.853l25.588-20.035c2.64-2.067 6.505-.19 6.505 3.163v83.697" style="stroke-width:15;stroke-linecap:round;stroke-linejoin:round;stroke-miterlimit:10;stroke-dasharray:none;stroke-opacity:1" transform="translate(356.394 288.47)" fill="none" stroke="#ffffff" stroke-width="15" stroke-linecap="round" stroke-linejoin="round" stroke-miterlimit="10" stroke-dasharray="none" stroke-opacity="" data-original="#000000"></path><path d="M0 0c0-12.622-14.099-22.351-18.65-33.327-4.719-11.378-1.808-28.183-10.383-36.758-8.576-8.574-25.383-5.663-36.762-10.381-10.977-4.552-20.708-18.648-33.331-18.648-12.624 0-22.353 14.096-33.331 18.648-11.38 4.719-28.187 1.807-36.763 10.382-8.575 8.574-5.663 25.379-10.382 36.757-4.551 10.976-18.65 20.705-18.65 33.327s14.099 22.351 18.65 33.327c4.719 11.378 1.807 28.183 10.383 36.758 8.576 8.574 25.383 5.663 36.762 10.381 10.978 4.552 20.707 18.648 33.331 18.648 12.624 0 22.354-14.096 33.331-18.648 11.379-4.719 28.187-1.807 36.762-10.382 8.576-8.574 5.664-25.379 10.383-36.757C-14.099 22.351 0 12.622 0 0Z" style="stroke-width:15;stroke-linecap:round;stroke-linejoin:round;stroke-miterlimit:10;stroke-dasharray:none;stroke-opacity:1" transform="translate(490.084 368.462)" fill="none" stroke="#ffffff" stroke-width="15" stroke-linecap="round" stroke-linejoin="round" stroke-miterlimit="10" stroke-dasharray="none" stroke-opacity="" data-original="#000000"></path><path d="m0 0 15.888-23.729c.26-.389.651-.673 1.102-.801l27.48-7.775a1.973 1.973 0 0 0 1.013-3.119l-17.661-22.44a1.98 1.98 0 0 1-.421-1.297l1.096-28.533a1.973 1.973 0 0 0-2.653-1.928L-.958-79.763c-.44.162-.923.162-1.363 0l-26.802-9.859a1.973 1.973 0 0 0-2.653 1.928l1.095 28.533a1.97 1.97 0 0 1-.422 1.297l-17.66 22.44a1.973 1.973 0 0 0 1.014 3.119l27.479 7.775c.452.128.842.412 1.103.801L-3.279 0A1.973 1.973 0 0 0 0 0Z" style="stroke-width:15;stroke-linecap:round;stroke-linejoin:round;stroke-miterlimit:10;stroke-dasharray:none;stroke-opacity:1" transform="translate(392.598 417.384)" fill="none" stroke="#ffffff" stroke-width="15" stroke-linecap="round" stroke-linejoin="round" stroke-miterlimit="10" stroke-dasharray="none" stroke-opacity="" data-original="#000000"></path></g></g></svg>