<svg xmlns="http://www.w3.org/2000/svg" version="1.1" xmlns:xlink="http://www.w3.org/1999/xlink" xmlns:svgjs="http://svgjs.com/svgjs" width="512" height="512" x="0" y="0" viewBox="0 0 512 512" style="enable-background:new 0 0 512 512" xml:space="preserve" class=""><g><path xmlns="http://www.w3.org/2000/svg" d="m358.8 345.13-1.48-80.42c-.82-16.94-2.2-34.36-4.61-52.44-16.48-123.56-69.91-167.41-164.51-167.41s-148 43.85-164.5 167.4c-12.38 92.91 2.3 172.84-18.19 254.88h369.56c-9.95-39.81-15.78-82.57-16.27-122.01z" fill="#f58e71" data-original="#f58e71" class=""></path><path xmlns="http://www.w3.org/2000/svg" d="m230.85 368.89h-85.29c0 42.19-4.42 74.66-10.95 100.22h109c-8.16-19.22-12.76-58.03-12.76-100.22z" fill="#ffffff" data-original="#ffffff"></path><path xmlns="http://www.w3.org/2000/svg" d="m208.66 124.79-10.11-5.79c-3.06 4.13-20.18 22.42-20.18 22.42-24.37 23.12-59.81 45.88-99.25 57.58 2.69 88.48 50.54 156 70.18 172.32 19.4 16.08 29.43 16.68 38.56 16.68h.35c9.13 0 19.16-.63 38.56-16.71 19.63-16.29 73.53-99.99 71.23-198.68-39.39-11.7-64.93-24.7-89.34-47.82z" fill="#ffffff" data-original="#ffffff"></path><path xmlns="http://www.w3.org/2000/svg" d="m430 290.64v-26.75a26 26 0 1 0 -26.93 0v26.74h-41.17l-39.9 5.69-11.8 1.19v15.28l11.8 1.21 39.94 5.39h144.55v-28.75z" fill="#7de9ef" data-original="#7de9ef"></path><g xmlns="http://www.w3.org/2000/svg" fill="#262626"><path d="m90.06 156.45a5.51 5.51 0 0 1 -1.51-10.81c28.67-8.19 56.78-32.14 66.39-49.63a5.51 5.51 0 0 1 9.66 5.31c-10.91 19.86-41.2 45.84-73 54.92a5.52 5.52 0 0 1 -1.54.21z" fill="#262626" data-original="#262626" class=""></path><path d="m89.5 123.16a5.51 5.51 0 0 1 -1.78-10.73c15.3-5.22 26.71-12.86 33.9-22.72a5.51 5.51 0 0 1 8.91 6.49c-8.55 11.73-21.75 20.7-39.25 26.66a5.51 5.51 0 0 1 -1.78.3z" fill="#262626" data-original="#262626" class=""></path><path d="m5.52 472.65a5.52 5.52 0 0 1 -5.35-6.85c11.43-45.8 11.76-90.91 12.11-138.68.27-36.83.54-74.91 6-115.58 8.28-62.1 26.13-105.69 54.58-133.26 27-26.19 64.76-38.92 115.38-38.92s88.36 12.73 115.38 38.92c28.45 27.58 46.3 71.17 54.58 133.26 2.22 16.63 3.74 33.93 4.66 52.91a5.51 5.51 0 1 1 -11 .53c-.9-18.66-2.4-35.67-4.57-52-7.94-59.54-24.73-101-51.33-126.81-25.25-24.42-59.48-35.8-107.76-35.8s-82.5 11.38-107.71 35.82c-26.6 25.81-43.39 67.26-51.32 126.81-5.33 40-5.6 77.72-5.87 114.21-.35 48.45-.68 94.21-12.44 141.27a5.51 5.51 0 0 1 -5.34 4.17z" fill="#262626" data-original="#262626" class=""></path><path d="m375.06 472.65a5.51 5.51 0 0 1 -5.34-4.18c-10.26-41.08-15.95-83.71-16.44-123.28a5.51 5.51 0 0 1 5.44-5.58h.07a5.51 5.51 0 0 1 5.51 5.44c.48 38.73 6.05 80.48 16.11 120.75a5.52 5.52 0 0 1 -5.35 6.85z" fill="#262626" data-original="#262626" class=""></path><path d="m134.61 472.65a5.51 5.51 0 0 1 -5.34-6.9c7.15-27.43 10.77-60 10.77-96.86a5.51 5.51 0 0 1 11 0c0 37.78-3.74 71.3-11.13 99.64a5.51 5.51 0 0 1 -5.3 4.12z" fill="#262626" data-original="#262626" class=""></path><path d="m188.21 393.55c-11.34 0-22.36-1.35-42.42-18-21.47-17.8-69.45-86.93-72.17-176.4a5.51 5.51 0 0 1 3.94-5.45c29.61-8.78 59.79-25 85-45.68 22-18.07 38.11-37.84 43-52.88a5.51 5.51 0 0 1 10.47 3.44c-5.56 16.95-23 38.61-46.53 58-25.14 20.63-55.08 37-84.73 46.46 2.15 45.44 16.31 83 28 106.78 13.84 28.12 30.07 49 40 57.28 18.63 15.44 27.53 15.44 35.39 15.44a5.51 5.51 0 1 1 0 11z" fill="#262626" data-original="#262626" class=""></path><path d="m282.2 279.86a5.51 5.51 0 0 1 -5.24-7.22 264.4 264.4 0 0 0 13.04-73.81c.28-9.34 1.25-29.62 1.26-29.82a5.51 5.51 0 1 1 11 .53c0 .2-1 20.38-1.25 29.62a275.38 275.38 0 0 1 -13.61 76.89 5.51 5.51 0 0 1 -5.2 3.81z" fill="#262626" data-original="#262626" class=""></path><path d="m186.46 393.55a5.51 5.51 0 1 1 0-11c7.85 0 16.76 0 35.38-15.44 7.1-5.89 20-20.83 32.79-43.57a5.51 5.51 0 1 1 9.6 5.42c-13.56 24-27.15 39.84-35.35 46.64-20.06 16.59-31.08 17.95-42.42 17.95z" fill="#262626" data-original="#262626" class=""></path><path d="m296.8 174.78a5.53 5.53 0 0 1 -.79-.06c-36.92-5.33-74.16-25.83-99.61-54.85a5.51 5.51 0 1 1 8.29-7.27c23.77 27.1 58.49 46.24 92.9 51.2a5.51 5.51 0 0 1 -.78 11z" fill="#262626" data-original="#262626" class=""></path><path d="m243.61 472.65a5.51 5.51 0 0 1 -5.06-3.32c-8.27-19.11-13.21-56.66-13.21-100.44a5.51 5.51 0 0 1 11 0c0 41.72 4.71 78.53 12.3 96.06a5.51 5.51 0 0 1 -5.05 7.7z" fill="#262626" data-original="#262626" class=""></path><path d="m321.34 472.65a5.51 5.51 0 0 1 -5.25-3.82c-6.49-20.18-17.61-64.11-18.07-100.77a5.51 5.51 0 0 1 5.44-5.58h.07a5.51 5.51 0 0 1 5.51 5.44c.45 35.34 11.24 77.94 17.54 97.53a5.51 5.51 0 0 1 -5.25 7.2z" fill="#262626" data-original="#262626" class=""></path><path d="m56.13 413.89a5.52 5.52 0 0 1 -5.38-6.74c4.93-21.56 6.84-52.71 5.55-90.08a5.51 5.51 0 1 1 11-.38c1.33 38.31-.68 70.44-5.82 92.92a5.51 5.51 0 0 1 -5.35 4.28z" fill="#262626" data-original="#262626" class=""></path><path d="m95.44 472.65a5.51 5.51 0 0 1 -5.34-6.9c3.07-11.82 5.31-26.53 6.66-43.73a5.51 5.51 0 0 1 11 .86c-1.4 17.84-3.75 33.19-7 45.63a5.51 5.51 0 0 1 -5.32 4.14z" fill="#262626" data-original="#262626" class=""></path><path d="m506.49 325.27h-144.59a5.51 5.51 0 0 1 -5.51-5.51v-28.76a5.51 5.51 0 0 1 5.51-5.51h144.59a5.51 5.51 0 0 1 5.51 5.51v28.72a5.51 5.51 0 0 1 -5.51 5.55zm-139.08-11h133.59v-17.7h-133.59z" fill="#262626" data-original="#262626" class=""></path><path d="m416.5 273.56a31.5 31.5 0 1 1 31.5-31.5 31.54 31.54 0 0 1 -31.5 31.5zm0-52a20.48 20.48 0 1 0 20.5 20.5 20.5 20.5 0 0 0 -20.5-20.48z" fill="#262626" data-original="#262626" class=""></path><path d="m430 296.55h-27a5.51 5.51 0 0 1 -5.51-5.51v-26.74a5.51 5.51 0 1 1 11 0v21.22h15.91v-21.22a5.51 5.51 0 1 1 11 0v26.7a5.51 5.51 0 0 1 -5.4 5.55z" fill="#262626" data-original="#262626" class=""></path><path d="m361.9 325.27a5.61 5.61 0 0 1 -.74 0l-39.84-5.37-11.71-1.18a5.51 5.51 0 0 1 -5-5.48v-15.34a5.51 5.51 0 0 1 5-5.48l11.69-1.18 39.83-5.66a5.51 5.51 0 0 1 1.55 10.91l-39.94 5.68h-.22l-6.84.69v5.31l6.84.69h.18l39.94 5.39a5.51 5.51 0 0 1 -.73 11z" fill="#262626" data-original="#262626" class=""></path><path d="m277.58 311.6h-39.71a33.75 33.75 0 1 1 33.75-33.75 5.51 5.51 0 1 1 -11 0 22.73 22.73 0 1 0 -22.73 22.73h39.71a5.51 5.51 0 0 1 0 11z" fill="#262626" data-original="#262626" class=""></path><path d="m193 352.69a26.06 26.06 0 0 1 0-52.12h53.3a5.51 5.51 0 0 1 0 11h-53.3a15 15 0 1 0 15 15 5.51 5.51 0 0 1 11 0 26.09 26.09 0 0 1 -26 26.12z" fill="#262626" data-original="#262626" class=""></path></g></g></svg>