<svg xmlns="http://www.w3.org/2000/svg" version="1.1" xmlns:xlink="http://www.w3.org/1999/xlink" xmlns:svgjs="http://svgjs.com/svgjs" width="512" height="512" x="0" y="0" viewBox="0 0 96 96" style="enable-background:new 0 0 512 512" xml:space="preserve" class=""><g><g data-name="Tooth Filling"><path fill="#ff526e" d="M90.35 51.53a15.42 15.42 0 0 1-10.69-4.12A18.18 18.18 0 0 0 67 42.34H29a18.18 18.18 0 0 0-12.62 5.07 15.42 15.42 0 0 1-10.73 4.12H1v36.55h94V51.53z" data-original="#ff526e"></path><path fill="#ff98a0" d="M82.13 76.14c-3.59 0-6.14-.18-9.72 1.67l-5 2.59a14.88 14.88 0 0 1-6.86 1.67H36.43a23.06 23.06 0 0 1-9.74-2.15l-7.43-3.45a23.1 23.1 0 0 0-9.74-2.16H1v13.77h94v-6l-5.08-3.5a13.73 13.73 0 0 0-7.79-2.44z" data-original="#ff98a0" class=""></path><path fill="#d22a69" d="M95 51.53v2.83H83.24a6.82 6.82 0 0 0-6.51 4.76c-1.36 4.28-1.61 5.71-3.18 7.58l-7 8.3a5.92 5.92 0 0 1-10-1.46l-2.2-5.1A6.64 6.64 0 0 0 42 69l-1.09 3.35a6.34 6.34 0 0 1-10 3L21 67.52a8.3 8.3 0 0 1-2.49-3.28l-2.07-4.82a6.41 6.41 0 0 0-5.89-3.89H1v-4h4.64a15.44 15.44 0 0 0 10.7-4.12A18.18 18.18 0 0 1 29 42.34h38a18.18 18.18 0 0 1 12.62 5.07 15.44 15.44 0 0 0 10.7 4.12z" data-original="#d22a69" class=""></path><path fill="#ffcfc3" d="M1 82.07h17a20.52 20.52 0 0 1 9.23 2.19l7.58 3.82H1z" data-original="#ffcfc3" class=""></path><path fill="#d22a69" d="m11.52 61.53 1.39 2.29a1.12 1.12 0 0 1-.24 1.45l-.7.57a2.29 2.29 0 0 1-3.43-.58L6.55 62a1.11 1.11 0 0 1 .85-1.69l1.38-.13a2.88 2.88 0 0 1 2.74 1.35z" data-original="#d22a69" class=""></path><path fill="#ffcfc3" d="M51.19 88.08c5-2.18 6.38-3 9-3 5 0 8.11.39 12.08-2 3.73-2.22 5-3.31 7.63-3.31 6.43 0 4.36-.58 15.11 6v2.3z" data-original="#ffcfc3" class=""></path><path fill="#ff98a0" d="M95 77.48c-1.67-1.52-2.59-2.66-4.52-2.94l-2.7-.41a1.13 1.13 0 0 1-.9-1.49 2.18 2.18 0 0 1 2-1.62l2.61-.09A5.08 5.08 0 0 1 95 72.16z" data-original="#ff98a0" class=""></path><path fill="#d22a69" d="m45.44 72 .2-.49a2.06 2.06 0 0 1 2.09-1.26l2 .19a1.07 1.07 0 0 1 .95 1.26l-.12.6a1.06 1.06 0 0 1-.94.87l-3.07.3A1.06 1.06 0 0 1 45.44 72z" data-original="#d22a69" class=""></path><path fill="#ff526e" d="M24.67 50.53a1 1 0 0 1-1 1h-18a16 16 0 0 0 7.84-2h10.16a1 1 0 0 1 1 1z" data-original="#ff526e"></path><path fill="#ffcfc3" d="M11.73 80.68H5.3a1 1 0 1 1 0-2h6.43a1 1 0 1 1 0 2z" data-original="#ffcfc3" class=""></path><path fill="#ff98a0" d="M83.72 85.39h-4.94a1 1 0 0 1 0-2h4.94a1 1 0 0 1 0 2z" data-original="#ff98a0" class=""></path><path fill="#e6ecf2" d="M71.1 45.47a28.23 28.23 0 0 0-2.45 3.72 9.11 9.11 0 0 0-1 6.58 25.75 25.75 0 0 1 .72 5 22 22 0 0 1-5.46 14.6 2.11 2.11 0 0 1-1.59.69 2.13 2.13 0 0 1-2-2.82 16.11 16.11 0 0 0 .81-5.06c0-5.21-5.49-10.7-9.1-13.75a4.68 4.68 0 0 0-6.19 0c-3.62 3-9.1 8.54-9.1 13.75a15.83 15.83 0 0 0 .82 5.06 2.06 2.06 0 0 1 .11.68 2.15 2.15 0 0 1-3.73 1.45 22 22 0 0 1-5.47-14.6 25.09 25.09 0 0 1 .65-4.77A9.22 9.22 0 0 0 27 49.19c-1.12-1.81-2.35-3.72-3.19-4.95a15.54 15.54 0 0 1 7.7-23.37A1.63 1.63 0 0 1 33.58 22l1.68 6.56a4 4 0 0 0 3.85 3h16.51a4 4 0 0 0 3.85-3l1.76-6.84a1.61 1.61 0 0 1 2.06-1.14C68.13 22.23 73 26.22 74.3 32a15.5 15.5 0 0 1-3.2 13.47zM59.38 8.17l-1.67 6.48a4.17 4.17 0 0 1-4.05 3.14H41.09A4.19 4.19 0 0 1 37 14.65L35.42 8.4a13.12 13.12 0 0 1 7.95.67 11.82 11.82 0 0 0 9.28-.16 10.75 10.75 0 0 1 6.73-.74z" data-original="#e6ecf2" class=""></path><path fill="#c3cef2" d="m60.21 25.7-.74 2.88a4 4 0 0 1-3.85 3H39.11a4 4 0 0 1-3.85-3l-.73-2.85a28.78 28.78 0 0 1 25.68-.03z" data-original="#c3cef2"></path><path fill="#cdd8e3" d="M49.12 47.62c2.91.58 4.49.65 6 2.24l3.1 3.2a2.06 2.06 0 0 0 3.15-2.63l-2.06-2.9a4.83 4.83 0 0 0-3.78-2l-4.8-.14a2.41 2.41 0 0 0-2.13 1.18.72.72 0 0 0 .52 1.05z" data-original="#cdd8e3"></path><path fill="#cdd8e3" d="M68.36 60.77a21.94 21.94 0 0 1-5.46 14.58 2.1 2.1 0 0 1-1.59.7 2.13 2.13 0 0 1-2-2.82 16.11 16.11 0 0 0 .81-5.06c0-5.08-5.22-10.49-9.1-13.75a4.68 4.68 0 0 0-6.19 0c-3.89 3.29-9.08 8.68-9.08 13.75a16.11 16.11 0 0 0 .81 5.06 2.13 2.13 0 0 1-2 2.82 2.06 2.06 0 0 1-1.59-.7 21.6 21.6 0 0 1-5.34-16.26c0-.34.36-2.24.55-3.09A9.22 9.22 0 0 0 27 49.2c-1.12-1.81-2.35-3.72-3.18-5a15.52 15.52 0 0 1 .52-18.14l1 4.18c.73 3.07 2.72 4.24 4.39 5.43a13.79 13.79 0 0 1 5.09 7l1.7 5.36a5 5 0 0 0 6.07 3.28l2.53-.71a6.6 6.6 0 0 1 5.3.77l9.26 5.86a6.15 6.15 0 0 0 5 .73l3.27-.92a19.8 19.8 0 0 1 .41 3.73z" data-original="#cdd8e3"></path><g fill="#b4bfd9"><path d="M40.88 58.16c-2.7 2.92-5.15 6.52-5.15 10a16.11 16.11 0 0 0 .81 5.06 2.13 2.13 0 0 1-2 2.82 2.08 2.08 0 0 1-1.58-.7 21.6 21.6 0 0 1-5.34-16.26l1.17 5.07A2.94 2.94 0 0 0 34 65.31c2.48-3.24.85-1.54 6.88-7.15zM68.35 61.5a21.91 21.91 0 0 1-5.45 13.85 2.1 2.1 0 0 1-1.59.7 2.13 2.13 0 0 1-2-2.82 16.11 16.11 0 0 0 .81-5.06c0-3.18-2-6.45-4.44-9.21l3.14 2.4a3.81 3.81 0 0 1 1.26 1.77L61.37 67a1.82 1.82 0 0 0 1.72 1.23h1.63a1.83 1.83 0 0 0 1.54-.85c1.32-2.08.85-.89 2.09-5.88z" fill="#b4bfd9" data-original="#b4bfd9" class=""></path></g></g></g></svg>