<svg xmlns="http://www.w3.org/2000/svg" version="1.1" xmlns:xlink="http://www.w3.org/1999/xlink" xmlns:svgjs="http://svgjs.com/svgjs" width="512" height="512" x="0" y="0" viewBox="0 0 64 64" style="enable-background:new 0 0 512 512" xml:space="preserve" class=""><g><g xmlns="http://www.w3.org/2000/svg"><g><g><path d="m30.5 42.5-1.17 3.5h-1.33c-.45 0-.86.15-1.2.4l-1.3-3.9 2.5-2.5z" fill="#ffeaa7" data-original="#ffeaa7"></path></g><g><path d="m31.93 38.19v.01l-1.43 4.3-2.5-2.5 2.77-2.77c.24.46.66.8 1.16.96z" fill="#fcd770" data-original="#fcd770"></path></g><g><path d="m28 40-2.5 2.5-1.43-4.3v-.01c.5-.16.92-.5 1.16-.96z" fill="#fcd770" data-original="#fcd770"></path></g><g><path d="m40 46c-1.1 0-2 .9-2 2 0-1.1-.9-2-2-2h-6.67l1.17-3.5 1.43-4.3v-.01c.06.03.12.05.18.06l3.98.7c3.42.61 5.91 3.58 5.91 7.05z" fill="#5cd6b3" data-original="#5cd6b3"></path></g><g><path d="m30.64 36.93c.04.11.08.21.13.3l-2.77 2.77-2.77-2.77c.05-.09.09-.19.13-.3l.41-1.24v-.01c.71.21 1.46.32 2.23.32l2.23-.32v.01z" fill="#f0d0b4" data-original="#f0d0b4"></path></g><g><path d="m25.5 42.5 1.3 3.9c-.48.37-.8.95-.8 1.6 0-1.1-.9-2-2-2h-8c-1.03 0-1.89.79-1.99 1.8.09-4.54 3.38-8.4 7.87-9.2l2.01-.35c.06-.01.12-.03.18-.06v.01z" fill="#5cd6b3" data-original="#5cd6b3"></path></g><g><path d="m48 31v7c-.55 0-1.05.22-1.41.59-.37.36-.59.86-.59 1.41 0-.55-.22-1.05-.59-1.41-.36-.37-.86-.59-1.41-.59v-7c0-.55.45-1 1-1h1 1c.55 0 1 .45 1 1z" fill="#aab2bd" data-original="#aab2bd"></path></g><g><path d="m12 34v4c-.55 0-1.05.22-1.41.59-.37.36-.59.86-.59 1.41 0-.55-.22-1.05-.59-1.41-.36-.37-.86-.59-1.41-.59v-4h2z" fill="#aab2bd" data-original="#aab2bd"></path></g><g><path d="m13 28h-6c-.55 0-1 .45-1 1v4c0 .55.45 1 1 1h6c.55 0 1-.45 1-1v-4c0-.55-.45-1-1-1z" fill="#fcd770" data-original="#fcd770"></path></g><g><path d="m14 40v8c0-1.1-.9-2-2-2h-6v-4h2c1.1 0 2-.9 2-2 0-.55.22-1.05.59-1.41.36-.37.86-.59 1.41-.59 1.1 0 2 .9 2 2z" fill="#f0d0b4" data-original="#f0d0b4"></path></g><g><path d="m9.41 38.59c.37.36.59.86.59 1.41 0 1.1-.9 2-2 2h-2c-.55 0-1.05-.22-1.41-.59-.37-.36-.59-.86-.59-1.41 0-1.1.9-2 2-2h2c.55 0 1.05.22 1.41.59z" fill="#f0d0b4" data-original="#f0d0b4"></path></g><g><path d="m48 38h2c1.1 0 2 .9 2 2 0 .55-.22 1.05-.59 1.41-.36.37-.86.59-1.41.59h-2c-1.1 0-2-.9-2-2 0-.55.22-1.05.59-1.41.36-.37.86-.59 1.41-.59z" fill="#f0d0b4" data-original="#f0d0b4"></path></g><g><path d="m50 42v6c0-1.1-.9-2-2-2h-6v-6c0-1.1.9-2 2-2 .55 0 1.05.22 1.41.59.37.36.59.86.59 1.41 0 1.1.9 2 2 2z" fill="#f0d0b4" data-original="#f0d0b4"></path></g><g><path d="m38 22c1.1 0 2 .9 2 2 0 .55-.22 1.05-.59 1.41-.36.37-.86.59-1.41.59h-2v-4z" fill="#f0d0b4" data-original="#f0d0b4"></path></g><g><path d="m36 26v2h-8-8v-2-4-1.17c0-.53.21-1.04.59-1.42l1.41-1.41h2c1.1 0 2-.9 2-2 0 1.1.9 2 2 2h6l1.41 1.41c.38.38.59.89.59 1.42v1.17z" fill="#f0d0b4" data-original="#f0d0b4"></path></g><g><path d="m20 22v4h-2c-.55 0-1.05-.22-1.41-.59-.37-.36-.59-.86-.59-1.41 0-1.1.9-2 2-2z" fill="#f0d0b4" data-original="#f0d0b4"></path></g><g><path d="m38.87 17.65-.87 4.35h-2v-1.17c0-.53-.21-1.04-.59-1.42l-1.41-1.41h2c1.1 0 2-.9 2-2 0 .68.35 1.29.87 1.65z" fill="#656d78" data-original="#656d78"></path></g><g><path d="m17 18h5l-1.41 1.41c-.38.38-.59.89-.59 1.42v1.17h-2z" fill="#656d78" data-original="#656d78"></path></g><g><path d="m28 28h8c0 2.21-.9 4.21-2.34 5.66-.94.94-2.12 1.64-3.43 2.02l-2.23.32c-.77 0-1.52-.11-2.23-.32-3.33-.96-5.77-4.03-5.77-7.68z" fill="#5cd6b3" data-original="#5cd6b3"></path></g><g><path d="m62 50v5c0 3.87-3.13 7-7 7h-46c-3.87 0-7-3.13-7-7v-5c0 3.31 2.69 6 6 6 1.66 0 3.16-.67 4.24-1.76 1.09-1.08 1.76-2.58 1.76-4.24 0 3.31 2.69 6 6 6 1.66 0 3.16-.67 4.24-1.76 1.09-1.08 1.76-2.58 1.76-4.24 0 3.31 2.69 6 6 6 1.66 0 3.16-.67 4.24-1.76 1.09-1.08 1.76-2.58 1.76-4.24 0 3.31 2.69 6 6 6 1.66 0 3.16-.67 4.24-1.76 1.09-1.08 1.76-2.58 1.76-4.24 0 3.31 2.69 6 6 6 1.66 0 3.16-.67 4.24-1.76 1.09-1.08 1.76-2.58 1.76-4.24z" fill="#ef7385" data-original="#ef7385"></path></g><g><path d="m62 9v5c0-1.66-.67-3.16-1.76-4.24-1.08-1.09-2.58-1.76-4.24-1.76-3.31 0-6 2.69-6 6 0-1.66-.67-3.16-1.76-4.24-1.08-1.09-2.58-1.76-4.24-1.76-3.31 0-6 2.69-6 6 0-1.66-.67-3.16-1.76-4.24-1.08-1.09-2.58-1.76-4.24-1.76-3.31 0-6 2.69-6 6 0-1.66-.67-3.16-1.76-4.24-1.08-1.09-2.58-1.76-4.24-1.76-3.31 0-6 2.69-6 6 0-1.66-.67-3.16-1.76-4.24-1.08-1.09-2.58-1.76-4.24-1.76-3.31 0-6 2.69-6 6v-5c0-3.87 3.13-7 7-7h46c3.87 0 7 3.13 7 7z" fill="#ef7385" data-original="#ef7385"></path></g><g><path d="m14 48v2c0 1.66-.67 3.16-1.76 4.24-1.08 1.09-2.58 1.76-4.24 1.76-3.31 0-6-2.69-6-6v-2c0-1.1.9-2 2-2h2 6c1.1 0 2 .9 2 2z" fill="#e6e9ed" data-original="#e6e9ed"></path></g><g><path d="m26 48v2c0 1.66-.67 3.16-1.76 4.24-1.08 1.09-2.58 1.76-4.24 1.76-3.31 0-6-2.69-6-6v-2c0-.07 0-.13.01-.2.1-1.01.96-1.8 1.99-1.8h8c1.1 0 2 .9 2 2z" fill="#e6e9ed" data-original="#e6e9ed"></path></g><g><path d="m38 48v2c0 1.66-.67 3.16-1.76 4.24-1.08 1.09-2.58 1.76-4.24 1.76-3.31 0-6-2.69-6-6v-2c0-.65.32-1.23.8-1.6.34-.25.75-.4 1.2-.4h1.33 6.67c1.1 0 2 .9 2 2z" fill="#e6e9ed" data-original="#e6e9ed"></path></g><g><path d="m50 50c0 1.66-.67 3.16-1.76 4.24-1.08 1.09-2.58 1.76-4.24 1.76-3.31 0-6-2.69-6-6v-2c0-1.1.9-2 2-2h2 6c1.1 0 2 .9 2 2z" fill="#e6e9ed" data-original="#e6e9ed"></path></g><g><path d="m62 48v2c0 1.66-.67 3.16-1.76 4.24-1.08 1.09-2.58 1.76-4.24 1.76-3.31 0-6-2.69-6-6v-2c0-1.1.9-2 2-2h8c1.1 0 2 .9 2 2z" fill="#e6e9ed" data-original="#e6e9ed"></path></g><g><path d="m62 14v2c0 1.1-.9 2-2 2h-8c-1.1 0-2-.9-2-2v-2c0-3.31 2.69-6 6-6 1.66 0 3.16.67 4.24 1.76 1.09 1.08 1.76 2.58 1.76 4.24z" fill="#e6e9ed" data-original="#e6e9ed"></path></g><g><path d="m50 14v2c0 1.1-.9 2-2 2h-8c-.42 0-.81-.13-1.13-.35-.52-.36-.87-.97-.87-1.65v-2c0-3.31 2.69-6 6-6 1.66 0 3.16.67 4.24 1.76 1.09 1.08 1.76 2.58 1.76 4.24z" fill="#e6e9ed" data-original="#e6e9ed"></path></g><g><path d="m38 14v2c0 1.1-.9 2-2 2h-2-6c-1.1 0-2-.9-2-2v-2c0-3.31 2.69-6 6-6 1.66 0 3.16.67 4.24 1.76 1.09 1.08 1.76 2.58 1.76 4.24z" fill="#e6e9ed" data-original="#e6e9ed"></path></g><g><path d="m26 14v2c0 1.1-.9 2-2 2h-2-5-1c-1.1 0-2-.9-2-2v-2c0-3.31 2.69-6 6-6 1.66 0 3.16.67 4.24 1.76 1.09 1.08 1.76 2.58 1.76 4.24z" fill="#e6e9ed" data-original="#e6e9ed"></path></g><g><path d="m14 14v2c0 1.1-.9 2-2 2h-8c-1.1 0-2-.9-2-2v-2c0-3.31 2.69-6 6-6 1.66 0 3.16.67 4.24 1.76 1.09 1.08 1.76 2.58 1.76 4.24z" fill="#e6e9ed" data-original="#e6e9ed"></path></g></g><g><circle cx="24" cy="24" r="1" fill="#000000" data-original="#000000" class=""></circle><circle cx="32" cy="24" r="1" fill="#000000" data-original="#000000" class=""></circle><path d="m55 1h-46c-4.411 0-8 3.589-8 8v5 2c0 1.654 1.346 3 3 3h8c.771 0 1.468-.301 2-.78.532.48 1.229.78 2 .78h.22l.566 2.262c-1.05.468-1.786 1.517-1.786 2.738 0 1.654 1.346 3 3 3h1v1c0 3.727 2.278 6.932 5.514 8.297l-.104.312c-.111.332-.393.585-.69.653l-2.018.357c-2.785.494-5.144 2.05-6.702 4.205v-1.824c0-1.302-.839-2.402-2-2.816v-2.184c1.103 0 2-.897 2-2v-1h2v-2h-2v-1c0-1.103-.897-2-2-2h-6c-1.103 0-2 .897-2 2v4c0 1.103.897 2 2 2v2h-1c-1.654 0-3 1.346-3 3 0 1.302.839 2.402 2 2.816v2.184h-1c-1.654 0-3 1.346-3 3v2 5c0 4.411 3.589 8 8 8h46c4.411 0 8-3.589 8-8v-5-2c0-1.654-1.346-3-3-3h-8c-.352 0-.686.072-1 .184v-2.369c1.161-.414 2-1.514 2-2.816 0-1.654-1.346-3-3-3h-1v-6c0-1.103-.897-2-2-2v-2.171c1.164-.413 2-1.525 2-2.829 0-1.654-1.346-3-3-3h-3v2h3c.552 0 1 .449 1 1s-.448 1-1 1h-1v4c-1.103 0-2 .897-2 2v6.184c-1.161.414-2 1.514-2 2.816v.652c-1.189-1.369-2.833-2.347-4.733-2.685l-3.943-.697c-.341-.077-.622-.33-.732-.661l-.104-.313c3.235-1.364 5.512-4.568 5.512-8.295v-1h1c1.654 0 3-1.346 3-3 0-1.239-.755-2.304-1.828-2.761l.455-2.277c.124.016.245.038.373.038h8c.771 0 1.468-.301 2-.78.532.48 1.229.78 2 .78h8c1.654 0 3-1.346 3-3v-2-5c0-4.411-3.589-8-8-8zm-43 16h-8c-.552 0-1-.449-1-1v-2c0-2.757 2.243-5 5-5s5 2.243 5 5v2c0 .551-.448 1-1 1zm3-1v-2c0-2.757 2.243-5 5-5s5 2.243 5 5v2c0 .551-.448 1-1 1h-8c-.552 0-1-.449-1-1zm22 5v-.171c0-.688-.242-1.333-.666-1.862.495-.056.958-.218 1.35-.486l-.504 2.519zm0-5c0 .551-.448 1-1 1h-8c-.552 0-1-.449-1-1v-2c0-2.757 2.243-5 5-5s5 2.243 5 5zm-9 3h5.586l1.121 1.121c.189.189.293.441.293.708v6.171h-6v-2h-2v2h-6v-6.171c0-.267.104-.519.293-.708l1.121-1.121h1.586c.771 0 1.468-.301 2-.78.532.479 1.229.78 2 .78zm-8.362 0c-.406.523-.638 1.156-.638 1.829v.171h-.22l-.5-2zm-1.638 6c-.552 0-1-.449-1-1s.448-1 1-1h1v2zm19 25c0 2.757-2.243 5-5 5s-5-2.243-5-5v-2c0-.552.448-1 1-1h8c.552 0 1 .448 1 1zm-22-2c0-.552.448-1 1-1h8c.552 0 1 .448 1 1v2c0 2.757-2.243 5-5 5s-5-2.243-5-5zm11.586-8-.649.649-.649-1.947zm1.414 5c-.203 0-.401.021-.593.06l-.763-2.29 1.356-1.356 1.356 1.356-.743 2.23zm1.414-5 1.298-1.298-.649 1.947zm.15-3.145.042.126-1.606 1.605-1.605-1.605.042-.126c.508.089 1.029.145 1.563.145s1.055-.056 1.564-.145zm-7.512 2.733 1.344-.239 2.004 6.014c-.42-.224-.892-.363-1.4-.363h-8c-.163 0-.32.023-.476.048 1.023-2.785 3.459-4.916 6.528-5.46zm-9.05-6.588h-2.002v-4h2zm-6.002-4h2v4h-2zm4 6v2.184c-.374.133-.711.336-1 .596-.289-.261-.626-.463-1-.596v-2.184zm-5 4h2c.552 0 1 .448 1 1s-.448 1-1 1h-2c-.552 0-1-.448-1-1s.448-1 1-1zm1 4h1c.727 0 1.385-.27 1.905-.702.034.037.059.08.095.116l.293.293 1.414-1.414-.293-.293c-.267-.268-.414-.622-.414-1 0-.552.448-1 1-1s1 .448 1 1v5.184c-.314-.112-.648-.184-1-.184h-5zm-4 5c0-.552.448-1 1-1h8c.552 0 1 .448 1 1v2c0 2.757-2.243 5-5 5s-5-2.243-5-5zm58 7c0 3.309-2.691 6-6 6h-46c-3.309 0-6-2.691-6-6v-.111c1.272 1.301 3.042 2.111 5 2.111 2.548 0 4.775-1.373 6-3.413 1.225 2.04 3.452 3.413 6 3.413s4.775-1.373 6-3.413c1.225 2.04 3.452 3.413 6 3.413s4.775-1.373 6-3.413c1.225 2.04 3.452 3.413 6 3.413s4.775-1.373 6-3.413c1.225 2.04 3.452 3.413 6 3.413 1.958 0 3.728-.81 5-2.111zm-22-7c0-.552.448-1 1-1h8c.552 0 1 .448 1 1v2c0 2.757-2.243 5-5 5s-5-2.243-5-5zm13-1h8c.552 0 1 .448 1 1v2c0 2.757-2.243 5-5 5s-5-2.243-5-5v-2c0-.552.448-1 1-1zm-1-7c0 .552-.448 1-1 1h-2c-.552 0-1-.448-1-1s.448-1 1-1h2c.552 0 1 .448 1 1zm-4-9v6.184c-.374.133-.711.336-1 .596-.289-.261-.626-.463-1-.596v-6.184zm-3 8c.552 0 1 .448 1 1 0 .378-.147.732-.414 1l-.293.293 1.414 1.414.293-.293c.036-.036.061-.079.095-.116.52.432 1.178.702 1.905.702h1v2.184c-.314-.112-.648-.184-1-.184h-5v-5c0-.552.448-1 1-1zm-3.089 6h-.911c-.771 0-1.468.301-2 .78-.532-.48-1.229-.78-2-.78h-5.28l1.884-5.65 3.313.587c2.61.462 4.578 2.52 4.994 5.063zm-12.911-10c-3.519 0-6.432-2.613-6.92-6h13.84c-.488 3.387-3.401 6-6.92 6zm10-10h-1v-2h1c.552 0 1 .449 1 1s-.448 1-1 1zm10-8h-8c-.552 0-1-.449-1-1v-2c0-2.757 2.243-5 5-5s5 2.243 5 5v2c0 .551-.448 1-1 1zm13-1c0 .551-.448 1-1 1h-8c-.552 0-1-.449-1-1v-2c0-2.757 2.243-5 5-5s5 2.243 5 5zm-5-9c-2.548 0-4.775 1.373-6 3.413-1.225-2.04-3.452-3.413-6-3.413s-4.775 1.373-6 3.413c-1.225-2.04-3.452-3.413-6-3.413s-4.775 1.373-6 3.413c-1.225-2.04-3.452-3.413-6-3.413s-4.775 1.373-6 3.413c-1.225-2.04-3.452-3.413-6-3.413-1.958 0-3.728.81-5 2.111v-.111c0-3.309 2.691-6 6-6h46c3.309 0 6 2.691 6 6v.111c-1.272-1.301-3.042-2.111-5-2.111z" fill="#000000" data-original="#000000" class=""></path><path d="m5.586 12-.293.293 1.414 1.414.293-.292c.535-.535 1.465-.535 2 0l.293.293 1.414-1.414-.293-.294c-1.291-1.29-3.537-1.29-4.828 0z" fill="#000000" data-original="#000000" class=""></path><path d="m17.586 12-.293.293 1.414 1.414.293-.292c.535-.535 1.465-.535 2 0l.293.293 1.414-1.414-.293-.294c-1.291-1.29-3.537-1.29-4.828 0z" fill="#000000" data-original="#000000" class=""></path><path d="m29.586 12-.293.293 1.414 1.414.293-.292c.535-.535 1.465-.535 2 0l.293.293 1.414-1.414-.293-.294c-1.291-1.29-3.537-1.29-4.828 0z" fill="#000000" data-original="#000000" class=""></path><path d="m41.586 12-.293.293 1.414 1.414.293-.292c.535-.535 1.465-.535 2 0l.293.293 1.414-1.414-.293-.294c-1.291-1.29-3.537-1.29-4.828 0z" fill="#000000" data-original="#000000" class=""></path><path d="m53.586 12-.293.293 1.414 1.414.293-.292c.535-.535 1.465-.535 2 0l.293.293 1.414-1.414-.293-.294c-1.291-1.29-3.537-1.29-4.828 0z" fill="#000000" data-original="#000000" class=""></path><path d="m8 53c.912 0 1.77-.355 2.414-1l.293-.293-1.414-1.414-.293.293c-.535.533-1.465.533-2 0l-.293-.293-1.414 1.414.293.293c.644.645 1.502 1 2.414 1z" fill="#000000" data-original="#000000" class=""></path><path d="m20 53c.912 0 1.77-.355 2.414-1l.293-.293-1.414-1.414-.293.293c-.535.533-1.465.533-2 0l-.293-.293-1.414 1.414.293.293c.644.645 1.502 1 2.414 1z" fill="#000000" data-original="#000000" class=""></path><path d="m33 50.586c-.535.533-1.465.533-2 0l-.293-.293-1.414 1.414.293.293c.645.645 1.502 1 2.414 1s1.77-.355 2.414-1l.293-.293-1.414-1.414z" fill="#000000" data-original="#000000" class=""></path><path d="m44 53c.912 0 1.77-.355 2.414-1l.293-.293-1.414-1.414-.293.293c-.535.533-1.465.533-2 0l-.293-.293-1.414 1.414.293.293c.644.645 1.502 1 2.414 1z" fill="#000000" data-original="#000000" class=""></path><path d="m56 53c.912 0 1.77-.355 2.414-1l.293-.293-1.414-1.414-.293.293c-.535.533-1.465.533-2 0l-.293-.293-1.414 1.414.293.293c.644.645 1.502 1 2.414 1z" fill="#000000" data-original="#000000" class=""></path></g></g></g></svg>