<svg xmlns="http://www.w3.org/2000/svg" version="1.1" xmlns:xlink="http://www.w3.org/1999/xlink" xmlns:svgjs="http://svgjs.com/svgjs" width="512" height="512" x="0" y="0" viewBox="0 0 512 512" style="enable-background:new 0 0 512 512" xml:space="preserve" class=""><g><path d="M307.292 124.75c0-34.075-27.656-61.791-61.652-61.791s-61.655 27.716-61.655 61.791c0 33.999 27.66 61.655 61.655 61.655s61.652-27.655 61.652-61.655zm-107.932 0c0-25.592 20.761-46.416 46.281-46.416 25.516 0 46.277 20.825 46.277 46.416 0 25.516-20.761 46.281-46.277 46.281-25.521 0-46.281-20.764-46.281-46.281z" fill="#ff48a4" data-original="#000000" class=""></path><path d="M101.197 95.263a14.307 14.307 0 0 0 12.552-7.432 14.33 14.33 0 0 0-.495-14.594L77.212 16.881a14.243 14.243 0 0 0-12.056-6.599h-.011c-4.91 0-9.414 2.477-12.053 6.614l-35.97 56.363A14.309 14.309 0 0 0 29.19 95.262h7.173v118.687c0 25.014 20.348 45.365 45.361 45.365h90.944v211.917c0 16.808 13.678 30.486 30.494 30.486h87.333c16.812 0 30.49-13.678 30.49-30.486V259.314h91.154v7.357a14.304 14.304 0 0 0 7.439 12.552 14.305 14.305 0 0 0 14.582-.495l56.359-36.041a14.244 14.244 0 0 0 6.602-12.056c0-4.91-2.47-9.421-6.61-12.064L434.15 182.6a14.31 14.31 0 0 0-22.011 12.064v7.77H289.722a7.699 7.699 0 0 0-6.482 3.551l-36.413 57.106-36.409-57.106a7.699 7.699 0 0 0-6.482-3.551H93.045V95.263zm-15.84 122.545H199.72l40.624 63.712c2.819 4.414 10.138 4.414 12.965 0l40.628-63.712h125.89a7.685 7.685 0 0 0 7.687-7.687V196.6l53.323 34.029-53.323 34.097v-13.1a7.685 7.685 0 0 0-7.687-7.687H313.298a7.685 7.685 0 0 0-7.687 7.687V471.23c0 8.333-6.783 15.112-15.115 15.112h-36v-95.715c0-4.249-3.442-7.687-7.687-7.687s-7.687 3.438-7.687 7.687v95.715h-35.959c-8.337 0-15.119-6.779-15.119-15.112V251.627a7.685 7.685 0 0 0-7.687-7.687H81.724c-16.534 0-29.987-13.453-29.987-29.991V87.575a7.685 7.685 0 0 0-7.687-7.687H31.126l34.029-53.323 34.101 53.323H85.357a7.685 7.685 0 0 0-7.687 7.687V210.12a7.685 7.685 0 0 0 7.687 7.688z" fill="#ff48a4" data-original="#000000" class=""></path></g></svg>