<svg xmlns="http://www.w3.org/2000/svg" version="1.1" xmlns:xlink="http://www.w3.org/1999/xlink" xmlns:svgjs="http://svgjs.com/svgjs" width="512" height="512" x="0" y="0" viewBox="0 0 128 128" style="enable-background:new 0 0 512 512" xml:space="preserve" class=""><g><path fill="#ff6687" d="M125.5 68.83v46.86a10.008 10.008 0 0 1-10.01 10.01H12.55a10.008 10.008 0 0 1-10.01-10.01V68.83a8.5 8.5 0 0 1 6.18-8.15A46.8 46.8 0 0 1 22 59.15c1.07.01 2.15.05 3.24.11a111.061 111.061 0 0 1 23.02 4.01 61.715 61.715 0 0 0 9.69 1.52 19.494 19.494 0 0 0 16.01-5.88 18.246 18.246 0 0 0 1.97-2.47c.02-.04.05-.08.07-.12a12.043 12.043 0 0 1 3.31-3.39 12.851 12.851 0 0 1 1.84-1.03 13.745 13.745 0 0 1 3.29-1.02c.26-.05.53-.09.79-.13.44-.06.88-.1 1.31-.12.35-.02.69-.03 1.03-.03a19.68 19.68 0 0 1 3.18.26c.2.03.4.07.59.11s.39.09.58.15a11.118 11.118 0 0 1 3.61 1.85 19.729 19.729 0 0 1 2.71 2.45c3.11 3.28 8.12 3.62 11.03 3.77a44.621 44.621 0 0 1 10.27 1.56 8.407 8.407 0 0 1 5.96 8.08z" data-original="#ff6687" class=""></path><path fill="#dd366a" d="M75.93 56.44a18.246 18.246 0 0 1-1.97 2.47 19.494 19.494 0 0 1-16.01 5.88 61.715 61.715 0 0 1-9.69-1.52 111.061 111.061 0 0 0-23.02-4.01c-1.09-.06-2.17-.1-3.24-.11 0 0 3.43 8.28 5.57 12.11 1.87 3.32 2.81 7.91 3.63 11.96 1.39 6.79 2.82 13.81 9.12 13.81a8.371 8.371 0 0 0 1.31-.11c4.93-.83 5.65-7.78 6.5-15.83a79.125 79.125 0 0 1 1.213-8.613.2.2 0 0 1 .392 0 80.942 80.942 0 0 1 1.2 8.6c.84 8.06 1.57 15.01 6.5 15.84a8.371 8.371 0 0 0 1.31.11c6.3 0 7.73-7.02 9.12-13.81.82-4.05 1.76-8.64 3.62-11.96C73.7 67.34 75.95 56.4 75.93 56.44z" data-original="#dd366a" class=""></path><g fill="#8052ff"><path d="M83.62 46.867a1.5 1.5 0 0 1-1.2-2.391c.092-.132.576-.867.118-1.236-.9-.727-2.781-2.239-1.36-5.05a1.5 1.5 0 0 1 2.678 1.353c-.326.644-.326.644.564 1.36 2.01 1.619 1.348 4.09.412 5.356a1.5 1.5 0 0 1-1.212.608zM97.855 48.616a1.5 1.5 0 0 1-.5-2.915c.151-.057.963-.4.791-.957-.341-1.108-1.05-3.413 1.7-4.945a1.5 1.5 0 1 1 1.459 2.621c-.631.351-.631.351-.3 1.442.758 2.469-1.175 4.144-2.659 4.668a1.5 1.5 0 0 1-.491.086zM90.654 47.406a1.5 1.5 0 0 1-.863-2.728c.323-.233 1.928-1.5 1.012-2.922-.99-1.542-2.646-4.122.367-7.106a1.5 1.5 0 1 1 2.111 2.132c-1.119 1.108-1.113 1.547.047 3.353 2 3.122-.31 5.944-1.814 7a1.493 1.493 0 0 1-.86.271z" fill="#8052ff" data-original="#8052ff"></path></g><path fill="#dd366a" d="M98.24 55.42c-7.64 5.26-15.73 1.71-17.09-3.52a13.745 13.745 0 0 1 3.29-1.02c.26-.05.53-.09.79-.13.44-.06.88-.1 1.31-.12.35-.02.69-.03 1.03-.03a19.68 19.68 0 0 1 3.18.26c.2.03.4.07.59.11s.39.09.58.15a11.118 11.118 0 0 1 3.61 1.85 19.729 19.729 0 0 1 2.71 2.45z" data-original="#dd366a" class=""></path><path fill="#ffb45a" d="M95.53 52.97c-4.77 3.17-10.11 1.14-11.09-2.09.26-.05.53-.09.79-.13.51-.07 1.02-.11 1.51-.13.28-.01.56-.02.83-.02a19.68 19.68 0 0 1 3.18.26 9.4 9.4 0 0 1 1.17.26 11.118 11.118 0 0 1 3.61 1.85z" data-original="#ffb45a"></path><path fill="#ebecff" d="M68.88 69.79c-5.28 9.38-3.44 25.44-10.94 24.17-5.48-.92-2.54-26.52-8.4-26.52s-2.93 25.6-8.41 26.52c-7.5 1.27-5.66-14.79-10.94-24.17s-10.6-22.67-5.28-31.81c4.06-6.96 13.67-7.26 20.02-4.14.22.11.45.21.68.3a10.484 10.484 0 0 0 8.53-.3c6.35-3.12 15.96-2.82 20.02 4.14 5.32 9.14 0 22.43-5.28 31.81z" data-original="#ebecff" class=""></path><path fill="#b8bef2" d="M53.01 38.31a1.5 1.5 0 0 1-1.49 1.35h-.15c-2.27-.23-3.32-1.93-4.25-3.43a11.166 11.166 0 0 0-1.51-2.09 10.173 10.173 0 0 0 4.21.76c.75 1.2 1.16 1.7 1.84 1.77a1.509 1.509 0 0 1 1.35 1.64z" data-original="#b8bef2"></path></g></svg>