<svg xmlns="http://www.w3.org/2000/svg" version="1.1" xmlns:xlink="http://www.w3.org/1999/xlink" xmlns:svgjs="http://svgjs.com/svgjs" width="512" height="512" x="0" y="0" viewBox="0 0 510.049 510.049" style="enable-background:new 0 0 512 512" xml:space="preserve" class=""><g><path fill="#c9e1fc" d="M498.656 287.583a29.89 29.89 0 0 1-10.159 19.75l-58.487 50.794c-28.498 24.75-64.603 38.07-101.752 38.07-7.983 0-16.012-.615-24.026-1.863l-47.381-7.381a11.801 11.801 0 0 0-3.652 0l-47.381 7.382c-45.31 7.061-91.156-6.138-125.779-36.207l-58.487-50.794a29.893 29.893 0 0 1-10.159-19.75l-2.613-27.57a29.898 29.898 0 0 1 8.037-23.358l91.514-96.805c37.489-39.657 100.354-40.437 138.816-1.723l2.695 2.712a7.307 7.307 0 0 0 10.367 0l2.695-2.712c38.462-38.714 101.326-37.934 138.816 1.723l91.513 96.805a29.891 29.891 0 0 1 8.037 23.358z" data-original="#c9e1fc" class=""></path><path fill="#ea9a98" d="m491.865 274.813-72.162 58.637c-29.156 23.691-67.992 34.152-106.148 28.59l-50.639-7.381a50.85 50.85 0 0 0-14.659 0l-50.639 7.381c-38.156 5.562-76.992-4.898-106.148-28.59l-72.162-58.637 197.196-32.442h172.829z" data-original="#ea9a98" class=""></path><path fill="#e5827f" d="M389.333 242.372H216.504L59.64 268.178l-40.332 6.635L91.47 333.45c29.156 23.691 67.992 34.151 106.148 28.59l20.88-3.043c-30.386-.603-59.88-11.075-83.187-30.014l-27.323-22.202c-5.455-4.432-2.41-13.259 4.617-13.386l68.28-1.234.455-.004c4.058 0 8.102.999 11.693 2.888l37.99 19.98c7.373 3.877 15.672 5.927 24.002 5.927s16.63-2.049 24.002-5.927l37.989-19.98a25.222 25.222 0 0 1 11.694-2.888l.454.004 138.276 2.499 24.424-19.847z" data-original="#e5827f"></path><path fill="#efb4b2" d="m240.332 297.324-37.99-19.98a45.123 45.123 0 0 0-21.819-5.179l-162.238 2.932c-3.606.065-4.606-4.924-1.253-6.253l29.248-11.597 108.699-62.781a79.622 79.622 0 0 1 74.925-2.518l18.254 8.966a15.569 15.569 0 0 0 13.73 0l18.254-8.966a79.622 79.622 0 0 1 74.925 2.518l108.699 62.781 29.248 11.597c3.353 1.329 2.353 6.318-1.253 6.253l-162.238-2.932a45.123 45.123 0 0 0-21.819 5.179l-37.99 19.98a31.56 31.56 0 0 1-29.382 0z" data-original="#efb4b2" class=""></path><path fill="#ea9a98" d="m92.932 267.771 108.699-62.781a79.56 79.56 0 0 1 33.609-10.422l-5.335-2.62a79.622 79.622 0 0 0-74.925 2.518L46.281 257.247l-29.249 11.597c-3.353 1.329-2.353 6.318 1.253 6.253l58.854-1.064z" data-original="#ea9a98" class=""></path><path d="m492.609 293.828-11.325 9.835a7.501 7.501 0 0 0 9.836 11.326l11.325-9.835a7.501 7.501 0 0 0-9.836-11.326zM179.562 388.682a147.833 147.833 0 0 1-28.798-3.281 7.5 7.5 0 0 0-3.156 14.664 162.859 162.859 0 0 0 31.727 3.615l.116.001a7.5 7.5 0 0 0 .111-14.999zM238.804 381.605l-30.144 4.696a7.5 7.5 0 1 0 2.309 14.822l30.144-4.696a7.5 7.5 0 0 0 6.256-8.565c-.638-4.094-4.476-6.897-8.565-6.257zM301.428 386.307l-30.145-4.696c-4.076-.636-7.927 2.163-8.564 6.256a7.5 7.5 0 0 0 6.256 8.565l30.145 4.696a7.5 7.5 0 0 0 2.308-14.821zM69.943 356.862a7.5 7.5 0 0 0 4.921-13.163L51.83 323.695a7.501 7.501 0 0 0-9.836 11.326l23.034 20.004a7.473 7.473 0 0 0 4.915 1.837zM123.169 376.549a148.031 148.031 0 0 1-25.332-14.08 7.5 7.5 0 0 0-8.538 12.334 163.095 163.095 0 0 0 27.904 15.509 7.478 7.478 0 0 0 2.979.621 7.502 7.502 0 0 0 6.885-4.52 7.497 7.497 0 0 0-3.898-9.864zM359.317 385.393a147.905 147.905 0 0 1-28.795 3.288 7.5 7.5 0 0 0-7.384 7.614 7.499 7.499 0 0 0 7.497 7.385l.117-.001a162.853 162.853 0 0 0 31.723-3.622 7.5 7.5 0 0 0-3.158-14.664zM458.251 323.667l-23.034 20.004a7.501 7.501 0 0 0 9.836 11.326l23.034-20.004a7.5 7.5 0 0 0-9.836-11.326zM412.244 362.446a148.126 148.126 0 0 1-25.333 14.088 7.498 7.498 0 0 0-3.897 9.864 7.502 7.502 0 0 0 6.885 4.519c.996 0 2.008-.2 2.979-.621a163.051 163.051 0 0 0 27.905-15.518 7.5 7.5 0 0 0-8.539-12.332zM28.765 303.663l-11.325-9.835a7.501 7.501 0 0 0-9.836 11.326l11.325 9.835a7.47 7.47 0 0 0 4.915 1.837 7.502 7.502 0 0 0 4.921-13.163zM507.999 241.36l-10.305-10.9a7.5 7.5 0 1 0-10.901 10.305l10.305 10.9a7.478 7.478 0 0 0 5.451 2.348c1.85 0 3.702-.68 5.151-2.05a7.5 7.5 0 0 0 .299-10.603zM185.868 117.389a88.93 88.93 0 0 1 27.799 6.87 7.479 7.479 0 0 0 2.945.606 7.502 7.502 0 0 0 2.952-14.398 103.9 103.9 0 0 0-32.479-8.028c-4.131-.345-7.748 2.738-8.084 6.866s2.738 7.748 6.867 8.084zM126.964 131.999c1.37 0 2.758-.375 4.002-1.163a88.465 88.465 0 0 1 26.341-11.185 7.499 7.499 0 0 0 5.505-9.066 7.499 7.499 0 0 0-9.066-5.505 103.427 103.427 0 0 0-30.799 13.079 7.501 7.501 0 0 0 4.017 13.84zM76.963 173.034a7.472 7.472 0 0 0 5.151 2.05c1.99 0 3.977-.788 5.452-2.348l21.421-22.66a7.5 7.5 0 1 0-10.901-10.305l-21.421 22.66a7.501 7.501 0 0 0 .298 10.603zM293.495 124.84c.981 0 1.98-.194 2.94-.604a88.91 88.91 0 0 1 27.8-6.851 7.5 7.5 0 0 0 6.872-8.08c-.333-4.129-3.972-7.206-8.079-6.872a103.873 103.873 0 0 0-32.481 8.006 7.499 7.499 0 0 0-3.953 9.842 7.5 7.5 0 0 0 6.901 4.559zM237.823 139.622c1.362 1.214 6.698 6.505 6.698 6.505a14.708 14.708 0 0 0 10.504 4.371c3.974 0 7.704-1.552 10.505-4.371 0 0 5.363-5.317 6.742-6.544a7.5 7.5 0 0 0-9.971-11.206c-1.607 1.43-7.276 7.041-7.276 7.041s-5.634-5.579-7.222-6.994a7.5 7.5 0 0 0-9.98 11.198zM39.272 220.403c1.99 0 3.977-.788 5.452-2.348l21.421-22.66a7.501 7.501 0 0 0-10.901-10.305l-21.421 22.66a7.5 7.5 0 0 0 5.449 12.653zM422.531 172.786a7.478 7.478 0 0 0 5.451 2.348 7.5 7.5 0 0 0 5.449-12.653l-21.422-22.66a7.5 7.5 0 1 0-10.901 10.305zM444.25 184.843a7.5 7.5 0 0 0-.298 10.603l21.421 22.66a7.478 7.478 0 0 0 5.451 2.348 7.5 7.5 0 0 0 5.449-12.653l-21.421-22.66a7.498 7.498 0 0 0-10.602-.298zM352.795 119.666a88.44 88.44 0 0 1 26.339 11.204 7.497 7.497 0 0 0 10.35-2.322 7.5 7.5 0 0 0-2.322-10.35 103.436 103.436 0 0 0-30.796-13.102 7.498 7.498 0 0 0-9.069 5.5 7.5 7.5 0 0 0 5.498 9.07zM12.95 251.665l10.305-10.9a7.5 7.5 0 1 0-10.901-10.305L2.05 241.36a7.5 7.5 0 0 0 10.9 10.305zM427.732 111.758a7.495 7.495 0 0 0 10.348-2.328l12.667-20.024 1.065 4.168a7.503 7.503 0 0 0 9.123 5.411 7.5 7.5 0 0 0 5.41-9.123l-5.37-21.021a7.504 7.504 0 0 0-8.702-5.505l-21.295 4.153c-4.065.793-6.719 4.731-5.926 8.797s4.732 6.723 8.797 5.926l4.222-.823-12.667 20.023a7.499 7.499 0 0 0 2.328 10.346zM50.135 98.983a7.503 7.503 0 0 0 9.123-5.411l1.065-4.168 12.667 20.024a7.495 7.495 0 0 0 10.348 2.328 7.501 7.501 0 0 0 2.329-10.348L73 81.386l4.222.823a7.497 7.497 0 0 0 8.797-5.926 7.5 7.5 0 0 0-5.926-8.797l-21.295-4.153a7.498 7.498 0 0 0-8.702 5.505l-5.37 21.021a7.5 7.5 0 0 0 5.409 9.124zM460.935 411.066a7.5 7.5 0 0 0-9.123 5.41l-1.065 4.168-12.667-20.024a7.5 7.5 0 1 0-12.676 8.019l12.667 20.023-4.222-.823c-4.064-.796-8.004 1.86-8.797 5.926s1.86 8.004 5.926 8.797l21.295 4.153a7.503 7.503 0 0 0 8.702-5.505l5.37-21.021a7.501 7.501 0 0 0-5.41-9.123zM83.338 398.292a7.502 7.502 0 0 0-10.348 2.329l-12.667 20.024-1.065-4.168a7.498 7.498 0 0 0-9.123-5.41 7.5 7.5 0 0 0-5.41 9.123l5.37 21.021a7.501 7.501 0 0 0 8.702 5.505l21.295-4.153a7.5 7.5 0 0 0-2.871-14.723l-4.221.823 12.667-20.023a7.501 7.501 0 0 0-2.329-10.348zM389.72 355.512a130.293 130.293 0 0 0 23.777-16.399l65.343-56.748 12.788.231.206.001c5.187 0 9.496-3.523 10.52-8.63 1.037-5.176-1.665-10.149-6.572-12.096l-28.738-11.394-108.224-62.506c-25.207-14.559-55.854-15.588-81.982-2.755l-18.253 8.966a8.122 8.122 0 0 1-7.118 0l-18.254-8.966a87.12 87.12 0 0 0-80.882 2.142c-3.617 2.02-4.911 6.588-2.891 10.205s6.589 4.912 10.205 2.891a72.12 72.12 0 0 1 66.956-1.773l18.255 8.966c6.368 3.128 13.974 3.128 20.343 0l18.254-8.966a71.993 71.993 0 0 1 67.867 2.28l108.699 62.781c.316.183 8.441 3.433 8.441 3.433l-138.797-2.509a52.795 52.795 0 0 0-25.446 6.041l-37.989 19.98a24.057 24.057 0 0 1-22.402 0l-37.99-19.98a52.634 52.634 0 0 0-25.446-6.04l-138.797 2.509s8.125-3.25 8.441-3.433l81.556-47.104a7.501 7.501 0 0 0-7.502-12.99l-81.08 46.829-28.739 11.395c-4.906 1.946-7.609 6.919-6.571 12.095 1.037 5.176 5.438 8.684 10.726 8.629l12.787-.231 65.343 56.748c23.881 20.74 54.129 31.899 85.259 31.899 6.687 0 13.417-.515 20.13-1.561l47.38-7.381c3.784-.59 7.62-.59 11.406 0l47.381 7.381c15.9 2.477 31.956 1.994 47.721-1.438a7.499 7.499 0 0 0 5.732-8.924 7.498 7.498 0 0 0-8.924-5.732 114.69 114.69 0 0 1-42.221 1.273l-47.381-7.381a51.995 51.995 0 0 0-16.024 0l-47.38 7.381c-33.593 5.233-67.578-4.55-93.245-26.842l-52.769-45.828 127.041-2.296c6.309-.128 12.604 1.379 18.192 4.318l37.99 19.98a39.034 39.034 0 0 0 18.184 4.492 39.03 39.03 0 0 0 18.183-4.492l37.989-19.98a37.642 37.642 0 0 1 18.192-4.318l127.041 2.296-52.769 45.828a115.388 115.388 0 0 1-21.037 14.509 7.5 7.5 0 1 0 7.095 13.214z" fill="#000000" data-original="#000000" class=""></path></g></svg>