<svg xmlns="http://www.w3.org/2000/svg" version="1.1" xmlns:xlink="http://www.w3.org/1999/xlink" xmlns:svgjs="http://svgjs.com/svgjs" width="512" height="512" x="0" y="0" viewBox="0 0 512 512" style="enable-background:new 0 0 512 512" xml:space="preserve" class=""><g><path d="M504.5 257.841v34.377s-213.93 19.41-248.5 19.41-248.5-19.41-248.5-19.41v-33.542c0-11.669 7.96-21.824 19.286-24.634 23.786-5.901 64.329-14.874 90.954-14.874 34.56 0 103.69 19.92 138.26 19.92s103.7-19.92 138.26-19.92c34.634 0 70.627 8.348 91.704 14.236 10.963 3.063 18.536 13.054 18.536 24.437z" style="" fill="#ffdfcf" data-original="#ffdfcf"></path><path d="M504.5 257.84v34.38s-11.72 1.06-30.11 2.69v-43.07c0-11.38-7.57-21.37-18.53-24.44-2.32-.65-4.79-1.58-7.38-2.72 14.63 2.71 27.67 5.98 37.48 8.72a25.373 25.373 0 0 1 18.54 24.44z" style="" fill="#ffcebf" data-original="#ffcebf"></path><path d="M479.125 492.101H32.875c-14.014 0-25.375-11.361-25.375-25.375v-51.482h497v51.482c0 14.014-11.361 25.375-25.375 25.375z" style="" fill="#ffe177" data-original="#ffe177" class=""></path><path d="M504.5 415.24v51.49c0 14.01-11.36 25.37-25.38 25.37h-30.1c14.01 0 25.37-11.36 25.37-25.37v-51.49h30.11z" style="" fill="#ffd15b" data-original="#ffd15b"></path><path d="M504.5 292.221v123.025H7.5V292.221s70.568-19.922 110.237-19.922c34.566 0 103.697 19.922 138.263 19.922s103.697-19.922 138.263-19.922c53.497 0 110.237 19.922 110.237 19.922z" style="" fill="#ffc8dd" data-original="#ffc8dd" class=""></path><path d="M504.5 292.22v123.03h-30.11V283.47c18.14 4.55 30.11 8.75 30.11 8.75z" style="" fill="#fea3c6" data-original="#fea3c6"></path><path d="M316.671 173.124H195.329c-6.016 0-10.894-4.877-10.894-10.894v-18.589c0-6.016 4.877-10.894 10.894-10.894h121.343c6.016 0 10.894 4.877 10.894 10.894v18.589c-.001 6.017-4.878 10.894-10.895 10.894z" style="" fill="#918291" data-original="#918291"></path><path d="M327.57 143.64v18.59c0 6.02-4.88 10.89-10.9 10.89h-30.11c6.02 0 10.9-4.87 10.9-10.89v-18.59c0-6.01-4.88-10.89-10.9-10.89h30.11c6.02 0 10.9 4.88 10.9 10.89z" style="" fill="#7a6d79" data-original="#7a6d79"></path><path d="M321.784 19.899H190.216l9 112.849h113.568z" style="" fill="#cbc4cc" data-original="#cbc4cc"></path><path d="m291.676 19.899-9 112.849h30.108l9-112.849z" style="" fill="#b5adb6" data-original="#b5adb6"></path><path d="M195.329 173.124h121.343c0 15.842-10.619 29.805-25.947 33.81a129.905 129.905 0 0 1-33.846 4.234c-11.877-.079-23.856-1.753-35.93-4.94-15.066-3.977-25.62-17.522-25.62-33.104z" style="" fill="#62dbfb" data-original="#62dbfb"></path><path d="M316.67 173.12c0 7.92-2.65 15.38-7.23 21.35-4.57 5.97-11.06 10.46-18.72 12.46a129.781 129.781 0 0 1-33.84 4.24c-4.75-.03-9.51-.32-14.29-.86 6.04-.69 12.05-1.81 18.03-3.38 7.66-2 14.14-6.49 18.72-12.46a35.166 35.166 0 0 0 7.22-21.35h30.11z" style="" fill="#01d0fb" data-original="#01d0fb"></path><path d="M394.448 492.101H32.875c-14.014 0-25.375-11.361-25.375-25.375v-51.482h497v51.482c0 14.014-11.361 25.375-25.375 25.375h-49.496" style="stroke-width:15;stroke-linecap:round;stroke-linejoin:round;stroke-miterlimit:10;" fill="none" stroke="#000000" stroke-width="15" stroke-linecap="round" stroke-linejoin="round" stroke-miterlimit="10" data-original="#000000" class=""></path><path d="M209.994 286.613c17.592 3.17 33.914 5.608 46.006 5.608 34.566 0 103.697-19.922 138.263-19.922 53.498 0 110.237 19.922 110.237 19.922v123.025H7.5V292.221s70.568-19.922 110.237-19.922c14.653 0 35.518 3.58 57.329 7.705" style="stroke-width:15;stroke-linecap:round;stroke-linejoin:round;stroke-miterlimit:10;" fill="none" stroke="#000000" stroke-width="15" stroke-linecap="round" stroke-linejoin="round" stroke-miterlimit="10" data-original="#000000" class=""></path><path d="M117.74 272.299c-39.67 0-110.24 19.92-110.24 19.92v-33.542c0-11.669 7.96-21.824 19.286-24.634 23.786-5.901 64.329-14.874 90.954-14.874 34.56 0 103.69 19.92 138.26 19.92s103.7-19.92 138.26-19.92c34.634 0 70.627 8.348 91.704 14.236 10.963 3.062 18.536 13.054 18.536 24.437v34.377s-56.74-19.92-110.24-19.92c-34.56 0-103.69 19.92-138.26 19.92M49.595 442.145h0M78.068 457.643h0M300.884 453.672h0M263.242 453.672h0M177.031 457.643h0M207.661 442.145h0M468.263 466.9h0M437.812 453.672h0M379.743 462.6h0M329.771 442.145h0M129.685 453.672h0M378.306 415.242v-72.485l-15.171-23.516M378.306 366.656l24.586-23.899M453.349 415.242v-72.485l-15.171-23.516M453.349 342.757l16.608-23.516M57.18 415.242v-72.485l-15.17-23.516M57.18 342.757l16.608-23.516M92.81 358.057l14.484 14.484v42.701M316.671 173.124H195.329c-6.016 0-10.894-4.877-10.894-10.894v-18.589c0-6.016 4.877-10.894 10.894-10.894h121.343c6.016 0 10.894 4.877 10.894 10.894v18.589c-.001 6.017-4.878 10.894-10.895 10.894z" style="stroke-width:15;stroke-linecap:round;stroke-linejoin:round;stroke-miterlimit:10;" fill="none" stroke="#000000" stroke-width="15" stroke-linecap="round" stroke-linejoin="round" stroke-miterlimit="10" data-original="#000000" class=""></path><path d="m190.216 19.899 9 112.849h113.568l9-112.849M195.329 173.124h121.343v0c0 15.842-10.619 29.805-25.947 33.81a129.905 129.905 0 0 1-33.846 4.234c-11.877-.079-23.856-1.753-35.93-4.94-15.066-3.977-25.62-17.522-25.62-33.104h0zM256.878 211.168v143.539M220.949 206.228s-16.835 93.148-13.288 148.479" style="stroke-width:15;stroke-linecap:round;stroke-linejoin:round;stroke-miterlimit:10;" fill="none" stroke="#000000" stroke-width="15" stroke-linecap="round" stroke-linejoin="round" stroke-miterlimit="10" data-original="#000000" class=""></path><path d="M293.079 206.228s16.835 93.148 13.288 148.479" style="stroke-width:15;stroke-linecap:round;stroke-linejoin:round;stroke-miterlimit:10;" fill="none" stroke="#000000" stroke-width="15" stroke-linecap="round" stroke-linejoin="round" stroke-miterlimit="10" data-original="#000000" class=""></path></g></svg>