<svg xmlns="http://www.w3.org/2000/svg" version="1.1" xmlns:xlink="http://www.w3.org/1999/xlink" xmlns:svgjs="http://svgjs.com/svgjs" width="512" height="512" x="0" y="0" viewBox="0 0 64 64" style="enable-background:new 0 0 512 512" xml:space="preserve" class=""><g><path d="m57.024 57.665-7.228-19.006a6.189 6.189 0 0 0 1.825-1.666 6.086 6.086 0 0 0 .976-5.086 4.135 4.135 0 0 1 1.392-4.188 6.101 6.101 0 0 0-.011-9.447 4.135 4.135 0 0 1-1.378-4.19 6.08 6.08 0 0 0-.979-5.076 6.237 6.237 0 0 0-4.648-2.557 4.253 4.253 0 0 1-3.636-2.597 6.189 6.189 0 0 0-3.826-3.54 6.289 6.289 0 0 0-5.258.626 4.322 4.322 0 0 1-4.507 0 6.289 6.289 0 0 0-5.258-.626 6.19 6.19 0 0 0-3.825 3.54 4.256 4.256 0 0 1-3.645 2.598 6.23 6.23 0 0 0-4.64 2.557 6.086 6.086 0 0 0-.975 5.086 4.136 4.136 0 0 1-1.392 4.189 6.101 6.101 0 0 0 .012 9.446 4.135 4.135 0 0 1 1.377 4.19 6.08 6.08 0 0 0 .979 5.076 6.189 6.189 0 0 0 1.825 1.665L6.976 57.665a1 1 0 0 0 1.272 1.296l7.873-2.83 4.001 7.347A1 1 0 0 0 21 64l.067-.002a1 1 0 0 0 .868-.642l6.767-17.785a6.296 6.296 0 0 0 1.045-.51 4.323 4.323 0 0 1 4.506 0v.001a6.286 6.286 0 0 0 1.042.503l6.77 17.79a1 1 0 0 0 .868.642l.067.002a1 1 0 0 0 .878-.522l4-7.347 7.874 2.83a1 1 0 0 0 1.272-1.296ZM20.84 60.612l-3.371-6.19a1 1 0 0 0-1.216-.463l-6.635 2.385 6.444-16.942a6.38 6.38 0 0 0 .966.149 4.253 4.253 0 0 1 3.636 2.597 6.189 6.189 0 0 0 3.826 3.54 6.321 6.321 0 0 0 1.913.306Zm7.856-17.252a4.286 4.286 0 0 1-3.587.426 4.193 4.193 0 0 1-2.593-2.395 6.269 6.269 0 0 0-5.362-3.836 4.237 4.237 0 0 1-3.155-1.736 4.09 4.09 0 0 1-.655-3.42 6.146 6.146 0 0 0-2.059-6.222 4.102 4.102 0 0 1 .012-6.363 6.146 6.146 0 0 0 2.044-6.224 4.084 4.084 0 0 1 .658-3.41 4.244 4.244 0 0 1 3.166-1.736 6.265 6.265 0 0 0 5.35-3.835 4.189 4.189 0 0 1 2.595-2.395 4.291 4.291 0 0 1 3.588.426 6.34 6.34 0 0 0 6.608 0 4.29 4.29 0 0 1 3.587-.426 4.193 4.193 0 0 1 2.594 2.396 6.269 6.269 0 0 0 5.36 3.836 4.238 4.238 0 0 1 3.156 1.735 4.09 4.09 0 0 1 .655 3.42 6.146 6.146 0 0 0 2.059 6.222 4.102 4.102 0 0 1-.012 6.363 6.146 6.146 0 0 0-2.044 6.224 4.084 4.084 0 0 1-.658 3.41 4.244 4.244 0 0 1-3.166 1.735 6.265 6.265 0 0 0-5.35 3.836 4.189 4.189 0 0 1-2.595 2.395 4.282 4.282 0 0 1-3.588-.426 6.34 6.34 0 0 0-6.608 0Zm19.053 10.599a1 1 0 0 0-1.216.463l-3.37 6.19-5.563-14.616a6.325 6.325 0 0 0 1.912-.307 6.193 6.193 0 0 0 3.827-3.541 4.253 4.253 0 0 1 3.644-2.598 6.323 6.323 0 0 0 .957-.148l6.444 16.941Z" fill="#ff48a4" data-original="#000000" class=""></path><path d="M47 23a15 15 0 1 0-15 15 15.017 15.017 0 0 0 15-15ZM32 36a13 13 0 1 1 13-13 13.015 13.015 0 0 1-13 13Z" fill="#ff48a4" data-original="#000000" class=""></path><path d="m39.953 19.684-4.876-.708-2.18-4.418a1.04 1.04 0 0 0-1.793 0l-2.181 4.418-4.876.708a1 1 0 0 0-.555 1.706l3.53 3.44-.833 4.855a1 1 0 0 0 1.45 1.054L32 28.447l4.361 2.292a1 1 0 0 0 1.45-1.054l-.833-4.856 3.53-3.439a1 1 0 0 0-.555-1.706Zm-4.747 4.08a1.001 1.001 0 0 0-.287.885l.579 3.377-3.033-1.594a1 1 0 0 0-.93 0l-3.033 1.594.58-3.377a1.001 1.001 0 0 0-.288-.885l-2.454-2.392 3.39-.493a.999.999 0 0 0 .754-.547L32 17.26l1.517 3.072a.999.999 0 0 0 .752.548l3.391.492Z" fill="#ff48a4" data-original="#000000" class=""></path></g></svg>