<svg xmlns="http://www.w3.org/2000/svg" version="1.1" xmlns:xlink="http://www.w3.org/1999/xlink" xmlns:svgjs="http://svgjs.com/svgjs" width="512" height="512" x="0" y="0" viewBox="0 0 512 512" style="enable-background:new 0 0 512 512" xml:space="preserve" class=""><g><path fill="#fbf1cf" d="M255.533 399.079c19.874 0 21.752 112.921 81.036 112.921 26.887 0 55.681-28.965 55.681-99.321 0-89.47 54.673-91.609 54.673-181.263 0-54.572-49.082-98.811-109.629-98.811-26.404 0-50.624 8.416-69.546 22.432-7.227 5.353-17.204 5.353-24.431 0-18.922-14.015-43.142-22.432-69.546-22.432-60.546 0-109.629 44.239-109.629 98.811 0 89.654 54.673 91.793 54.673 181.263 0 70.356 28.794 99.321 55.681 99.321 59.285 0 61.163-112.921 81.037-112.921z" data-original="#fbf1cf" class=""></path><path fill="#fbf1cf" d="M255.533 399.079c19.874 0 21.752 112.921 81.036 112.921 26.887 0 55.681-28.965 55.681-99.321 0-89.47 54.673-91.609 54.673-181.263 0-54.572-49.082-98.811-109.629-98.811-26.404 0-50.624 8.416-69.546 22.432-7.227 5.353-17.204 5.353-24.431 0-18.922-14.015-43.142-22.432-69.546-22.432-60.546 0-109.629 44.239-109.629 98.811 0 89.654 54.673 91.793 54.673 181.263 0 70.356 28.794 99.321 55.681 99.321 59.285 0 61.163-112.921 81.037-112.921z" data-original="#fbf1cf" class=""></path><path fill="#f9dfbc" d="M160.439 133.335c-54.257 5.93-96.296 47.578-96.296 98.082 0 89.654 54.673 91.793 54.673 181.263 0 70.356 28.794 99.321 55.681 99.321 44.208 0 56.494-62.781 68.125-94.718-78.155-29.87-167.975-201.101-82.183-283.948z" data-original="#f9dfbc" class=""></path><path fill="#4e5660" d="M255.545 300.993c16.319 0 30.852 11.077 39.992-7.82 9.272-19.169-11.494-47.612-39.992-47.612s-49.264 28.443-39.992 47.612c9.14 18.896 23.673 7.82 39.992 7.82zM199.181 259.239a7.483 7.483 0 0 1-5.657-2.572 13.853 13.853 0 0 0-10.444-4.761c-4 0-7.807 1.735-10.443 4.761a7.501 7.501 0 0 1-11.309-9.855 28.852 28.852 0 0 1 21.752-9.906c8.338 0 16.267 3.61 21.753 9.906a7.5 7.5 0 0 1-5.652 12.427zM344.111 259.239a7.483 7.483 0 0 1-5.657-2.572 13.852 13.852 0 0 0-10.443-4.761 13.851 13.851 0 0 0-10.444 4.761 7.501 7.501 0 0 1-11.309-9.855 28.852 28.852 0 0 1 21.753-9.906c8.337 0 16.266 3.61 21.752 9.906a7.5 7.5 0 0 1-5.652 12.427z" data-original="#4e5660"></path><g fill="#eda1ab"><ellipse cx="168.124" cy="286.212" rx="32.257" ry="25.687" fill="#eda1ab" data-original="#eda1ab" class=""></ellipse><ellipse cx="342.966" cy="286.212" rx="32.257" ry="25.687" fill="#eda1ab" data-original="#eda1ab" class=""></ellipse></g><path fill="#e58996" d="M384.505 178.44a7.5 7.5 0 0 1-6.488-11.251l50.042-86.675a7.5 7.5 0 0 1 13.543 1.184l10.12 27.804 42-72.747a7.5 7.5 0 0 1 12.99 7.5L456.67 130.93a7.524 7.524 0 0 1-7.148 3.722 7.502 7.502 0 0 1-6.395-4.906l-10.12-27.804-42 72.747a7.497 7.497 0 0 1-6.502 3.751zM127.495 195.118a7.495 7.495 0 0 1-6.502-3.752l-42-72.747-10.12 27.804a7.5 7.5 0 0 1-13.542 1.184L5.288 60.932a7.5 7.5 0 0 1 12.99-7.5l42 72.747 10.12-27.804a7.5 7.5 0 0 1 13.543-1.184l50.042 86.676a7.5 7.5 0 0 1-6.488 11.251z" data-original="#e58996"></path><path fill="#eda1ab" d="M157.608 98.995a7.498 7.498 0 0 1-6.502-3.751l-21.11-36.563a7.5 7.5 0 0 1 12.99-7.5l21.11 36.563a7.5 7.5 0 0 1-6.488 11.251z" data-original="#eda1ab" class=""></path><path fill="#e58996" d="M246.493 116.526a7.499 7.499 0 0 1-7.395-8.803l13.986-79.321a7.498 7.498 0 0 1 13.131-3.518l25.462 30.344 8.646-49.029a7.5 7.5 0 0 1 14.772 2.604l-11.438 64.869a7.498 7.498 0 0 1-13.13 3.518l-25.462-30.344-11.193 63.481a7.506 7.506 0 0 1-7.379 6.199z" data-original="#e58996"></path><path fill="#eda1ab" d="M362.705 84.102a7.5 7.5 0 0 1-6.488-11.251l25.021-43.338a7.5 7.5 0 0 1 12.99 7.5L369.207 80.35a7.496 7.496 0 0 1-6.502 3.752z" data-original="#eda1ab" class=""></path></g></svg>