<svg xmlns="http://www.w3.org/2000/svg" version="1.1" xmlns:xlink="http://www.w3.org/1999/xlink" xmlns:svgjs="http://svgjs.com/svgjs" width="512" height="512" x="0" y="0" viewBox="0 0 512 512" style="enable-background:new 0 0 512 512" xml:space="preserve" class=""><g><path d="M470.801 464.258h-30.359c-.074 0-.145-.01-.218-.011V494.5c0 5.523 4.477 10 10 10h10.796c5.523 0 10-4.477 10-10v-30.253c-.074.001-.146.011-.219.011z" style="" fill="#685e68" data-original="#685e68"></path><path d="M470.801 464.258H457V494.5c0 4.973-3.634 9.086-8.388 9.858.526.085 1.062.142 1.612.142h10.796c5.523 0 10-4.477 10-10v-30.253c-.074.001-.146.011-.219.011z" style="" fill="#554e56" data-original="#554e56"></path><path d="M470.801 465.258h-30.36c-.074 0-.145-.01-.218-.011V494.5c0 5.523 4.477 10 10 10h10.796c5.523 0 10-4.477 10-10v-29.253c-.073.001-.144.011-.218.011z" style="stroke-width:15;stroke-linecap:round;stroke-linejoin:round;stroke-miterlimit:10;" fill="none" stroke="#000000" stroke-width="15" stroke-linecap="round" stroke-linejoin="round" stroke-miterlimit="10" data-original="#000000"></path><path d="M237.006 443.551c-5.157 1.934-10.556 2.914-16.048 2.914s-10.892-.98-16.048-2.914a185.017 185.017 0 0 1-41.847-22.14V489.5c0 8.284 6.716 15 15 15h85.792c8.284 0 15-6.716 15-15v-68.089a185.073 185.073 0 0 1-41.849 22.14z" style="" fill="#ffa78f" data-original="#ffa78f"></path><path d="m237.006 443.551-.006.002V489.5c0 8.284-6.716 15-15 15h41.854c8.284 0 15-6.716 15-15v-68.089a185.045 185.045 0 0 1-41.848 22.14z" style="" fill="#f89580" data-original="#f89580"></path><path d="M163.062 422.582V451M163.062 486v3.5c0 8.284 6.716 15 15 15h85.792c8.284 0 15-6.716 15-15v-66.918" style="stroke-width:15;stroke-linecap:round;stroke-linejoin:round;stroke-miterlimit:10;" fill="none" stroke="#000000" stroke-width="15" stroke-linecap="round" stroke-linejoin="round" stroke-miterlimit="10" data-original="#000000"></path><path d="M72.61 232.301h12.048V211.51c0-60.581 49.287-109.867 109.868-109.867h52.864c60.581 0 109.867 49.286 109.867 109.867v20.791h12.048a45.115 45.115 0 0 1 22.965 6.259v-59.747C392.27 84.199 315.571 7.5 220.958 7.5c-94.613 0-171.312 76.699-171.312 171.312v59.747a45.12 45.12 0 0 1 22.964-6.258z" style="" fill="#a44f3e" data-original="#a44f3e"></path><path d="M220.958 7.5c-8.432 0-16.718.62-24.823 1.797C270.788 20.134 329.837 79.105 340.79 153.72c10.432 16.799 16.467 36.602 16.467 57.79v20.791h12.048a45.115 45.115 0 0 1 22.965 6.259v-59.747C392.27 84.199 315.571 7.5 220.958 7.5z" style="" fill="#883f2e" data-original="#883f2e"></path><path d="M392.27 237.437v-58.625C392.27 84.199 315.571 7.5 220.958 7.5h0c-94.613 0-171.312 76.699-171.312 171.312v58.625" style="stroke-width:15;stroke-linecap:round;stroke-linejoin:round;stroke-miterlimit:10;" fill="none" stroke="#000000" stroke-width="15" stroke-linecap="round" stroke-linejoin="round" stroke-miterlimit="10" data-original="#000000"></path><path d="M247.39 100.643h-52.864c-61.23 0-110.867 49.637-110.867 110.867v25.865h1c0-45.581 37.083-82.663 82.663-82.663h107.273c45.58 0 82.662 37.082 82.663 82.663h1V211.51c-.001-61.23-49.638-110.867-110.868-110.867z" style="" fill="#ffffff" data-original="#ffffff"></path><path d="M247.39 100.643h-41.659c42.688 0 79.734 24.13 98.261 59.49 31.105 11.879 53.265 42.013 53.265 77.242h1V211.51c0-61.23-49.637-110.867-110.867-110.867z" style="" fill="#f9f3f1" data-original="#f9f3f1"></path><path d="M358.257 237.375h0V211.51c0-61.23-49.637-110.867-110.867-110.867h-52.864c-61.23 0-110.867 49.637-110.867 110.867v25.865h0" style="stroke-width:15;stroke-linecap:round;stroke-linejoin:round;stroke-miterlimit:10;" fill="none" stroke="#000000" stroke-width="15" stroke-linecap="round" stroke-linejoin="round" stroke-miterlimit="10" data-original="#000000"></path><path d="M84.659 270.011v-32.636c0-2.045.1-4.066.247-6.074H72.61c-25.526 0-46.411 20.885-46.411 46.411v3.952c0 25.526 20.885 46.411 46.411 46.411h21.32c-6.117-18.557-9.271-38.097-9.271-58.064z" style="" fill="#ffb09e" data-original="#ffb09e"></path><path d="M83.659 231.301H72.61c-25.526 0-46.411 20.885-46.411 46.411v3.952c0 25.526 20.885 46.411 46.411 46.411h20.284" style="stroke-width:15;stroke-linecap:round;stroke-linejoin:round;stroke-miterlimit:10;" fill="none" stroke="#000000" stroke-width="15" stroke-linecap="round" stroke-linejoin="round" stroke-miterlimit="10" data-original="#000000"></path><path d="M369.306 231.301H357.01c.147 2.008.247 4.029.247 6.074v32.636c0 19.968-3.154 39.507-9.272 58.065h21.32c25.526 0 46.411-20.885 46.411-46.411v-3.952c.001-25.527-20.884-46.412-46.41-46.412z" style="" fill="#f89580" data-original="#f89580"></path><path d="M414.718 268.166c-4.434-20.986-23.156-36.865-45.412-36.865H357.01" style="stroke-width:15;stroke-linecap:round;stroke-linejoin:round;stroke-miterlimit:10;" fill="none" stroke="#000000" stroke-width="15" stroke-linecap="round" stroke-linejoin="round" stroke-miterlimit="10" data-original="#000000"></path><path d="M167.321 153.712c-46.205 0-83.662 37.457-83.662 83.662v32.636c0 79.874 50.273 147.996 120.9 174.476a46.651 46.651 0 0 0 32.799 0c70.627-26.481 120.9-94.602 120.9-174.476v-32.636c0-46.205-37.457-83.662-83.662-83.662H167.321z" style="" fill="#ffcebf" data-original="#ffcebf"></path><path d="M274.595 153.712h-31.257c46.205 0 83.662 37.457 83.662 83.662v32.636c0 79.874-50.273 147.996-120.9 174.476-.255.096-.514.178-.771.269a46.643 46.643 0 0 0 32.028-.269c70.627-26.481 120.9-94.602 120.9-174.476v-32.636c0-46.205-37.457-83.662-83.662-83.662z" style="" fill="#ffb09e" data-original="#ffb09e"></path><path d="M166 153.746c-45.594.709-82.341 37.867-82.341 83.629v32.636c0 79.874 50.273 147.996 120.9 174.476a46.651 46.651 0 0 0 32.799 0c44.752-16.779 81.325-50.281 102.121-92.894l18.779-83.427v-30.791c0-46.205-37.457-83.662-83.662-83.662H201" style="stroke-width:15;stroke-linecap:round;stroke-linejoin:round;stroke-miterlimit:10;" fill="none" stroke="#000000" stroke-width="15" stroke-linecap="round" stroke-linejoin="round" stroke-miterlimit="10" data-original="#000000"></path><path d="M438.947 268.165h-91.472c-10.686 0-19.348 8.662-19.348 19.348v46.476c0 10.686 8.662 19.348 19.348 19.348h47.267c16.955 0 30.699 13.745 30.699 30.699v66.221c0 8.284 6.716 15 15 15h30.36c8.284 0 15-6.716 15-15V315.02c0-25.877-20.977-46.855-46.854-46.855z" style="" fill="#f9f3f1" data-original="#f9f3f1"></path><path d="M438.947 268.166H407.82c25.877 0 46.854 20.977 46.854 46.854v135.238c0 8.155-6.511 14.775-14.616 14.981.129.003.254.019.384.019h30.36c8.284 0 15-6.716 15-15V315.02c-.001-25.877-20.978-46.854-46.855-46.854z" style="" fill="#f3eae6" data-original="#f3eae6"></path><path d="M485.801 353.338H347.475c-10.686 0-19.348-8.662-19.348-19.348v-46.476c0-10.686 8.662-19.348 19.348-19.348h91.472c25.877 0 46.854 20.977 46.854 46.854v38.318z" style="" fill="#fe73c5" data-original="#fe73c5"></path><path d="M438.947 268.166H407.82c25.877 0 46.854 20.977 46.854 46.854v38.318h31.127V315.02c0-25.877-20.977-46.854-46.854-46.854z" style="" fill="#fe4fb7" data-original="#fe4fb7"></path><path d="M425.441 421.5v28.758c0 8.284 6.716 15 15 15h30.36c8.284 0 15-6.716 15-15V315.02c0-25.877-20.977-46.854-46.854-46.854h-91.472c-10.686 0-19.348 8.662-19.348 19.348v46.476c0 10.686 8.662 19.348 19.348 19.348h47.267c16.955 0 30.699 13.744 30.699 30.699v2.463M485.801 353.338H347.475M220.958 278.416l-25.297 25.297 25.297 25.298M249.896 362.421H192.02M138.341 258.27c9.788 19.21 37.233 19.21 47.022 0M256.554 258.27c9.788 19.21 37.233 19.21 47.022 0M252.79 213.102h59.033M130.093 213.102h59.033" style="stroke-width:15;stroke-linecap:round;stroke-linejoin:round;stroke-miterlimit:10;" fill="none" stroke="#000000" stroke-width="15" stroke-linecap="round" stroke-linejoin="round" stroke-miterlimit="10" data-original="#000000"></path><path d="m452.666 153.112-21.123 36.586c-10.336 17.903 2.584 40.281 23.256 40.281s33.592-22.378 23.256-40.281l-21.123-36.586c-.947-1.643-3.318-1.643-4.266 0z" style="" fill="#a6e7f0" data-original="#a6e7f0"></path><path d="m478.056 189.698-21.123-36.586c-.948-1.642-3.319-1.642-4.267 0l-8.319 14.409 12.804 22.177c8.448 14.633 1.356 32.249-12.804 38.198 3.164 1.329 6.677 2.083 10.452 2.083 20.673 0 33.593-22.379 23.257-40.281z" style="" fill="#6bd9e7" data-original="#6bd9e7"></path><path d="m431.281 50.565-18.16 31.454c-8.886 15.392 2.222 34.631 19.995 34.631s28.881-19.24 19.995-34.631l-18.16-31.454c-.817-1.412-2.855-1.412-3.67 0z" style="" fill="#a6e7f0" data-original="#a6e7f0"></path><path d="m453.11 82.019-18.16-31.454c-.815-1.412-2.853-1.412-3.669 0l-8.662 15.003 9.498 16.451c6.957 12.05 1.658 26.456-9.498 32.145 3.094 1.578 6.637 2.487 10.496 2.487 17.773 0 28.881-19.24 19.995-34.632z" style="" fill="#6bd9e7" data-original="#6bd9e7"></path><path d="m343.256 405.331-18.16 31.454c-8.886 15.392 2.222 34.631 19.995 34.631s28.881-19.24 19.995-34.631l-18.16-31.454c-.817-1.412-2.855-1.412-3.67 0z" style="" fill="#a6e7f0" data-original="#a6e7f0"></path><path d="m365.085 436.786-18.16-31.455c-.815-1.412-2.853-1.412-3.669 0l-8.65 14.982 9.511 16.473c6.959 12.054 1.654 26.466-9.511 32.15 3.091 1.574 6.63 2.481 10.484 2.481 17.773 0 28.881-19.24 19.995-34.631z" style="" fill="#6bd9e7" data-original="#6bd9e7"></path><path d="m452.666 153.112-21.123 36.586c-10.336 17.903 2.584 40.281 23.256 40.281h0c20.672 0 33.592-22.378 23.256-40.281l-21.123-36.586c-.947-1.643-3.318-1.643-4.266 0zM431.281 50.565l-18.16 31.454c-8.886 15.392 2.222 34.631 19.995 34.631h0c17.773 0 28.881-19.24 19.995-34.631l-18.16-31.454c-.817-1.412-2.855-1.412-3.67 0zM343.256 405.331l-18.16 31.454c-8.886 15.392 2.222 34.631 19.995 34.631h0c17.773 0 28.881-19.24 19.995-34.631l-18.16-31.454c-.817-1.412-2.855-1.412-3.67 0zM294.868 338.028H282M294.868 306H268" style="stroke-width:15;stroke-linecap:round;stroke-linejoin:round;stroke-miterlimit:10;" fill="none" stroke="#000000" stroke-width="15" stroke-linecap="round" stroke-linejoin="round" stroke-miterlimit="10" data-original="#000000"></path><path d="M396.5 324.5h-27c-7.975 0-14.5-6.525-14.5-14.5s6.525-14.5 14.5-14.5h27c7.975 0 14.5 6.525 14.5 14.5s-6.525 14.5-14.5 14.5z" style="" fill="#ffffff" data-original="#ffffff"></path><path d="M396.5 295.5h-20c7.975 0 14.5 6.525 14.5 14.5s-6.525 14.5-14.5 14.5h20c7.975 0 14.5-6.525 14.5-14.5s-6.525-14.5-14.5-14.5z" style="" fill="#f9f3f1" data-original="#f9f3f1"></path><path d="M396.5 324.5h-27c-7.975 0-14.5-6.525-14.5-14.5h0c0-7.975 6.525-14.5 14.5-14.5h27c7.975 0 14.5 6.525 14.5 14.5h0c0 7.975-6.525 14.5-14.5 14.5z" style="stroke-width:15;stroke-linecap:round;stroke-linejoin:round;stroke-miterlimit:10;" fill="none" stroke="#000000" stroke-width="15" stroke-linecap="round" stroke-linejoin="round" stroke-miterlimit="10" data-original="#000000"></path><path d="M454 415v50.258h16.801c8.284 0 15-6.716 15-15v-73.576C467.76 380.085 454 396.009 454 415z" style="" fill="#fe73c5" data-original="#fe73c5"></path><path d="M454 415v50.258h16.801c8.284 0 15-6.716 15-15v-73.576C467.76 380.085 454 396.009 454 415z" style="stroke-width:15;stroke-linecap:round;stroke-linejoin:round;stroke-miterlimit:10;" fill="none" stroke="#000000" stroke-width="15" stroke-linecap="round" stroke-linejoin="round" stroke-miterlimit="10" data-original="#000000"></path></g></svg>