<svg xmlns="http://www.w3.org/2000/svg" version="1.1" xmlns:xlink="http://www.w3.org/1999/xlink" xmlns:svgjs="http://svgjs.com/svgjs" width="512" height="512" x="0" y="0" viewBox="0 0 512 512" style="enable-background:new 0 0 512 512" xml:space="preserve" class=""><g><path d="M10 90.485c16.939 0 30.72 13.782 30.72 30.72a8 8 0 0 0 16 0c0-16.938 13.781-30.72 30.72-30.72a8 8 0 0 0 0-16c-16.939 0-30.72-13.78-30.72-30.72a8 8 0 0 0-16 0c0 16.94-13.781 30.72-30.72 30.72a8 8 0 0 0 0 16zm38.72-20.601a47.102 47.102 0 0 0 12.602 12.601A47.102 47.102 0 0 0 48.72 95.087 47.102 47.102 0 0 0 36.12 82.485 47.102 47.102 0 0 0 48.72 69.884zM502 414.216c-16.939 0-30.72-13.781-30.72-30.72a8 8 0 0 0-16 0c0 16.939-13.781 30.72-30.72 30.72a8 8 0 0 0 0 16c16.939 0 30.72 13.781 30.72 30.72a8 8 0 0 0 16 0c0-16.939 13.781-30.72 30.72-30.72a8 8 0 0 0 0-16zm-38.72 20.601a47.102 47.102 0 0 0-12.602-12.601 47.088 47.088 0 0 0 12.602-12.602 47.095 47.095 0 0 0 12.601 12.602 47.11 47.11 0 0 0-12.601 12.601zM510 210.475c.017-3.758-2.854-7.172-6.547-7.817-22.006-4.064-41.977-19.59-65.102-37.565-20.493-15.93-43.72-33.986-71.604-45.383-38.597-15.772-60.214.661-77.585 13.866-10.99 8.355-20.481 15.57-33.162 15.57s-22.172-7.215-33.162-15.57c-17.37-13.205-38.987-29.638-77.585-13.866-27.885 11.397-51.111 29.453-71.604 45.383-23.125 17.976-43.096 33.5-65.102 37.565-3.693.645-6.564 4.059-6.547 7.817-.019 2.974.162 73.558 54.647 134.41 7.615 8.506 16.236 16.176 25.805 23.02.22.196 5.09 3.593 7.366 5.047 6.91 4.414 14.302 8.443 22.109 12.058a30.538 30.538 0 0 1-13.314 3.038 8 8 0 0 0 0 16c16.939 0 30.72 13.781 30.72 30.72a8 8 0 0 0 16 0c0-16.915 13.743-30.68 30.65-30.718 14.457 2.424 29.936 4.017 46.853 4.827.13.006.26.009.39.009.049 0 .097-.007.146-.008 11.4.537 22.354.682 32.628.682 28.86 0 63.03-1.068 97.626-8.987 43.288-9.908 77.514-28.643 101.727-55.687 54.485-60.853 54.666-131.437 54.647-134.411zm-426.531-32.75c20.641-16.045 41.986-32.637 67.838-43.204 30.137-12.315 44.832-1.144 61.848 11.792 12.18 9.26 24.773 18.833 42.845 18.833s30.666-9.574 42.845-18.833c17.016-12.935 31.712-24.106 61.848-11.792 25.853 10.566 47.197 27.159 67.838 43.204 16.533 12.851 32.429 25.208 49.28 33.14-1.312.406-2.636.796-3.962 1.182a8.064 8.064 0 0 0-.692.206c-11.19 3.216-22.907 5.68-35.35 7.441-12.026 1.707-23.995 2.647-35.813 3.045-.047-.001-.093-.008-.141-.008-.193 0-.382.016-.572.03-30.133.959-59.276-1.58-85.882-3.899-8.27-.72-16.108-1.397-23.58-1.943-.006 0-.012 0-.017-.002-9.873-.721-19.09-1.21-27.646-1.21-2.786 0-5.504.05-8.156.161-16.968-.706-36.64 1.01-59.399 2.994-26.61 2.32-55.756 4.858-85.893 3.898-.186-.013-.372-.029-.561-.029-.047 0-.092.007-.139.008-11.82-.398-23.789-1.338-35.816-3.045-12.45-1.764-24.174-4.23-35.37-7.447a7.933 7.933 0 0 0-.648-.193c-1.334-.388-2.666-.78-3.986-1.19 16.852-7.931 32.748-20.288 49.28-33.14zm330.052 88.33c-1.177.415-2.41.834-3.668 1.254v-28.901c9.96-.523 20.038-1.43 30.2-2.872a290.202 290.202 0 0 0 21.472-3.849 210.398 210.398 0 0 1-7.558 13.786c-2.993 2.517-14.896 11.587-40.446 20.583zm16.489 10.85a150.562 150.562 0 0 1-20.157 17.323v-10.096c7.597-2.382 14.29-4.823 20.157-7.227zm-71.81 2.876V238.13c9.704.517 19.61.849 29.687.849 1.982 0 3.972-.016 5.966-.042v33.172c-10.074 2.713-21.901 5.36-35.653 7.672zm35.653 8.896v15.604c-10.815 5.925-22.66 10.824-35.653 14.753V296.04c13.324-2.162 25.167-4.671 35.653-7.362zm-94.856-2.431V233.52c4.841.396 9.842.83 15.013 1.28 9.119.796 18.538 1.61 28.19 2.312v45.072c-12.935 1.726-27.298 3.136-43.203 4.06zm43.203 12.116v24.893c-13.284 3.026-27.658 5.188-43.203 6.546v-27.512c15.726-.883 30.09-2.236 43.203-3.927zM256 287.454c-9.417 0-18.402-.167-26.997-.467v-54.63c9.7-.586 18.595-.84 26.649-.49.232.01.464.01.696 0 8.053-.349 16.949-.096 26.649.49v54.63c-8.595.3-17.58.467-26.997.467zm26.997 15.548v27.895c-8.656.436-17.647.653-26.997.653s-18.34-.217-26.997-.653v-27.895c8.627.292 17.61.452 26.997.452s18.37-.16 26.997-.452zM169.8 282.185v-45.068c9.655-.701 19.07-1.52 28.19-2.315 5.171-.45 10.172-.885 15.013-1.281v52.725c-15.905-.925-30.268-2.335-43.203-4.061zm43.203 20.104v27.512c-15.545-1.358-29.919-3.52-43.203-6.546v-24.893c13.113 1.691 27.477 3.044 43.203 3.927zm-94.856-30.18v-33.173c12.13.16 24.04-.185 35.653-.803v41.648c-13.752-2.312-25.579-4.96-35.653-7.672zm35.653 23.93v22.995c-12.992-3.929-24.838-8.828-35.653-14.753v-15.604c10.486 2.69 22.329 5.2 35.653 7.362zM98.48 266.056c-25.62-9.02-37.518-18.116-40.44-20.573a210.295 210.295 0 0 1-7.564-13.795 290.2 290.2 0 0 0 21.471 3.848c10.162 1.442 20.242 2.358 30.201 2.88v28.893c-1.258-.42-2.49-.839-3.668-1.253zm3.668 18.076v10.096a150.562 150.562 0 0 1-20.157-17.323c5.867 2.404 12.56 4.845 20.157 7.227zm35.186 124.517a47.102 47.102 0 0 0-12.602-12.601 47.102 47.102 0 0 0 12.602-12.602 47.102 47.102 0 0 0 12.602 12.602 47.102 47.102 0 0 0-12.602 12.601zm306.1-74.435C390.297 393.56 296.187 393.56 256 393.56c-8.396 0-19.154-.004-31.392-.546-.33-.058-12.687-.787-18.262-1.272-15.507-1.348-29.698-3.482-42.988-6.451-10.62-4.841-18.025-15.55-18.025-27.963a8 8 0 0 0-16 0c0 5.822-1.628 11.27-4.453 15.915-9.756-4.096-18.836-8.867-27.127-14.228l.028-.026c-10.567-6.824-20.45-14.987-29.214-24.775-37.491-41.874-47.187-89.758-49.693-111.62 3.776 1.365 7.6 2.643 11.479 3.83 17.663 40.53 41.056 68.544 73.396 87.964 16.067 9.647 34.502 17.147 55.524 22.558.343.114.696.205 1.058.273 17.993 4.552 37.875 7.582 59.784 9.125.097.01.196.014.294.021 11.318.79 23.172 1.185 35.591 1.185 12.404 0 24.245-.394 35.55-1.182.117-.008.233-.013.348-.025 48.036-3.384 86.323-13.924 116.353-31.955 32.34-19.42 55.733-47.434 73.396-87.964a241.74 241.74 0 0 0 11.505-3.839c-2.465 21.821-12.097 69.61-49.72 111.629z" fill="#ffffff" data-original="#000000" class=""></path></g></svg>