<svg xmlns="http://www.w3.org/2000/svg" version="1.1" xmlns:xlink="http://www.w3.org/1999/xlink" xmlns:svgjs="http://svgjs.com/svgjs" width="512" height="512" x="0" y="0" viewBox="0 0 60 60" style="enable-background:new 0 0 512 512" xml:space="preserve" class=""><g><path fill="#a56a43" d="M17.79 52.26C7.59 52.89 4 45 4 45s7 1 5-16C6.2 5.16 21 1 30 1s23.8 4.16 21 28c-2 17 5 16 5 16s-3.59 7.89-13.79 7.26z" data-original="#a56a43"></path><path fill="#f9c795" d="M27 41.85V45a3.7 3.7 0 0 1-2 3c-2.836.945-9.247 3.678-9.939 9.888a1.007 1.007 0 0 0 1 1.112h27.878a1.007 1.007 0 0 0 1-1.112c-.692-6.21-7.1-8.943-9.939-9.888a3.7 3.7 0 0 1-2-3v-3.15zM44 26h1a2.977 2.977 0 0 1 1.84.64A2.942 2.942 0 0 1 48 29a3 3 0 0 1-3 3H15a3 3 0 0 1-3-3 3.016 3.016 0 0 1 3-3z" data-original="#f9c795"></path><path fill="#fdd7ad" d="M44 20.38V29a13 13 0 0 1-13 13h-2a12.966 12.966 0 0 1-5.3-1.128 1 1 0 0 0-1.073.147 4.028 4.028 0 0 1-3.608.866 3.948 3.948 0 0 1-2.905-2.906 4.027 4.027 0 0 1 .866-3.607 1 1 0 0 0 .147-1.073A12.966 12.966 0 0 1 16 29v-8a1.993 1.993 0 0 1 1.82-1.99c3.79-.33 12.56-1.74 17.18-7.9 0 0 1.79 4.46 7.9 7.49a1.994 1.994 0 0 1 1.1 1.78z" data-original="#fdd7ad"></path><path fill="#84b5cb" d="M25 29a1 1 0 0 1-1-1 1 1 0 0 0-2 0 1 1 0 0 1-2 0 3 3 0 0 1 6 0 1 1 0 0 1-1 1zM39 29a1 1 0 0 1-1-1 1 1 0 0 0-2 0 1 1 0 0 1-2 0 3 3 0 0 1 6 0 1 1 0 0 1-1 1z" data-original="#84b5cb"></path><path fill="#a56a43" d="M20 24a1 1 0 0 1-.316-1.948l3-1a1 1 0 1 1 .632 1.9l-3 1A1 1 0 0 1 20 24zM40 24a1 1 0 0 1-.316-.052l-3-1a1 1 0 1 1 .632-1.9l3 1A1 1 0 0 1 40 24z" data-original="#a56a43"></path><path fill="#f9c795" d="M31 34h-2a1 1 0 0 1 0-2h2a1 1 0 0 1 0 2z" data-original="#f9c795"></path><path fill="#f09372" d="M35 38a1 1 0 0 1-.7-.291A2.489 2.489 0 0 0 33 37a3.014 3.014 0 0 0-1.053.4A4.373 4.373 0 0 1 30 38a4.373 4.373 0 0 1-1.947-.6A3.014 3.014 0 0 0 27 37a2.486 2.486 0 0 0-1.3.71 1 1 0 0 1-1.411-1.417A4.392 4.392 0 0 1 27 35a4.373 4.373 0 0 1 1.947.6A3.014 3.014 0 0 0 30 36a3.014 3.014 0 0 0 1.053-.4A4.373 4.373 0 0 1 33 35a4.392 4.392 0 0 1 2.707 1.293A1 1 0 0 1 35 38z" data-original="#f09372"></path><path fill="#3b97d3" d="M44.94 57.89a1.006 1.006 0 0 1-1 1.11H16.06a1.006 1.006 0 0 1-1-1.11c.43-3.85 3.06-6.37 5.67-7.94C21.87 51.13 24.53 53 30 53s8.13-1.87 9.27-3.05c2.61 1.57 5.24 4.09 5.67 7.94z" data-original="#3b97d3"></path></g></svg>