<svg xmlns="http://www.w3.org/2000/svg" version="1.1" xmlns:xlink="http://www.w3.org/1999/xlink" xmlns:svgjs="http://svgjs.com/svgjs" width="512" height="512" x="0" y="0" viewBox="0 0 64 64" style="enable-background:new 0 0 512 512" xml:space="preserve" class=""><g><g xmlns="http://www.w3.org/2000/svg"><g><g><path d="m32.05 42c.2 2.97 1.18 5.85 2.84 8.34.69 1.04 1.86 1.66 3.11 1.66s2.42-.62 3.11-1.66c.94-1.42 1.66-2.95 2.15-4.56.37-1.23.61-2.5.69-3.79h.08c.34 3.68 1.07 6.22 2.25 8.57.44.88 1.34 1.44 2.33 1.44.87 0 1.68-.43 2.16-1.16.97-1.46 1.74-3.04 2.28-4.69l1.42 4.27c.32.94 1.2 1.58 2.19 1.58.83 0 1.59-.44 2-1.16.5-.88.95-1.78 1.34-2.7v6.86c0 3.87-3.13 7-7 7h-42c-3.87 0-7-3.13-7-7v-6.86c.39.92.84 1.82 1.34 2.7.41.72 1.17 1.16 2 1.16.99 0 1.87-.64 2.19-1.58l1.42-4.27c.54 1.65 1.31 3.23 2.28 4.69.48.73 1.29 1.16 2.16 1.16.99 0 1.89-.56 2.33-1.44 1.17-2.35 1.91-4.87 2.25-8.56h.08c.2 2.97 1.18 5.85 2.84 8.34.69 1.04 1.86 1.66 3.11 1.66s2.42-.62 3.11-1.66c.94-1.42 1.66-2.95 2.15-4.56.37-1.23.61-2.49.69-3.78h.05z" fill="#ef7385" data-original="#ef7385" class=""></path></g><g><path d="m34.89 13.66c-1.66 2.49-2.64 5.37-2.84 8.34h-.05-.05c-.08-1.29-.32-2.55-.69-3.78-.49-1.61-1.21-3.14-2.15-4.56-.69-1.04-1.86-1.66-3.11-1.66s-2.42.62-3.11 1.66c-1.66 2.49-2.64 5.37-2.84 8.34h-.08c-.34-3.69-1.08-6.21-2.25-8.56-.44-.88-1.34-1.44-2.33-1.44-.87 0-1.68.43-2.16 1.16-.97 1.46-1.74 3.04-2.28 4.69l-1.42-4.27c-.32-.94-1.2-1.58-2.19-1.58-.83 0-1.59.44-2 1.16-.5.88-.95 1.78-1.34 2.7v-6.86c0-3.87 3.13-7 7-7h42c3.87 0 7 3.13 7 7v6.86c-.39-.92-.84-1.82-1.34-2.7-.41-.72-1.17-1.16-2-1.16-.99 0-1.87.64-2.19 1.58l-1.42 4.27c-.54-1.65-1.31-3.23-2.28-4.69-.48-.73-1.29-1.16-2.16-1.16-.99 0-1.89.56-2.33 1.44-1.17 2.35-1.91 4.87-2.25 8.56h-.08c-.08-1.29-.32-2.55-.69-3.78-.49-1.61-1.21-3.14-2.15-4.56-.69-1.04-1.86-1.66-3.11-1.66s-2.42.62-3.11 1.66z" fill="#ef7385" data-original="#ef7385" class=""></path></g><g><path d="m60 36h-4.01c-1.1 0-1.99.89-1.99 1.99-.01-1.1-.89-1.99-2-1.99h-6c-1.1 0-2 .9-2 2 0-1.1-.9-2-2-2h-8c-1.1 0-2 .9-2 2 0-1.1-.9-2-2-2h-8c-1.1 0-2 .9-2 2 0-1.1-.9-2-2-2h-6c-1.11 0-1.99.89-2 1.99 0-1.1-.89-1.99-1.99-1.99h-4.01c-1.1 0-2 .9-2 2v.28c0 2.2.29 4.38.85 6.49.3 1.15.69 2.27 1.15 3.37.39.92.84 1.82 1.34 2.7.41.72 1.17 1.16 2 1.16.99 0 1.87-.64 2.19-1.58l1.42-4.27c.54 1.65 1.31 3.23 2.28 4.69.48.73 1.29 1.16 2.16 1.16.99 0 1.89-.56 2.33-1.44 1.17-2.35 1.91-4.87 2.25-8.56l.03-1.1c0 .37.02.73.05 1.1.2 2.97 1.18 5.85 2.84 8.34.69 1.04 1.86 1.66 3.11 1.66s2.42-.62 3.11-1.66c.94-1.42 1.66-2.95 2.15-4.56.37-1.23.61-2.49.69-3.78.04-.4.05-.81.05-1.21 0 .4.01.81.05 1.21.2 2.97 1.18 5.85 2.84 8.34.69 1.04 1.86 1.66 3.11 1.66s2.42-.62 3.11-1.66c.94-1.42 1.66-2.95 2.15-4.56.37-1.23.61-2.5.69-3.79.03-.36.05-.73.05-1.09l.03 1.09c.34 3.68 1.07 6.22 2.25 8.57.44.88 1.34 1.44 2.33 1.44.87 0 1.68-.43 2.16-1.16.97-1.46 1.74-3.04 2.28-4.69l1.42 4.27c.32.94 1.2 1.58 2.19 1.58.83 0 1.59-.44 2-1.16.5-.88.95-1.78 1.34-2.7.46-1.1.85-2.22 1.15-3.37.56-2.11.85-4.29.85-6.49v-.28c0-1.1-.9-2-2-2z" fill="#e6e9ed" data-original="#e6e9ed" class=""></path></g><g><path d="m61.15 19.23c-.3-1.15-.69-2.27-1.15-3.37-.39-.92-.84-1.82-1.34-2.7-.41-.72-1.17-1.16-2-1.16-.99 0-1.87.64-2.19 1.58l-1.42 4.27c-.54-1.65-1.31-3.23-2.28-4.69-.48-.73-1.29-1.16-2.16-1.16-.99 0-1.89.56-2.33 1.44-1.17 2.35-1.91 4.87-2.25 8.56l-.03 1.1c0-.37-.02-.73-.05-1.1-.08-1.29-.32-2.55-.69-3.78-.49-1.61-1.21-3.14-2.15-4.56-.69-1.04-1.86-1.66-3.11-1.66s-2.42.62-3.11 1.66c-1.66 2.49-2.64 5.37-2.84 8.34-.04.4-.05.81-.05 1.21 0-.4-.01-.81-.05-1.21-.08-1.29-.32-2.55-.69-3.78-.49-1.61-1.21-3.14-2.15-4.56-.69-1.04-1.86-1.66-3.11-1.66s-2.42.62-3.11 1.66c-1.66 2.49-2.64 5.37-2.84 8.34-.03.37-.05.73-.05 1.1l-.03-1.1c-.34-3.69-1.08-6.21-2.25-8.56-.44-.88-1.34-1.44-2.33-1.44-.87 0-1.68.43-2.16 1.16-.97 1.46-1.74 3.04-2.28 4.69l-1.42-4.27c-.32-.94-1.2-1.58-2.19-1.58-.83 0-1.59.44-2 1.16-.5.88-.95 1.78-1.34 2.7-.46 1.1-.85 2.22-1.15 3.37-.56 2.11-.85 4.29-.85 6.49v.28c0 1.1.9 2 2 2h4.01c1.1 0 1.99-.89 1.99-1.99.01 1.1.89 1.99 2 1.99h6c1.1 0 2-.9 2-2 0 1.1.9 2 2 2h8c1.1 0 2-.9 2-2 0 1.1.9 2 2 2h8c1.1 0 2-.9 2-2 0 1.1.9 2 2 2h6c1.11 0 1.99-.89 2-1.99 0 1.1.89 1.99 1.99 1.99h4.01c1.1 0 2-.9 2-2v-.28c0-2.2-.29-4.38-.85-6.49z" fill="#e6e9ed" data-original="#e6e9ed" class=""></path></g><g><path d="m8 22v1c0 .55-.45 1-1 1h-2c-.55 0-1-.45-1-1v-2c0-.55.45-1 1-1h2c.55 0 1 .45 1 1z" fill="#5cd6b3" data-original="#5cd6b3" class=""></path></g><g><path d="m17 22v1c0 .55-.45 1-1 1h-2c-.55 0-1-.45-1-1v-1-1c0-.55.45-1 1-1h2c.55 0 1 .45 1 1z" fill="#5cd6b3" data-original="#5cd6b3" class=""></path></g><g><path d="m28 22v1c0 .55-.45 1-1 1h-2c-.55 0-1-.45-1-1v-1-1c0-.55.45-1 1-1h2c.55 0 1 .45 1 1z" fill="#5cd6b3" data-original="#5cd6b3" class=""></path></g><g><path d="m40 22v1c0 .55-.45 1-1 1h-2c-.55 0-1-.45-1-1v-1-1c0-.55.45-1 1-1h2c.55 0 1 .45 1 1z" fill="#5cd6b3" data-original="#5cd6b3" class=""></path></g><g><path d="m51 22v1c0 .55-.45 1-1 1h-2c-.55 0-1-.45-1-1v-1-1c0-.55.45-1 1-1h2c.55 0 1 .45 1 1z" fill="#5cd6b3" data-original="#5cd6b3" class=""></path></g><g><path d="m60 21v2c0 .55-.45 1-1 1h-2c-.55 0-1-.45-1-1v-1-1c0-.55.45-1 1-1h2c.55 0 1 .45 1 1z" fill="#5cd6b3" data-original="#5cd6b3" class=""></path></g><g><path d="m59 40c.55 0 1 .45 1 1v2c0 .55-.45 1-1 1h-2c-.55 0-1-.45-1-1v-1-1c0-.55.45-1 1-1z" fill="#5cd6b3" data-original="#5cd6b3" class=""></path></g><g><path d="m51 42v1c0 .55-.45 1-1 1h-2c-.55 0-1-.45-1-1v-1-1c0-.55.45-1 1-1h2c.55 0 1 .45 1 1z" fill="#5cd6b3" data-original="#5cd6b3" class=""></path></g><g><path d="m40 41.98v1.02c0 .55-.45 1-1 1h-2c-.55 0-1-.45-1-1v-1-1c0-.55.45-1 1-1h2c.55 0 1 .45 1 1z" fill="#5cd6b3" data-original="#5cd6b3" class=""></path></g><g><path d="m28 42v1c0 .55-.45 1-1 1h-2c-.55 0-1-.45-1-1v-1-1c0-.55.45-1 1-1h2c.55 0 1 .45 1 1z" fill="#5cd6b3" data-original="#5cd6b3" class=""></path></g><g><path d="m17 42v1c0 .55-.45 1-1 1h-2c-.55 0-1-.45-1-1v-1-1c0-.55.45-1 1-1h2c.55 0 1 .45 1 1z" fill="#5cd6b3" data-original="#5cd6b3" class=""></path></g><g><path d="m8 42v1c0 .55-.45 1-1 1h-2c-.55 0-1-.45-1-1v-2c0-.55.45-1 1-1h2c.55 0 1 .45 1 1z" fill="#5cd6b3" data-original="#5cd6b3" class=""></path></g></g><g><path d="m61 15.669v-6.669c0-4.411-3.589-8-8-8h-42c-4.411 0-8 3.589-8 8v6.669c-1.313 3.18-2 6.601-2 10.055v.276c0 1.654 1.346 3 3 3h4.005c.77 0 1.465-.3 1.996-.779.532.479 1.228.779 1.998.779h6.001c.771 0 1.468-.301 2-.78.532.48 1.229.78 2 .78h8c.771 0 1.468-.301 2-.78.532.48 1.229.78 2 .78h8c.771 0 1.468-.301 2-.78.532.48 1.229.78 2 .78h6.001c.77 0 1.466-.3 1.998-.779.531.479 1.227.779 1.996.779h4.005c1.654 0 3-1.346 3-3v-.276c0-3.454-.687-6.875-2-10.055zm-4 3.331c-1.103 0-2 .897-2 2h-.201c-.15-1.067-.382-2.116-.698-3.141l1.323-3.966c.178-.534.675-.893 1.238-.893.467 0 .901.252 1.134.658 1.028 1.8 1.815 3.722 2.354 5.711-.326-.231-.722-.369-1.15-.369zm2 2v2h-2v-2zm-9-2h-2c-1.103 0-2 .897-2 2h-.885c.255-2.469.951-4.896 2.061-7.115.272-.546.821-.885 1.431-.885.537 0 1.035.267 1.333.713 1.474 2.212 2.432 4.692 2.837 7.287h-.777c0-1.103-.897-2-2-2zm0 2v2h-2v-2zm-11-2h-2c-1.103 0-2 .897-2 2h-1.844c.331-2.417 1.198-4.729 2.567-6.781.508-.763 1.36-1.219 2.277-1.219s1.769.456 2.277 1.219c1.369 2.052 2.236 4.364 2.567 6.781h-1.844c0-1.103-.897-2-2-2zm.001 4h-2.001v-2h2zm-12.001-4h-2c-1.103 0-2 .897-2 2h-1.844c.331-2.417 1.198-4.729 2.567-6.781.508-.763 1.36-1.219 2.277-1.219s1.769.456 2.277 1.219c1.369 2.052 2.236 4.364 2.567 6.781h-1.844c0-1.103-.897-2-2-2zm.001 4h-2.001v-2h2zm-11.001-4h-2c-1.103 0-2 .897-2 2h-.778c.405-2.595 1.363-5.075 2.837-7.287.298-.446.796-.713 1.334-.713.61 0 1.159.339 1.432.885 1.11 2.219 1.806 4.646 2.061 7.115h-.886c0-1.103-.897-2-2-2zm.001 4h-2.001v-2h2zm-9.001-4h-2c-.428 0-.823.138-1.149.368.539-1.989 1.326-3.91 2.353-5.71.233-.406.667-.658 1.134-.658.563 0 1.061.359 1.239.893l1.322 3.966c-.316 1.024-.549 2.074-.698 3.141h-.201c0-1.103-.897-2-2-2zm.001 4h-2.001v-2h2zm3.999-20h42c3.309 0 6 2.691 6 6v2.97c-.613-.612-1.452-.97-2.338-.97-1.426 0-2.686.909-3.136 2.26l-.571 1.713c-.397-.814-.843-1.607-1.351-2.369-.668-1.004-1.789-1.604-2.997-1.604-1.373 0-2.607.763-3.221 1.991-.628 1.256-1.131 2.573-1.515 3.925-.491-1.33-1.132-2.609-1.931-3.806-.879-1.321-2.353-2.11-3.94-2.11s-3.061.789-3.941 2.109c-.873 1.309-1.554 2.715-2.058 4.179-.504-1.465-1.186-2.871-2.059-4.179-.881-1.32-2.355-2.109-3.942-2.109s-3.061.789-3.941 2.109c-.799 1.198-1.44 2.476-1.93 3.807-.384-1.352-.887-2.669-1.515-3.925-.614-1.228-1.848-1.991-3.221-1.991-1.208 0-2.328.6-2.997 1.604-.508.762-.954 1.555-1.35 2.369l-.57-1.712c-.453-1.352-1.712-2.261-3.138-2.261-.886 0-1.725.358-2.338.97v-2.97c0-3.309 2.691-6 6-6zm-2.995 24h-4.005c-.552 0-1-.449-1-1v-.276c0-.708.043-1.414.104-2.117.259.805 1.006 1.393 1.896 1.393h2c1.103 0 2-.897 2-2h.029c-.011.273-.03.545-.03.819v2.181c0 .002.001.004.001.007-.001.548-.447.993-.995.993zm9.995 0h-6.001c-.55 0-.996-.446-.999-.995v-1.005h-.001v-1.181c0-.274.018-.547.03-.819h.971c0 1.103.897 2 2 2h2c1.103 0 2-.897 2-2h.997c0 .033.003.065.003.098v.113 2.789c0 .551-.448 1-1 1zm12 0h-8c-.552 0-1-.449-1-1v-2.789c0-.071.007-.14.008-.211h1.992c0 1.103.897 2 2 2h2c1.103 0 2-.897 2-2h1.992c.001.07.008.139.008.208v.002 2.79c0 .551-.448 1-1 1zm12 0h-8c-.552 0-1-.449-1-1v-2.789c0-.071.007-.14.008-.211h1.992c0 1.103.897 2 2 2h2c1.103 0 2-.897 2-2h1.992c.001.07.008.139.008.208v2.792c0 .551-.448 1-1 1zm10.001 0h-6.001c-.552 0-1-.449-1-1v-2.792-.111c0-.033.003-.065.003-.098h.997c0 1.103.897 2 2 2h2c1.103 0 2-.897 2-2h.971c.012.273.03.545.03.819v1.182h-.001v1.005c-.003.549-.449.995-.999.995zm8.999-1c0 .551-.448 1-1 1h-4.005c-.548 0-.994-.445-.995-.993 0-.002.001-.004.001-.007v-2.182c0-.274-.019-.546-.03-.818h.029c0 1.103.897 2 2 2h2c.89 0 1.637-.588 1.896-1.393.061.703.104 1.409.104 2.117z" fill="#000000" data-original="#000000" class=""></path><path d="m60 35h-4.005c-.77 0-1.465.3-1.996.779-.532-.479-1.228-.779-1.998-.779h-6.001c-.771 0-1.468.301-2 .78-.532-.48-1.229-.78-2-.78h-8c-.771 0-1.468.301-2 .78-.532-.48-1.229-.78-2-.78h-8c-.771 0-1.468.301-2 .78-.532-.48-1.229-.78-2-.78h-6.001c-.77 0-1.466.3-1.998.779-.531-.479-1.227-.779-1.996-.779h-4.005c-1.654 0-3 1.346-3 3v.276c0 3.454.687 6.875 2 10.055v6.669c0 4.411 3.589 8 8 8h42c4.411 0 8-3.589 8-8v-6.669c1.313-3.18 2-6.601 2-10.055v-.276c0-1.654-1.346-3-3-3zm-14 2h6.001c.55 0 .996.446.999.995v1.005h.001v1.181c0 .274-.018.547-.03.819h-.971c0-1.103-.897-2-2-2h-2c-1.102 0-1.998.895-2 1.997l-.998-.003c0-.031-.003-.061-.003-.092v-.111-2.791c.001-.551.449-1 1.001-1zm11 8h2c.428 0 .823-.138 1.149-.368-.539 1.989-1.326 3.91-2.353 5.71-.233.406-.667.658-1.134.658-.563 0-1.061-.359-1.239-.893l-1.322-3.966c.316-1.025.549-2.075.699-3.141h.2c0 1.103.897 2 2 2zm-.001-4h2.001v2h-2zm-7.059 9.287c-.297.446-.795.713-1.333.713-.61 0-1.159-.339-1.432-.885-1.111-2.221-1.807-4.649-2.061-7.12l.886.002v.003c0 1.103.897 2 2 2h2c1.103 0 2-.897 2-2h.778c-.405 2.595-1.363 5.075-2.838 7.287zm-46.089-5.655c.325.23.721.368 1.149.368h2c1.103 0 2-.897 2-2h.201c.15 1.067.382 2.116.698 3.141l-1.323 3.966c-.178.534-.675.893-1.238.893-.467 0-.901-.252-1.134-.658-1.028-1.8-1.815-3.722-2.353-5.71zm1.149-1.632v-2h2v2zm6.222 0h.778c0 1.103.897 2 2 2h2c1.103 0 2-.897 2-2h.885c-.255 2.469-.951 4.896-2.061 7.115-.272.546-.821.885-1.431.885-.537 0-1.035-.267-1.333-.713-1.475-2.212-2.433-4.692-2.838-7.287zm2.778 0v-2h2v2zm11 2h2c1.103 0 2-.897 2-2h1.844c-.331 2.417-1.198 4.729-2.567 6.781-.508.763-1.36 1.219-2.277 1.219s-1.769-.456-2.277-1.219c-1.368-2.053-2.236-4.365-2.567-6.781h1.844c0 1.103.897 2 2 2zm0-2v-2h2v2zm12 2h2c1.103 0 2-.897 2-2v-.018l1.846.005c-.33 2.421-1.197 4.737-2.568 6.793-.509.764-1.361 1.22-2.278 1.22s-1.769-.456-2.277-1.219c-1.368-2.053-2.236-4.365-2.567-6.781h1.844c0 1.103.897 2 2 2zm0-2v-2h2v2zm10.999-2h2.001v2h-2zm-13.999-4h8c.552 0 1 .449 1 1v2.792c0 .066-.006.131-.007.197l-1.995-.006c-.009-1.095-.902-1.983-1.998-1.983h-2c-1.103 0-2 .897-2 2h-1.992c-.001-.071-.008-.14-.008-.211v-2.789c0-.551.448-1 1-1zm-12 0h8c.552 0 1 .449 1 1v2.789.002c0 .07-.007.139-.008.208h-1.992c0-1.103-.897-2-2-2h-2c-1.103 0-2 .897-2 2h-1.992c-.001-.07-.008-.139-.008-.21v-2.789c0-.551.448-1 1-1zm-10.001 0h6.001c.552 0 1 .449 1 1v2.789.113c0 .033-.003.065-.003.098h-.997c0-1.103-.897-2-2-2h-2c-1.103 0-2 .897-2 2h-.971c-.012-.273-.03-.545-.03-.819v-1.181h.001v-1.005c.003-.549.449-.995.999-.995zm-8.999 1c0-.551.448-1 1-1h4.005c.548 0 .994.445.995.993 0 .003-.001.005-.001.007v2.182c0 .274.019.546.03.818h-.029c0-1.103-.897-2-2-2h-2c-.89 0-1.637.588-1.896 1.393-.061-.703-.104-1.409-.104-2.117zm50 23h-42c-3.309 0-6-2.691-6-6v-2.97c.613.612 1.452.97 2.338.97 1.426 0 2.686-.909 3.136-2.26l.571-1.713c.397.814.843 1.607 1.351 2.369.668 1.004 1.789 1.604 2.997 1.604 1.373 0 2.607-.763 3.221-1.991.628-1.256 1.131-2.573 1.515-3.925.491 1.33 1.132 2.609 1.93 3.807.88 1.32 2.354 2.109 3.941 2.109s3.061-.789 3.941-2.109c.873-1.309 1.554-2.715 2.059-4.179.504 1.464 1.186 2.871 2.058 4.179.881 1.32 2.355 2.109 3.942 2.109s3.061-.789 3.941-2.109c.799-1.198 1.44-2.476 1.931-3.806.384 1.351.887 2.669 1.515 3.924.613 1.228 1.847 1.991 3.22 1.991 1.208 0 2.328-.6 2.997-1.604.508-.762.954-1.555 1.35-2.369l.57 1.712c.453 1.352 1.712 2.261 3.138 2.261.886 0 1.725-.358 2.338-.97v2.97c0 3.309-2.691 6-6 6zm8-22.724c0 .708-.043 1.414-.104 2.117-.259-.805-1.006-1.393-1.896-1.393h-2c-1.103 0-2 .897-2 2h-.029c.011-.273.03-.545.03-.819v-2.181c0-.002-.001-.004-.001-.007.001-.548.447-.993.995-.993h4.005c.552 0 1 .449 1 1z" fill="#000000" data-original="#000000" class=""></path></g></g></g></svg>