<svg xmlns="http://www.w3.org/2000/svg" version="1.1" xmlns:xlink="http://www.w3.org/1999/xlink" xmlns:svgjs="http://svgjs.com/svgjs" width="512" height="512" x="0" y="0" viewBox="0 0 512 512" style="enable-background:new 0 0 512 512" xml:space="preserve" class=""><g><path d="M256 0C167.457 0 0 12.484 0 59.734V128a17.006 17.006 0 0 0 8.535 14.695v10.907c0 14.136 11.461 25.597 25.598 25.597h10.105a25.594 25.594 0 0 0 24.028 17.067h25.601c4.41-.024 8.738-1.2 12.551-3.414A25.553 25.553 0 0 0 128 204.8h34.133a25.36 25.36 0 0 0 12.554-3.414 25.538 25.538 0 0 0 21.579 11.945h42.668A25.423 25.423 0 0 0 256 206.676a25.423 25.423 0 0 0 17.066 6.656h42.668a25.538 25.538 0 0 0 21.579-11.945 25.36 25.36 0 0 0 12.554 3.414H384a25.553 25.553 0 0 0 21.582-11.95 25.253 25.253 0 0 0 12.55 3.415h25.602a25.594 25.594 0 0 0 24.028-17.067h10.105c14.137 0 25.598-11.46 25.598-25.597v-10.907A17.006 17.006 0 0 0 512 128V59.734C512 12.484 344.543 0 256 0zm0 17.066c154.598 0 238.934 28.16 238.934 42.668v50.575a22.004 22.004 0 0 0-15.164-5.7 25.374 25.374 0 0 0-15.215 5.121 33.276 33.276 0 0 0-30.301-16.843 41.459 41.459 0 0 0-30.629 13.61 36.508 36.508 0 0 0-32.938-17.376 46.339 46.339 0 0 0-35.214 16.215 40.108 40.108 0 0 0-36.805-20.004A51.207 51.207 0 0 0 256 108.289a51.207 51.207 0 0 0-42.668-22.957 40.11 40.11 0 0 0-36.836 20.04 46.328 46.328 0 0 0-35.219-16.216 36.482 36.482 0 0 0-32.902 17.34 41.467 41.467 0 0 0-30.602-13.578 33.283 33.283 0 0 0-30.328 16.848 25.36 25.36 0 0 0-15.207-5.121 22.01 22.01 0 0 0-15.172 5.664V59.734c0-14.507 84.336-42.668 238.934-42.668zM25.602 153.602V130.84c0-1.528.324-9.164 6.636-9.164 6.52 1.066 11.086 7.02 10.43 13.594v26.863h-8.535a8.532 8.532 0 0 1-8.531-8.531zm68.265 25.597H68.266a8.532 8.532 0 0 1-8.532-8.531V128a16.945 16.945 0 0 1 4.93-13.082 16.962 16.962 0 0 1 13.082-4.934c13.61.016 24.64 11.047 24.652 24.657v36.027c0 4.71-3.82 8.531-8.53 8.531zm68.266 8.535H128a8.536 8.536 0 0 1-8.535-8.535V128a20.842 20.842 0 0 1 6.078-15.734 20.842 20.842 0 0 1 15.734-6.079c16.227.02 29.375 13.172 29.391 29.399v43.613a8.534 8.534 0 0 1-8.535 8.535zm76.8 8.532h-42.667a8.532 8.532 0 0 1-8.532-8.532V128a24.453 24.453 0 0 1 25.598-25.602c18.852 0 34.133 15.286 34.133 34.137v51.2c0 4.71-3.82 8.53-8.531 8.53zm85.333-8.532c0 4.711-3.82 8.532-8.532 8.532h-42.668a8.532 8.532 0 0 1-8.53-8.532v-51.199c0-18.851 15.28-34.137 34.132-34.137A24.453 24.453 0 0 1 324.266 128zm68.27-8.535a8.536 8.536 0 0 1-8.536 8.535h-34.133a8.534 8.534 0 0 1-8.535-8.535v-43.613c.016-16.227 13.164-29.379 29.39-29.399a20.842 20.842 0 0 1 15.735 6.079A20.842 20.842 0 0 1 392.535 128zm59.73-8.531c0 4.71-3.82 8.531-8.532 8.531h-25.601a8.532 8.532 0 0 1-8.531-8.531v-36.027c.011-13.61 11.043-24.641 24.652-24.657a16.962 16.962 0 0 1 13.082 4.934 16.945 16.945 0 0 1 4.93 13.082zm34.132-17.066c0 4.71-3.82 8.53-8.53 8.53h-8.536V135.27c-.656-6.575 3.914-12.532 10.438-13.594 6.316 0 6.628 7.636 6.628 9.164zM8.535 277.188v65.914c0 45.847 161.875 57.964 247.465 57.964s247.465-12.117 247.465-57.964v-65.914a16.717 16.717 0 0 0-8.863-14.704 31.76 31.76 0 0 0 .332-4.265v-14.84c-.016-13.805-11.207-24.992-25.012-25.004h-1.176a24.954 24.954 0 0 0-17.851 7.535 33.17 33.17 0 0 0-23.375-9.633H417.28a33.214 33.214 0 0 0-25.781 12.356 32.776 32.776 0 0 0-15.145-3.82h-18.808a33.136 33.136 0 0 0-28.406 16.21 32.967 32.967 0 0 0-21.02-7.68h-27.375A33.026 33.026 0 0 0 256 244.567a33.026 33.026 0 0 0-24.746-11.222h-27.309a32.948 32.948 0 0 0-21.015 7.68 33.14 33.14 0 0 0-28.407-16.211H135.68a32.764 32.764 0 0 0-15.145 3.82 33.223 33.223 0 0 0-25.816-12.356H84.48a33.153 33.153 0 0 0-23.375 9.633 24.97 24.97 0 0 0-17.851-7.535h-1.176c-13.805.016-24.992 11.2-25.012 25.004v14.812c.016 1.43.125 2.856.332 4.27a16.718 16.718 0 0 0-8.863 14.727zm452.266-33.81c.008-4.382 3.562-7.929 7.945-7.937h1.176a7.958 7.958 0 0 1 7.945 7.938v14.812c0 1.54-.316 9.176-6.633 9.176-6.523-1.062-11.093-7.02-10.433-13.594zm-43.52-10.034h10.239c8.953 0 16.214 7.258 16.214 16.215v32.894a16.395 16.395 0 0 1-18.007 17.067h-1.192a22.805 22.805 0 0 1-14.933-5.497v-35.968a32.955 32.955 0 0 0-5.352-17.918 16.07 16.07 0 0 1 13.031-6.793zm-75.949 24.746c0-8.953 7.262-16.211 16.215-16.211h18.773c8.953 0 16.215 7.258 16.215 16.21v41.2A20.185 20.185 0 0 1 370.723 320h-1.305c-15.488-.043-28.031-12.582-28.086-28.066v-33.88zm-60.586-7.68h27.309c8.953 0 16.21 7.258 16.21 16.215v49.441c0 4.422 0 16.215-25.597 16.215h-1.469a32.711 32.711 0 0 1-23.12-9.613 32.675 32.675 0 0 1-9.544-23.148v-32.93c.016-8.942 7.27-16.18 16.211-16.18zm-76.8 0h27.308c8.953 0 16.21 7.258 16.21 16.215v32.895c-.023 18.03-14.632 32.64-32.663 32.656h-1.469c-25.598 0-25.598-11.758-25.598-16.211V266.59c.02-8.942 7.27-16.18 16.211-16.18zm-49.423-8.531c8.954 0 16.211 7.258 16.211 16.21v33.88c-.07 15.5-12.652 28.027-28.152 28.031h-1.305a20.174 20.174 0 0 1-15.547-5.492 20.197 20.197 0 0 1-6.265-15.254v-41.2c0-8.952 7.262-16.21 16.215-16.21zm-69.976-8.535h10.242a16.085 16.085 0 0 1 13.031 6.758 32.958 32.958 0 0 0-5.351 17.921v35.957a22.783 22.783 0 0 1-14.934 5.547H86.34a16.39 16.39 0 0 1-18.074-17.074v-32.937c.023-8.938 7.277-16.172 16.214-16.172zm-50.414 10.035a7.948 7.948 0 0 1 7.945-7.938h1.176a7.945 7.945 0 0 1 7.945 7.938v10.394c.66 6.575-3.906 12.528-10.426 13.594-6.316 0-6.64-7.68-6.64-9.176zm6.64 41.055a24.966 24.966 0 0 0 10.426-2.32v.34a33.488 33.488 0 0 0 35.074 34.133h1.192a40.398 40.398 0 0 0 17.215-3.942c5.316 15.445 20.293 25.44 36.597 24.421h1.305a44.785 44.785 0 0 0 29.477-11.222c3.097 10.676 12.8 23.418 41.273 23.418h1.469A49.72 49.72 0 0 0 256 327.372a49.714 49.714 0 0 0 41.2 21.905h1.468c28.508 0 38.176-12.738 41.273-23.414a44.793 44.793 0 0 0 29.477 11.203h1.305c16.3 1.032 31.277-8.957 36.597-24.398a40.331 40.331 0 0 0 17.215 3.945h1.192c9.27.442 18.3-2.98 24.949-9.453a33.488 33.488 0 0 0 10.125-24.68v-.394a24.83 24.83 0 0 0 10.433 2.328 21.974 21.974 0 0 0 15.164-5.68v64.368C486.398 356.984 405.078 384 256 384S25.602 356.984 25.602 343.102l-.293-64.668a21.926 21.926 0 0 0 15.464 6zm0 0" fill="#157fb4" data-original="#000000" class=""></path></g></svg>