<svg xmlns="http://www.w3.org/2000/svg" version="1.1" xmlns:xlink="http://www.w3.org/1999/xlink" xmlns:svgjs="http://svgjs.com/svgjs" width="512" height="512" x="0" y="0" viewBox="0 0 496 496" style="enable-background:new 0 0 512 512" xml:space="preserve" class=""><g><path xmlns="http://www.w3.org/2000/svg" d="m240 376v-16h2.800781c76.71875 0 146.878907 43.359375 181.199219 112v16h-416v-16c17.121094-34.320312 43.28125-62.320312 74.71875-81.761719 31.359375-19.359375 68.160156-30.238281 106.480469-30.238281h2.800781v43.121094c0 1.597656.078125 3.277344.160156 4.878906.878906 17.121094 6.320313 33.679688 15.839844 48h16c9.519531-14.320312 14.960938-30.878906 15.839844-48 .082031-1.601562.160156-3.28125.160156-4.878906zm0 0" fill="#ef7385" data-original="#ef7385"></path><g xmlns="http://www.w3.org/2000/svg" fill="#ffeaa7"><path d="m192.160156 408h47.679688c-.878906 17.121094-6.320313 33.679688-15.839844 48h-16c-9.519531-14.320312-14.960938-30.878906-15.839844-48zm0 0" fill="#ffeaa7" data-original="#ffeaa7"></path><path d="m192 312h48v32h-48zm0 0" fill="#ffeaa7" data-original="#ffeaa7"></path><path d="m240 376v27.121094c0 1.597656-.078125 3.277344-.160156 4.878906h-47.679688c-.082031-1.601562-.160156-3.28125-.160156-4.878906v-27.121094zm0 0" fill="#ffeaa7" data-original="#ffeaa7"></path><path d="m240 360v16h-48v-32h48zm0 0" fill="#ffeaa7" data-original="#ffeaa7"></path></g><path xmlns="http://www.w3.org/2000/svg" d="m256 288v16c0 4.398438-3.601562 8-8 8h-64c-4.398438 0-8-3.601562-8-8v-16c0-4.398438 3.601562-8 8-8h64c4.398438 0 8 3.601562 8 8zm0 0" fill="#fcd770" data-original="#fcd770"></path><path xmlns="http://www.w3.org/2000/svg" d="m192 216h48v32h-48zm0 0" fill="#ffeaa7" data-original="#ffeaa7"></path><path xmlns="http://www.w3.org/2000/svg" d="m256 184 8 32h-96l8-32zm0 0" fill="#fcd770" data-original="#fcd770"></path><path xmlns="http://www.w3.org/2000/svg" d="m360 80v6.320312c0 16.640626-5.761719 32.71875-16.238281 45.601563-13.121094 16-24.082031 33.519531-32.722657 52.078125h-190.078124c-8.640626-18.558594-19.601563-36.078125-32.722657-52.078125-10.476562-12.882813-16.238281-28.960937-16.238281-45.601563v-6.320312c0-39.761719 32.238281-72 72.078125-72 15.523437 0 30.640625 5.039062 43.121094 14.398438 8.320312 6.242187 18.402343 9.601562 28.800781 9.601562s20.480469-3.359375 28.800781-9.601562c12.480469-9.359376 27.597657-14.398438 43.121094-14.398438 39.839844-.078125 72.078125 32.160156 72.078125 72zm0 0" fill="#e6e9ed" data-original="#e6e9ed" class=""></path><path xmlns="http://www.w3.org/2000/svg" d="m216 72c18.894531 0 37.640625-6.238281 52.792969-17.585938 5.503906-4.132812 12.320312-6.40625 19.175781-6.414062l-.015625-16c-10.289063.007812-20.503906 3.425781-28.753906 9.609375-12.390625 9.277344-27.734375 14.390625-43.199219 14.390625s-30.824219-5.128906-43.230469-14.414062c-8.21875-6.171876-18.433593-9.578126-28.769531-9.585938l-.015625 16c6.894531.007812 13.703125 2.273438 19.183594 6.390625 15.175781 11.351563 33.9375 17.609375 52.832031 17.609375zm0 0" fill="#000000" data-original="#000000"></path><path xmlns="http://www.w3.org/2000/svg" d="m113.695312 187.375 2.152344 4.625h49.90625l-8 32h26.246094v32h64v-32h26.246094l-8-32h49.90625l2.152344-4.625c8.429687-18.117188 19.0625-35.078125 31.617187-50.421875 11.664063-14.257813 18.078125-32.242187 18.078125-50.648437v-6.3125c0-21.382813-8.335938-41.488282-23.464844-56.601563-15.101562-15.085937-35.175781-23.390625-56.519531-23.390625-.03125 0-.0625 0-.09375 0-17.152344.015625-34.160156 5.695312-47.914063 16-13.769531 10.3125-34.222656 10.328125-48.039062-.015625-13.746094-10.296875-30.761719-15.9765625-47.914062-15.984375-.023438 0-.039063 0-.0625 0-21.351563 0-41.433594 8.3125-56.535157 23.40625-15.128906 15.105469-23.457031 35.210938-23.457031 56.585938v6.3125c0 18.40625 6.425781 36.390624 18.078125 50.65625 12.554687 15.335937 23.195313 32.296874 31.617187 50.414062zm118.304688 52.625h-32v-16h32zm21.753906-32h-75.507812l4-16h67.507812zm-173.753906-128.007812c0-17.105469 6.664062-33.175782 18.761719-45.265626 12.085937-12.078124 28.140625-18.726562 45.230469-18.726562h.046874c13.730469.007812 27.335938 4.542969 38.351563 12.816406 19.273437 14.421875 47.90625 14.457032 67.234375-.03125 10.992188-8.234375 24.589844-12.769531 38.3125-12.785156h.078125c17.074219 0 33.128906 6.640625 45.214844 18.710938 12.105469 12.097656 18.769531 28.167968 18.769531 45.28125v6.3125c0 14.726562-5.136719 29.121093-14.464844 40.519531-12.328125 15.054687-22.917968 31.574219-31.535156 49.167969h-180c-8.617188-17.59375-19.207031-34.121094-31.535156-49.167969-9.328125-11.398438-14.464844-25.792969-14.464844-40.519531zm0 0" fill="#000000" data-original="#000000"></path><path xmlns="http://www.w3.org/2000/svg" d="m431.160156 468.425781c-35.128906-70.25-104.984375-114.347656-183.160156-116.242187v-32.183594c8.824219 0 16-7.175781 16-16v-16c0-8.824219-7.175781-16-16-16h-64c-8.824219 0-16 7.175781-16 16v16c0 8.824219 7.175781 16 16 16v32.183594c-78.175781 1.894531-148.03125 45.992187-183.160156 116.242187l-.839844 1.6875v25.886719h432v-25.886719zm-231.160156-116.425781h32v16h-32zm32 48h-32v-16h32zm-1.007812 16c-1.671876 11.289062-5.480469 22.144531-11.390626 32h-7.203124c-5.910157-9.855469-9.71875-20.710938-11.390626-32zm-46.992188-128h64l.007812 16h-64.007812zm48 32v16h-32v-16zm184 160h-400v-6.097656c32.664062-63.8125 96.542969-103.847656 168-105.726563v34.976563c0 20.457031 6 40.261718 17.34375 57.28125l2.375 3.566406h24.5625l2.375-3.558594c11.34375-17.015625 17.34375-36.832031 17.34375-57.28125v-34.976562c71.457031 1.871094 135.335938 41.90625 168 105.726562zm0 0" fill="#000000" data-original="#000000"></path><path xmlns="http://www.w3.org/2000/svg" d="m368 200v121.902344l-25.855469-31.03125-12.289062 10.257812 46.144531 55.367188 46.144531-55.367188-12.289062-10.257812-25.855469 31.03125v-121.902344zm0 0" fill="#000000" data-original="#000000"></path><path xmlns="http://www.w3.org/2000/svg" d="m102.144531 301.128906-12.289062-10.257812-25.855469 31.03125v-121.902344h-16v121.902344l-25.855469-31.03125-12.289062 10.257812 46.144531 55.367188zm0 0" fill="#000000" data-original="#000000"></path></g></svg>