<svg xmlns="http://www.w3.org/2000/svg" version="1.1" xmlns:xlink="http://www.w3.org/1999/xlink" xmlns:svgjs="http://svgjs.com/svgjs" width="512" height="512" x="0" y="0" viewBox="0 0 512.01 512.01" style="enable-background:new 0 0 512 512" xml:space="preserve" class=""><g><g xmlns="http://www.w3.org/2000/svg"><g><path d="m420.389 51.964-66.427-9.389c-33.069-4.674-66.012 9.314-85.616 36.353-6.086 8.395-18.596 8.395-24.682 0-19.603-27.039-52.547-41.027-85.616-36.353l-66.427 9.389c-5.768.815-11.349 2.119-16.705 3.863 0 0-2.513 1.099-3.815 1.586-41.59 15.552-67.255 58.136-61.415 103.979 1.745 13.702 13.005 22.809 26.818 22.809l439.608.043c3.178 0 5.474-.368 8.33-1.372 1.167-.41 4.539-.751 4.539-.751 7.842-4.013 13.551-11.706 14.731-20.967 6.758-53.06-30.363-101.704-83.323-109.19z" fill="#e27f86" data-original="#e27f86"></path><path d="m486.785 162.209-1.24-8.06c-3.27-21.28-21.28-36.73-42.81-36.73-11.614 0-22.193 4.5-29.99 11.981-1.56 1.496-4.001 1.497-5.561.001-7.805-7.482-18.384-11.982-29.999-11.982-12.983 0-24.687 5.621-32.652 14.753-1.479 1.696-4.064 1.859-5.71.326-10.129-9.433-23.724-15.079-38.607-15.079-16.234 0-30.941 6.714-41.301 17.738-1.579 1.68-4.239 1.68-5.819 0-10.36-11.024-25.067-17.738-41.301-17.738-14.885 0-28.473 5.655-38.615 15.091-1.647 1.532-4.232 1.367-5.71-.329-7.958-9.134-19.662-14.762-32.645-14.762-11.616 0-22.195 4.501-30 11.976-1.56 1.494-3.999 1.493-5.558-.001-7.798-7.475-18.377-11.975-29.992-11.975-17.657-.134-33.136 10.772-39.876 26.458-.869 2.022-3.897 1.329-3.831-.871 1.09-36.672 20.291-69.571 49.434-87.207-43.87 14.23-72.728 58.04-66.708 105.35.87 6.86 4.23 12.85 9.09 17.13 4.264 3.601 10.822 6.98 18.13 6.84h18 422.98c4.48 0 8.735-1.07 12.485-3-.438-6.669-1.184-13.33-2.194-19.91z" fill="#df646e" data-original="#df646e"></path><path d="m483.878 387.541-455.128-.702c-11.046 0-20-8.954-20-20l-.351-68.085c0-7.518 3.666-13.562 9.798-16.979 1.469-.818 4.307-2.83 4.307-2.83 1.598-.412 3.274-.63 5.001-.63h457c11.046 0 20 8.954 20 20v70c0 1.728-.219 3.405-.631 5.005 0 0-3.288 4.344-4.784 6.371-3.642 4.936-8.607 7.85-15.212 7.85z" fill="#b9c3cd" data-original="#b9c3cd" class=""></path><g><path d="m377.188 131.424c-4.331 0-8.468.946-12.198 2.654 0 0-2.67 2.166-3.96 3.027-6.646 4.437-10.326 11.044-11.617 19.436l-3.83 24.422-.106 33.429c0 8.284 6.716 15 15 15l33.915.596c7.458 0 13.785-5.06 15.037-12.106.139-.781.531-2.378.531-2.378v-34.54l-3.797-24.682c-2.2-14.301-14.505-24.858-28.975-24.858z" fill="#f9f8f9" data-original="#f9f8f9" class=""></path><path d="m409.961 215.499c0 8.29-6.72 15-15 15h-35.55c-8.28 0-15-6.71-15-15l-2.146-16.192 2.146-18.348 3.8-24.68c1.54-10.02 8.039-18.201 16.779-22.201l-3.709 31.941c-1.24 10.72-1.87 21.5-1.87 32.29v8.19c0 4.97 4.03 9 9 9z" fill="#e8e8e8" data-original="#e8e8e8" class=""></path></g><path d="m503.874 373.319c-2.22 8.62-10.049 15-19.369 15h-457c-11.05 0-20-8.96-20-20v-70c0-9.32 6.369-17.155 14.999-19.374l.001 85.374c0 4.97 4.03 9 9 9z" fill="#a2abb8" data-original="#a2abb8"></path><path d="m206.345 308.319 4.923 25.315-4.923 24.685h-80.45l-5.741-25.004 5.741-24.996z" fill="#e8e8e8" data-original="#e8e8e8" class=""></path><path d="m385.115 308.319 6.018 24.996-6.018 25.004h-89.39l-5.358-24.685 5.358-25.315z" fill="#ffe07d" data-original="#ffe07d"></path><path d="m243.541 422.754-22.28 33.149c-4.044 5.924-.766 14.203 6.406 14.203l.149.227h46.547c7.172 0 11.414-8.032 7.37-13.956l-22.198-32.517-1.252-1.106c-3.544-5.19-11.199-5.19-14.742 0z" fill="#b9c3cd" data-original="#b9c3cd" class=""></path><path d="m259.534 423.86-31.719 46.473-.11-.003c-7.17 0-11.41-8.03-7.37-13.95l23.33-34.17c3.54-5.19 11.2-5.19 14.74 0z" fill="#a2abb8" data-original="#a2abb8"></path><path d="m125.895 308.319v50h-83.39c-2.76 0-5-2.24-5-5v-40c0-2.77 2.24-5 5-5z" fill="#dcdbdd" data-original="#dcdbdd"></path><path d="m206.345 308.319h89.38v50h-89.38z" fill="#f9f8f9" data-original="#f9f8f9" class=""></path><path d="m474.505 313.319v40c0 2.76-2.24 5-5 5h-84.39v-50h84.39c2.76 0 5 2.23 5 5z" fill="#ffd064" data-original="#ffd064"></path><g><path d="m300.208 131.424c-11.211 0-21.529 4.357-29.208 11.573 0 0-1.643 3.069-2.694 4.311-4.936 5.831-7.98 12.517-9.213 20.532l-2.043 13.316v39.726c-1.048 8.093 6.077 16.34 14.362 16.34l56.723.128c7.664 0 14.816-5.126 15.883-12.447.086-.592.394-1.777.394-1.777v-42.162l-2.059-13.382c-3.199-20.803-21.098-36.158-42.145-36.158z" fill="#f9f8f9" data-original="#f9f8f9" class=""></path><path d="m344.413 223.129c0 8.28-6.72 15-15 15h-58.41c-8.284 0-15-6.716-15-15v-7.626l-3.952-15.303 3.952-19.242 2.06-13.38c1.5-9.72 6.197-18.253 12.937-24.583l.003 72.133c0 4.418 3.582 8 8 8h65.41z" fill="#e8e8e8" data-original="#e8e8e8" class=""></path></g><g><path d="m211.8 131.424c-11.211 0-21.529 4.357-29.208 11.573 0 0-1.643 3.069-2.694 4.311-4.936 5.831-7.98 12.517-9.213 20.532l-2.043 13.316v39.726c-1.048 8.093 6.077 16.34 14.362 16.34l56.723.128c7.664 0 14.816-5.126 15.883-12.447.086-.592.394-1.777.394-1.777v-42.162l-2.059-13.382c-3.199-20.803-21.098-36.158-42.145-36.158z" fill="#f9f8f9" data-original="#f9f8f9" class=""></path><path d="m256.005 223.129c0 8.28-6.72 15-15 15h-58.41c-8.284 0-15-6.716-15-15v-7.626l-3.952-15.303 3.952-19.242 2.06-13.38c1.5-9.72 6.197-18.253 12.937-24.583l.003 72.133c0 4.418 3.582 8 8 8h65.41z" fill="#e8e8e8" data-original="#e8e8e8" class=""></path></g><g><path d="m134.822 131.424c-4.331 0-8.468.946-12.198 2.654 0 0-2.67 2.166-3.96 3.027-6.646 4.437-10.326 11.044-11.617 19.436l-3.83 24.422-.106 33.429c0 8.284 6.716 15 15 15l33.915.596c7.458 0 13.785-5.06 15.037-12.106.139-.781.531-2.378.531-2.378v-34.54l-3.797-24.682c-2.199-14.301-14.505-24.858-28.975-24.858z" fill="#f9f8f9" data-original="#f9f8f9" class=""></path><path d="m167.595 215.499c0 8.29-6.72 15-15 15h-35.55c-8.28 0-15-6.71-15-15l-2.146-16.192 2.146-18.348 3.8-24.68c1.54-10.02 8.039-18.201 16.779-22.201l-3.709 31.941c-1.24 10.72-1.87 21.5-1.87 32.29v8.19c0 4.97 4.03 9 9 9z" fill="#e8e8e8" data-original="#e8e8e8" class=""></path></g><g><path d="m69.277 131.424c-4.736 0-9.239 1.131-13.233 3.153 0 0-1.552 2.002-2.454 2.592-6.767 4.426-10.598 10.798-11.904 19.287l-1.791 10.428c-1.471 9.56-2.209 19.218-2.209 28.891l.092 24.101c0 5.835 3.384 11.14 8.674 13.601l13.18 6.298c6.114 2.844 13.171 2.844 19.285 0l13.747-6.468c5.291-2.461 8.511-6.144 8.511-11.979l.874-6.269v-34.096l-3.797-24.682c-2.2-14.3-14.505-24.857-28.975-24.857z" fill="#f9f8f9" data-original="#f9f8f9" class=""></path><path d="m102.045 215.059v5.88c0 5.83-3.38 11.14-8.67 13.6l-14.46 6.72c-6.11 2.85-13.17 2.85-19.28 0l-14.46-6.72c-5.29-2.46-8.67-7.77-8.67-13.6v-25.45c0-9.67.74-19.33 2.21-28.89l1.59-10.32c1.48-9.62 7.529-17.553 15.739-21.702l-1.898 25.958c-.346 4.729-.84 9.444-1.403 14.152-.824 6.898-1.238 13.872-1.238 20.803v20.346c0 3.113 1.806 5.943 4.628 7.255l9.832 4.569c1.04.49 2.16.74 3.31.74 1.16 0 2.27-.25 3.32-.74z" fill="#e8e8e8" data-original="#e8e8e8" class=""></path></g><g><path d="m442.189 131.424c-4.736 0-9.239 1.131-13.233 3.153 0 0-1.552 2.002-2.454 2.592-6.767 4.426-10.598 10.798-11.904 19.287l-1.791 10.428c-1.471 9.56-2.209 19.218-2.209 28.891l.092 24.101c0 5.835 3.384 11.14 8.674 13.601l13.18 6.298c6.114 2.844 13.171 2.844 19.285 0l13.747-6.468c5.291-2.461 8.511-6.144 8.511-11.979l.874-6.269v-18.036c0-10.691-.816-21.366-2.442-31.932l-1.355-8.809c-2.2-14.301-14.505-24.858-28.975-24.858z" fill="#f9f8f9" data-original="#f9f8f9" class=""></path><path d="m474.957 215.059v5.88c0 5.83-3.38 11.14-8.67 13.6l-14.46 6.72c-6.11 2.85-13.17 2.85-19.28 0l-14.46-6.72c-5.29-2.46-8.67-7.77-8.67-13.6v-25.45c0-9.67.74-19.33 2.21-28.89l1.59-10.32c1.48-9.62 7.529-17.553 15.739-21.702l-1.898 25.958c-.346 4.729-.84 9.444-1.403 14.152-.824 6.898-1.238 13.872-1.238 20.803v20.346c0 3.113 1.806 5.943 4.628 7.255l9.832 4.569c1.04.49 2.16.74 3.31.74 1.16 0 2.27-.25 3.32-.74z" fill="#e8e8e8" data-original="#e8e8e8" class=""></path></g></g><g><path d="m29.004 192.008v28.929c0 8.717 5.107 16.726 13.011 20.402l14.456 6.724c4.069 1.893 8.437 2.839 12.806 2.839 4.368-.001 8.737-.947 12.806-2.839l14.456-6.724c3.396-1.58 6.272-3.963 8.452-6.855 3.488 2.224 7.624 3.52 12.059 3.52h35.545c3.987 0 7.733-1.047 10.984-2.874 3.992 6.301 11.021 10.496 19.016 10.496h58.41c5.758 0 11.016-2.177 15-5.748 3.984 3.571 9.242 5.748 15 5.748h58.41c7.995 0 15.024-4.195 19.016-10.496 3.251 1.827 6.997 2.874 10.984 2.874h35.546c4.435 0 8.571-1.295 12.059-3.52 2.18 2.892 5.055 5.275 8.452 6.855l14.456 6.723c4.069 1.894 8.437 2.84 12.806 2.84 4.367 0 8.736-.947 12.806-2.839l14.456-6.725c7.904-3.677 13.011-11.685 13.011-20.401v-28.929c14.596-2.778 26.208-14.71 28.145-29.909 3.52-27.629-3.847-55.039-20.744-77.181-16.896-22.142-41.39-36.482-68.968-40.38l-66.427-9.39c-35.909-5.08-71.448 10.011-92.738 39.377-1.474 2.032-3.758 3.198-6.269 3.198-2.51 0-4.795-1.166-6.269-3.198-21.29-29.364-56.82-44.455-92.738-39.377l-31.289 4.423c-4.101.579-6.956 4.374-6.376 8.476.713 4.091 4.372 6.956 8.476 6.376l31.289-4.423c30.392-4.294 60.474 8.475 78.494 33.33 4.328 5.97 11.04 9.394 18.413 9.394 7.374 0 14.085-3.424 18.413-9.394 18.021-24.854 48.104-37.624 78.494-33.33l66.427 9.39c48.626 6.873 83.138 52.098 76.933 100.813-1.005 7.882-6.575 14.21-13.834 16.492l-3.316-21.554c-2.783-18.089-18.087-31.218-36.389-31.218-14.229 0-26.644 7.938-32.773 19.972-6.129-12.033-18.543-19.972-32.773-19.972-15.637 0-29.079 9.589-34.399 23.663-2.832-4.553-6.397-8.661-10.601-12.142-3.19-2.643-7.919-2.198-10.56.993-2.642 3.19-2.197 7.918.993 10.56 6.637 5.495 11.013 13.211 12.322 21.726l1.972 12.814v41.589c0 4.136-3.364 7.5-7.5 7.5h-58.41c-4.136 0-7.5-3.364-7.5-7.5v-41.589l1.972-12.814c2.346-15.249 14.645-27.367 29.908-29.47 4.104-.565 6.972-4.35 6.406-8.453-.565-4.103-4.354-6.976-8.453-6.406-16.065 2.212-29.821 12.2-37.284 26.015-8.472-15.985-25.16-26.484-44.254-26.484-17.918 0-33.726 9.24-42.607 23.588-5.339-14.033-18.761-23.588-34.371-23.588-14.23 0-26.644 7.938-32.773 19.972-6.129-12.033-18.543-19.972-32.773-19.972-18.302 0-33.605 13.129-36.388 31.218l-3.316 21.554c-7.259-2.281-12.829-8.609-13.834-16.491-6.254-48.503 28.592-94.368 77.45-100.889 4.101-.585 6.95-4.384 6.365-8.484-.585-4.101-4.39-6.946-8.484-6.365-26.989 3.59-52.732 18.289-69.466 40.451-16.896 22.141-24.263 49.551-20.744 77.181 1.936 15.198 13.549 27.131 28.145 29.908zm413.73-53.085c10.845 0 19.914 7.78 21.562 18.499l3.71 24.114v39.4c0 2.906-1.702 5.575-4.337 6.801l-14.456 6.724c-4.119 1.916-8.842 1.916-12.959 0l-14.456-6.724c-2.635-1.225-4.337-3.895-4.337-6.801v-5.434-33.964l3.71-24.117c1.649-10.717 10.718-18.498 21.563-18.498zm-65.546 0c10.845 0 19.914 7.78 21.562 18.499l3.711 24.114v33.967c0 4.136-3.364 7.5-7.5 7.5h-35.546c-4.136 0-7.5-3.364-7.5-7.5v-33.964l3.71-24.117c1.649-10.718 10.718-18.499 21.563-18.499zm-202.093 42.614 1.971-12.814c2.657-17.267 17.265-29.799 34.734-29.799s32.077 12.532 34.734 29.799l1.971 12.814v41.59c0 4.136-3.364 7.5-7.5 7.5h-58.41c-4.136 0-7.5-3.364-7.5-7.5zm-65.545 0 3.709-24.114c1.649-10.719 10.718-18.499 21.563-18.499s19.914 7.78 21.563 18.499l3.71 24.114v33.968c0 4.136-3.364 7.5-7.5 7.5h-35.545c-4.136 0-7.5-3.364-7.5-7.5zm-65.546 0 3.709-24.114c1.649-10.719 10.718-18.499 21.563-18.499s19.914 7.78 21.563 18.499l3.71 24.114v33.968 5.434c0 2.906-1.703 5.575-4.337 6.801l-14.456 6.724c-4.118 1.915-8.842 1.916-12.959 0l-14.456-6.724c-2.634-1.225-4.337-3.895-4.337-6.801z" fill="#000000" data-original="#000000" class=""></path><path d="m484.505 270.815h-356.564c-4.142 0-7.5 3.357-7.5 7.5s3.358 7.5 7.5 7.5h356.564c6.893 0 12.5 5.607 12.5 12.5v70c0 6.893-5.607 12.5-12.5 12.5h-172.606c-4.143 0-7.5 3.357-7.5 7.5s3.357 7.5 7.5 7.5h172.606c15.163 0 27.5-12.337 27.5-27.5v-70c0-15.163-12.337-27.5-27.5-27.5z" fill="#000000" data-original="#000000" class=""></path><path d="m277.09 380.815h-249.585c-6.893 0-12.5-5.607-12.5-12.5v-70c0-6.893 5.607-12.5 12.5-12.5h65.373c4.142 0 7.5-3.357 7.5-7.5s-3.358-7.5-7.5-7.5h-65.373c-15.164 0-27.5 12.337-27.5 27.5v70c0 15.163 12.336 27.5 27.5 27.5h249.585c4.143 0 7.5-3.357 7.5-7.5s-3.357-7.5-7.5-7.5z" fill="#000000" data-original="#000000" class=""></path><path d="m30.005 313.315v40c0 6.893 5.607 12.5 12.5 12.5h427c6.893 0 12.5-5.607 12.5-12.5v-40c0-6.893-5.607-12.5-12.5-12.5h-427c-6.892 0-12.5 5.607-12.5 12.5zm258.224 37.5h-74.388v-35h74.388zm15-35h74.389v35h-74.389zm-104.388 35h-65.449v-35h65.449zm268.164 0h-74.388v-35h74.388zm-422-35h73.387v35h-73.387z" fill="#000000" data-original="#000000" class=""></path><path d="m264.599 417.977c-3.062-4.485-8.133-7.162-13.564-7.162s-10.502 2.677-13.564 7.162v.001l-23.327 34.17c-3.443 5.043-3.81 11.531-.958 16.931 2.852 5.399 8.417 8.754 14.523 8.754h46.654c6.106 0 11.671-3.354 14.523-8.754 2.852-5.399 2.484-11.888-.958-16.931zm11.022 44.097c-.266.504-.689.759-1.259.759h-46.654c-.57 0-.994-.256-1.259-.759-.266-.504-.238-.998.083-1.469l23.327-34.17c.351-.513.833-.62 1.176-.62s.826.107 1.176.62l23.327 34.17c.321.471.349.965.083 1.469z" fill="#000000" data-original="#000000" class=""></path></g></g></g></svg>