<svg xmlns="http://www.w3.org/2000/svg" version="1.1" xmlns:xlink="http://www.w3.org/1999/xlink" xmlns:svgjs="http://svgjs.com/svgjs" width="512" height="512" x="0" y="0" viewBox="0 0 64 64" style="enable-background:new 0 0 512 512" xml:space="preserve" class=""><g><g data-name="Layer 16"><path fill="#6db569" d="M45 53a3.618 3.618 0 0 1-3.236 2H41l1.19-3.562" data-original="#6db569" class=""></path><path fill="#6db569" d="M40 63v-6.415l-2.974-8.015L45 53v-.975a70.573 70.573 0 0 0-.711-10 7.973 7.973 0 0 0-1.517-3.663 7.985 7.985 0 0 0-4.656-3L34.25 34.5 24 34l-6.349.705a9.2 9.2 0 0 0-4.732 1.96 9.2 9.2 0 0 0-3.382 6.042L8 55l8 3v5" data-original="#6db569" class=""></path><path fill="#8cc687" d="M45 52.025a70.573 70.573 0 0 0-.711-10 7.985 7.985 0 0 0-6.173-6.667L34.25 34.5l-8.86-.43-5.74.637a9.2 9.2 0 0 0-8.114 8l-2 12.867L16 58v5h24v-6.415l-2.974-8.015L45 53z" data-original="#8cc687" class=""></path><path fill="#3f4042" d="M15 18.769V10a8 8 0 0 1 8-8h12a3 3 0 0 1 3 3 3 3 0 0 1 3 3v10.768z" data-original="#3f4042"></path><path fill="#5a5b5d" d="M41 8a3 3 0 0 0-3-3 3 3 0 0 0-3-3H23a7.95 7.95 0 0 0-4.23 1.219A7.96 7.96 0 0 0 17 8.23 8.771 8.771 0 0 0 25.77 17H41z" data-original="#5a5b5d"></path><path fill="#db9f95" d="M32 33.167V34a4 4 0 0 1-4 4 4 4 0 0 1-4-4v-.834z" data-original="#db9f95" class=""></path><path fill="#db9f95" d="M28.532 33.986c-.176.009-.353.014-.532.014a10 10 0 0 1-10-10v-8h8a10 10 0 0 0 8-4l4 4v8a9.959 9.959 0 0 1-1.289 4.915z" data-original="#db9f95" class=""></path><path fill="#efccbf" d="m28.669 33.9 8.042-4.986A9.959 9.959 0 0 0 38 24v-8l-4-4a10 10 0 0 1-8 4h-6v8a9.994 9.994 0 0 0 8.669 9.9z" data-original="#efccbf"></path><path fill="#efccbf" d="M28 35a10.008 10.008 0 0 1-2.944-.442A3.977 3.977 0 0 0 28.5 37.95 3.988 3.988 0 0 0 32 34v-.834h-.534l-2.934 1.819c-.176.01-.353.015-.532.015z" data-original="#efccbf"></path><g fill="#db9f95"><path d="M18 18h-1a3 3 0 0 0-3 3 3 3 0 0 0 3 3h1M38 18h1a3 3 0 0 1 3 3 3 3 0 0 1-3 3h-1M9 63l-.147-7.68L16 58v5z" fill="#db9f95" data-original="#db9f95" class=""></path></g><path fill="#6db569" d="m36.68 53.048-2-.1.345-7.189a34.512 34.512 0 0 1 1-7l1.94.484a32.531 32.531 0 0 0-.945 6.608zM17 58h-2v-1.9a52.568 52.568 0 0 1 1.02-10.3l1.96.392A50.655 50.655 0 0 0 17 56.1z" data-original="#6db569" class=""></path><path fill="#f9cb6e" d="m45 21 3 2-7 5 14-4-3-3 4-7zM45 38l3-2-7-5 14 4-3 3 4 7z" data-original="#f9cb6e" class=""></path><path fill="#ffe2d5" d="M10.868 56.075 11 63h5v-5z" data-original="#ffe2d5" class=""></path><path fill="#db9f95" d="m31.293 30.707-.586-.586a3.921 3.921 0 0 0-5.414 0l-.586.586-1.414-1.414.586-.586a5.828 5.828 0 0 1 8.242 0l.586.586z" data-original="#db9f95" class=""></path><path fill="#eeb9ad" d="m42.187 51.438-1.136 3.409A4.612 4.612 0 0 1 36.676 58a4.612 4.612 0 0 1-4-2.324 24.757 24.757 0 0 1-3.16-10.04L29.091 41a8.669 8.669 0 0 0-.409-1.958 8.683 8.683 0 0 1-.328-4.171 12.255 12.255 0 0 1 3.423-6.651l2.809-2.809a1.415 1.415 0 0 1 1-.414A1.414 1.414 0 0 1 37 26.414a10.96 10.96 0 0 1-1.156 4.9l-2.4 4.793A4.234 4.234 0 0 0 33 38a4.234 4.234 0 0 0 .447 1.894 61.383 61.383 0 0 1 3.542 8.688z" data-original="#eeb9ad" class=""></path><path fill="#ffe2d5" d="M30.354 34.874a8.683 8.683 0 0 0 .328 4.171A8.669 8.669 0 0 1 31.091 41l.421 4.633a24.757 24.757 0 0 0 3.16 10.04 4.6 4.6 0 0 0 3 2.2 4.6 4.6 0 0 0 3.384-3.032l1.136-3.409-5.2-2.856a61.383 61.383 0 0 0-3.542-8.688 4.236 4.236 0 0 1 0-3.788l2.4-4.793A10.96 10.96 0 0 0 37 26.414a1.41 1.41 0 0 0-.414-1l-2.809 2.809a12.255 12.255 0 0 0-3.423 6.651z" data-original="#ffe2d5" class=""></path></g></g></svg>