<svg xmlns="http://www.w3.org/2000/svg" version="1.1" xmlns:xlink="http://www.w3.org/1999/xlink" xmlns:svgjs="http://svgjs.com/svgjs" width="512" height="512" x="0" y="0" viewBox="0 0 64 64" style="enable-background:new 0 0 512 512" xml:space="preserve" class=""><g><g data-name="Outline"><path d="M18.172 10.057a11.712 11.712 0 0 0-7.287 2.631 1 1 0 1 0 1.252 1.558 9.713 9.713 0 0 1 6.035-2.189 1 1 0 0 0 0-2z" fill="#157fb4" data-original="#000000" class=""></path><path d="M60.806 29.362a17.4 17.4 0 0 0-1.187-15.146l.971-.531a2.709 2.709 0 0 0 0-4.755l-1.221-.668a5.831 5.831 0 0 1-2.323-2.324l-.668-1.22a2.711 2.711 0 0 0-4.756 0l-.668 1.221a5.876 5.876 0 0 1-.574.843c-6.293-1.99-12.908.176-18.38 6.03C24.71 5 16.714 4.958 11.21 7.742c-4.694.353-7.755 1.9-8.842 4.5a6.823 6.823 0 0 0 .426 5.61 17.386 17.386 0 0 0 .4 11.51 35.054 35.054 0 0 0 3.7 6.728c1.73 2.654 3.364 5.162 4.036 8.158a21.267 21.267 0 0 1 .377 3.9 21.1 21.1 0 0 0 .522 4.654c1.341 5.106 4.339 7.982 8.3 7.891 6.237-.142 7.782-6.206 9.023-11.073.74-2.9 1.407-5.948 2.85-5.948s2.11 3.047 2.85 5.948c1.241 4.867 2.786 10.925 9.022 11.073 3.943.045 6.961-2.782 8.3-7.891a21.1 21.1 0 0 0 .522-4.654 21.267 21.267 0 0 1 .377-3.9 15.057 15.057 0 0 1 .875-2.638c4.057-.482 6.741-1.979 7.748-4.372.841-1.994.406-4.439-1.223-7.093.107-.263.233-.515.333-.783zM52.708 6.9l.668-1.22a.712.712 0 0 1 1.248 0l.668 1.22a7.822 7.822 0 0 0 3.117 3.119l1.222.668a.711.711 0 0 1 0 1.247l-1.222.668a7.817 7.817 0 0 0-3.117 3.117l-.668 1.222a.712.712 0 0 1-1.248 0l-.668-1.22a7.814 7.814 0 0 0-3.117-3.121l-1.222-.669a.71.71 0 0 1 0-1.246l1.221-.668A7.822 7.822 0 0 0 52.708 6.9zm-48.5 6.117a4.97 4.97 0 0 1 3.114-2.49 17.518 17.518 0 0 0-3.342 4.469 3.794 3.794 0 0 1 .232-1.982zm46.905 30.8a22.953 22.953 0 0 0-.425 4.264 19.265 19.265 0 0 1-.458 4.22c-.635 2.431-2.342 6.472-6.314 6.4-4.721-.111-5.947-4.919-7.132-9.567-.965-3.732-1.842-7.578-4.9-7.46-2.872.11-3.738 3.8-4.672 7.46-1.186 4.648-2.411 9.448-7.132 9.567-3.991.1-5.679-3.966-6.314-6.4a19.265 19.265 0 0 1-.458-4.22 22.953 22.953 0 0 0-.425-4.264c-.75-3.348-2.56-6.126-4.311-8.813a33.036 33.036 0 0 1-3.507-6.341 15.608 15.608 0 0 1-.822-8.343c3.929 5.5 12.569 11.546 22.949 15.917 9.007 3.732 17.4 5.738 24.534 5.552a16.185 16.185 0 0 0-.609 2.02zm1.494-4.079c-6.4.46-15.549-1.514-24.643-5.344-11.053-4.654-20-11.16-23.013-16.688a15.2 15.2 0 0 1 6.331-7.722c4.971-2.962 12.794-3.218 19.88 4.9C32.274 17.1 33.5 20.077 39 20.135a1 1 0 0 0 0-2c-3.9 0-4.91-1.828-5.8-3.656 4.592-5.056 10.04-7.226 15.28-6.133l-1.067.583a2.71 2.71 0 0 0 0 4.756l1.221.668a5.824 5.824 0 0 1 2.323 2.324l.668 1.219a2.71 2.71 0 0 0 4.756 0l.668-1.221a5.864 5.864 0 0 1 .93-1.254 15.418 15.418 0 0 1 .959 13.235A33.081 33.081 0 0 1 55.428 35a46.957 46.957 0 0 0-2.817 4.73zm7.237-3.27c-.606 1.44-2.316 2.46-4.815 2.962.631-1.116 1.34-2.213 2.071-3.334.787-1.209 1.579-2.45 2.294-3.747a5.129 5.129 0 0 1 .454 4.111z" fill="#157fb4" data-original="#000000" class=""></path><path d="m50.224 21.669-.684-.369a2.824 2.824 0 0 1-1.125-1.127l-.374-.683a1.957 1.957 0 0 0-1.719-1.019 1.958 1.958 0 0 0-1.722 1.013l-.374.684A2.824 2.824 0 0 1 43.1 21.3l-.683.373a1.958 1.958 0 0 0 0 3.436l.684.375a2.818 2.818 0 0 1 1.126 1.126l.374.683a1.958 1.958 0 0 0 1.718 1.02 1.961 1.961 0 0 0 1.719-1.019l.374-.685a2.826 2.826 0 0 1 1.125-1.125l.684-.374a1.958 1.958 0 0 0 0-3.436zm-1.643 2.056a4.816 4.816 0 0 0-1.921 1.92l-.3.683-.374-.682a4.812 4.812 0 0 0-1.921-1.921l-.684-.3.683-.374a4.821 4.821 0 0 0 1.922-1.921l.3-.684.374.683a4.825 4.825 0 0 0 1.921 1.921l.684.3z" fill="#157fb4" data-original="#000000" class=""></path><circle cx="9" cy="16.307" r="1" fill="#157fb4" data-original="#000000" class=""></circle></g></g></svg>